<?xml version="1.0" encoding="utf-8"?>
<svg xmlns="http://www.w3.org/2000/svg" width="40.900000000000006mm" height="31.200000000000003mm" viewBox="1.3000000000000007 4.0 40.900000000000006 31.200000000000003">
  <polygon points="17.41057193186191,12.77880145634029 16.73501095783496,12.763972421585095 16.05945114789455,12.815404517775505 15.388463608435814,12.932523114439476 15.360884968715133,12.940116546051364 13.975226904214054,11.554458481550284 13.975222873705405,11.554462512058933 16.586568287338025,14.165807925691553 17.91248772430272,12.839888488726853 17.41057193186191,12.77880145634029" fill="#ffcccc" stroke="gray" stroke-width="0.1" opacity="0.5"/>
  <polygon points="13.975222873705405,11.554462512058933 13.857360097354528,11.67232528840981 13.851405375000013,11.678319375000001 12.726506,12.810654999999997 11.601606625000002,13.942990625000022 10.476707250000004,15.075326250000018 9.351807875000006,16.207661875000014 8.845496523747864,16.717320243656044 9.923108153384751,17.794931873292928 9.923108036410701,17.79493218058293 11.440276034428663,19.3121001786009 9.572066997217561,21.180309215812002 9.572773978214201,21.186119355174853 6.297238523322434,24.46165481006662 11.443534594608394,29.607950881352593 13.754477709019863,27.297007766941125 13.754483577711637,27.297013636221923 16.58983653488066,24.461660679052898 19.445147608145817,27.316971752318054 19.445147820267202,27.31697154017538 19.44515624957792,27.3169799694861 21.732787347213502,25.029119269078564 24.023769616746936,27.32033147773117 26.88243475857095,24.461666335907154 32.0287308298569,29.607962407193128 37.17502287063421,24.461670366415802 33.89955248733143,21.186199983113006 33.87960366178618,21.35014421512801 33.7305451054072,22.012061378436698 33.51350822429782,22.660264960920102 33.2279183961806,23.29018338866331 32.873200998777804,23.897245087751514 32.448781409811886,24.476878484269662 31.954085007005062,25.024512004302977 31.314253310885704,24.384616586894168 30.67442161476629,23.744721169485388 30.03458991864693,23.10482575207658 29.39475822252757,22.46493033466777 29.147181572269506,22.21732902807668 27.798124605178685,23.566385995167508 27.78791398325835,23.55617537324717 26.882424859075996,24.461664497429524 24.59118161494338,22.170421253296908 21.7327761086965,25.029113649256118 18.877717244610558,22.17376823135043 16.58983087802639,24.461654597934597 11.443534806740445,19.315358526648623 16.58983087802642,14.16906245536265 19.46794329988878,17.04717487722503 21.72274190950577,14.792149960135895 21.71677786909504,14.786185325762176 22.264356012670532,14.291438721168362 22.84393073692388,13.866975660824949 23.45093093546018,13.512221514259835 24.080785501884463,13.226601651000948 24.728923329801887,13.009541440576129 25.39077331281743,12.860466252513305 25.553957927500456,12.840605423282062 21.73612291880373,9.022770414585324 17.91829772291271,12.840595610476356 17.91248772430272,12.839888488726853 16.586568287338025,14.165807925691553 13.975222873705405,11.554462512058933" fill="#ccccff" stroke="gray" stroke-width="0.1" opacity="0.5"/>
  <polygon points="13.857360097354528,11.67232528840981 8.82893083292808,16.70075455283626 8.845496523747864,16.717320243656044 9.351807875000006,16.207661875000014 10.476707250000004,15.075326250000018 11.601606625000002,13.942990625000022 12.726506,12.810654999999997 13.851405375000013,11.678319375000001 13.857360097354528,11.67232528840981" fill="#ffcccc" stroke="gray" stroke-width="0.1" opacity="0.5"/>
  <polygon points="9.923108036410701,17.79493218058293 9.847002923955017,17.994859773227034 9.664789190846705,18.656771231938563 9.547680671080627,19.327826979399333 9.496251986934396,20.003455441694427 9.511077760685623,20.67908504490896 9.572066997217561,21.180309215812002 11.440276034428663,19.3121001786009 9.923108036410701,17.79493218058293" fill="#ffcccc" stroke="gray" stroke-width="0.1" opacity="0.5"/>
  <polygon points="13.754483577711637,27.297013636221923 16.60979364950873,30.152610287051772 19.445147608145817,27.316971752318054 16.58983653488066,24.461660679052898 13.754483577711637,27.297013636221923" fill="#ffcccc" stroke="gray" stroke-width="0.1" opacity="0.5"/>
  <polygon points="19.44515624957792,27.3169799694861 21.73613281829867,29.60795653820685 24.023760938284912,27.32032841822061 26.85576980640127,30.152621526696777 29.714432389615055,27.293672027968572 32.02872679934825,29.607966437701776 32.0287308298569,29.607962407193128 26.88243475857095,24.461666335907154 24.023769616746936,27.32033147773117 21.732787347213502,25.029119269078564 19.44515624957792,27.3169799694861" fill="#ffcccc" stroke="gray" stroke-width="0.1" opacity="0.5"/>
  <polygon points="33.89955248733143,21.186199983113006 32.02872679934826,19.31537429512983 29.147009152337645,22.197091942140453 26.85576980640127,19.90562263128291 24.591194074560487,22.170425651896718 21.73613281829867,19.3153643956349 18.87772592307261,22.173771290860962 16.62321788849661,19.919036977976976 16.636904838348016,19.90534866503259 17.276736534467375,19.265453247623782 17.916568230586734,18.625557830215 18.55639992670615,17.985662412806192 19.196231622825508,17.345766995397383 19.481365291603193,17.06060492995674 21.736122918803716,19.315362557157272 26.88241899008969,14.169066485871298 25.553957927500456,12.840605423282062 25.39077331281743,12.860466252513305 24.728923329801887,13.009541440576129 24.080785501884463,13.226601651000948 23.45093093546018,13.512221514259835 22.84393073692388,13.866975660824949 22.264356012670532,14.291438721168362 21.71677786909504,14.786185325762176 21.72274190950577,14.792149960135895 19.46794329988878,17.04717487722503 16.58983087802642,14.16906245536265 11.443534806740445,19.315358526648623 16.58983087802639,24.461654597934597 18.877717244610558,22.17376823135043 21.7327761086965,25.029113649256118 24.59118161494338,22.170421253296908 26.882424859075996,24.461664497429524 27.78791398325835,23.55617537324717 27.798124605178685,23.566385995167508 29.147181572269506,22.21732902807668 29.39475822252757,22.46493033466777 30.03458991864693,23.10482575207658 30.67442161476629,23.744721169485388 31.314253310885704,24.384616586894168 31.954085007005062,25.024512004302977 32.448781409811886,24.476878484269662 32.873200998777804,23.897245087751514 33.2279183961806,23.29018338866331 33.51350822429782,22.660264960920102 33.7305451054072,22.012061378436698 33.87960366178618,21.35014421512801 33.89955248733143,21.186199983113006" fill="#ffcccc" stroke="gray" stroke-width="0.1" opacity="0.5"/>
  <line x1="14.0" y1="11.600000000000001" x2="16.6" y2="14.200000000000001" stroke="red" stroke-width="0.8"/>
  <line x1="16.6" y1="14.200000000000001" x2="17.900000000000002" y2="12.8" stroke="red" stroke-width="0.8"/>
  <line x1="13.9" y1="11.700000000000001" x2="12.700000000000001" y2="12.8" stroke="red" stroke-width="0.8"/>
  <line x1="12.700000000000001" y1="12.8" x2="11.600000000000001" y2="13.9" stroke="red" stroke-width="0.8"/>
  <line x1="11.600000000000001" y1="13.9" x2="10.5" y2="15.100000000000001" stroke="red" stroke-width="0.8"/>
  <line x1="10.5" y1="15.100000000000001" x2="9.4" y2="16.2" stroke="red" stroke-width="0.8"/>
  <line x1="9.4" y1="16.2" x2="8.8" y2="16.7" stroke="red" stroke-width="0.8"/>
  <line x1="9.9" y1="17.8" x2="11.4" y2="19.3" stroke="red" stroke-width="0.8"/>
  <line x1="11.4" y1="19.3" x2="9.600000000000001" y2="21.200000000000003" stroke="red" stroke-width="0.8"/>
  <line x1="13.8" y1="27.3" x2="16.6" y2="24.5" stroke="red" stroke-width="0.8"/>
  <line x1="16.6" y1="24.5" x2="19.400000000000002" y2="27.3" stroke="red" stroke-width="0.8"/>
  <line x1="19.400000000000002" y1="27.3" x2="21.700000000000003" y2="25.0" stroke="red" stroke-width="0.8"/>
  <line x1="21.700000000000003" y1="25.0" x2="24.0" y2="27.3" stroke="red" stroke-width="0.8"/>
  <line x1="24.0" y1="27.3" x2="26.900000000000002" y2="24.5" stroke="red" stroke-width="0.8"/>
  <line x1="26.900000000000002" y1="24.5" x2="32.0" y2="29.6" stroke="red" stroke-width="0.8"/>
  <line x1="33.9" y1="21.200000000000003" x2="33.9" y2="21.400000000000002" stroke="red" stroke-width="0.8"/>
  <line x1="33.9" y1="21.400000000000002" x2="33.7" y2="22.0" stroke="red" stroke-width="0.8"/>
  <line x1="33.7" y1="22.0" x2="33.5" y2="22.700000000000003" stroke="red" stroke-width="0.8"/>
  <line x1="33.5" y1="22.700000000000003" x2="33.2" y2="23.3" stroke="red" stroke-width="0.8"/>
  <line x1="33.2" y1="23.3" x2="32.9" y2="23.900000000000002" stroke="red" stroke-width="0.8"/>
  <line x1="32.9" y1="23.900000000000002" x2="32.4" y2="24.5" stroke="red" stroke-width="0.8"/>
  <line x1="32.4" y1="24.5" x2="32.0" y2="25.0" stroke="red" stroke-width="0.8"/>
  <line x1="32.0" y1="25.0" x2="31.3" y2="24.400000000000002" stroke="red" stroke-width="0.8"/>
  <line x1="31.3" y1="24.400000000000002" x2="30.700000000000003" y2="23.700000000000003" stroke="red" stroke-width="0.8"/>
  <line x1="30.700000000000003" y1="23.700000000000003" x2="30.0" y2="23.1" stroke="red" stroke-width="0.8"/>
  <line x1="30.0" y1="23.1" x2="29.400000000000002" y2="22.5" stroke="red" stroke-width="0.8"/>
  <line x1="29.400000000000002" y1="22.5" x2="29.1" y2="22.200000000000003" stroke="red" stroke-width="0.8"/>
  <line x1="29.1" y1="22.200000000000003" x2="27.8" y2="23.6" stroke="red" stroke-width="0.8"/>
  <line x1="26.900000000000002" y1="24.5" x2="27.8" y2="23.6" stroke="red" stroke-width="0.8"/>
  <line x1="26.900000000000002" y1="24.5" x2="24.6" y2="22.200000000000003" stroke="red" stroke-width="0.8"/>
  <line x1="21.700000000000003" y1="25.0" x2="24.6" y2="22.200000000000003" stroke="red" stroke-width="0.8"/>
  <line x1="21.700000000000003" y1="25.0" x2="18.900000000000002" y2="22.200000000000003" stroke="red" stroke-width="0.8"/>
  <line x1="16.6" y1="24.5" x2="18.900000000000002" y2="22.200000000000003" stroke="red" stroke-width="0.8"/>
  <line x1="11.4" y1="19.3" x2="16.6" y2="24.5" stroke="red" stroke-width="0.8"/>
  <line x1="16.6" y1="14.200000000000001" x2="11.4" y2="19.3" stroke="red" stroke-width="0.8"/>
  <line x1="16.6" y1="14.200000000000001" x2="19.5" y2="17.0" stroke="red" stroke-width="0.8"/>
  <line x1="19.5" y1="17.0" x2="21.700000000000003" y2="14.8" stroke="red" stroke-width="0.8"/>
  <line x1="21.700000000000003" y1="14.8" x2="22.3" y2="14.3" stroke="red" stroke-width="0.8"/>
  <line x1="22.3" y1="14.3" x2="22.8" y2="13.9" stroke="red" stroke-width="0.8"/>
  <line x1="22.8" y1="13.9" x2="23.5" y2="13.5" stroke="red" stroke-width="0.8"/>
  <line x1="23.5" y1="13.5" x2="24.1" y2="13.200000000000001" stroke="red" stroke-width="0.8"/>
  <line x1="24.1" y1="13.200000000000001" x2="24.700000000000003" y2="13.0" stroke="red" stroke-width="0.8"/>
  <line x1="24.700000000000003" y1="13.0" x2="25.400000000000002" y2="12.9" stroke="red" stroke-width="0.8"/>
  <line x1="25.400000000000002" y1="12.9" x2="25.6" y2="12.8" stroke="red" stroke-width="0.8"/>
  <circle cx="17.400000000000002" cy="12.8" r="0.5" fill="green"/>
  <circle cx="16.7" cy="12.8" r="0.5" fill="green"/>
  <circle cx="16.1" cy="12.8" r="0.5" fill="green"/>
  <circle cx="15.4" cy="12.9" r="0.5" fill="green"/>
  <circle cx="14.0" cy="11.600000000000001" r="0.5" fill="green"/>
  <circle cx="16.6" cy="14.200000000000001" r="0.5" fill="black"/>
  <circle cx="17.900000000000002" cy="12.8" r="0.5" fill="green"/>
  <circle cx="13.9" cy="11.700000000000001" r="0.5" fill="green"/>
  <circle cx="12.700000000000001" cy="12.8" r="0.5" fill="green"/>
  <circle cx="11.600000000000001" cy="13.9" r="0.5" fill="green"/>
  <circle cx="10.5" cy="15.100000000000001" r="0.5" fill="green"/>
  <circle cx="9.4" cy="16.2" r="0.5" fill="green"/>
  <circle cx="8.8" cy="16.7" r="0.5" fill="green"/>
  <circle cx="9.9" cy="17.8" r="0.5" fill="green"/>
  <circle cx="11.4" cy="19.3" r="0.5" fill="black"/>
  <circle cx="9.600000000000001" cy="21.200000000000003" r="0.5" fill="green"/>
  <circle cx="6.300000000000001" cy="24.5" r="0.5" fill="green"/>
  <circle cx="11.4" cy="29.6" r="0.5" fill="green"/>
  <circle cx="13.8" cy="27.3" r="0.5" fill="green"/>
  <circle cx="16.6" cy="24.5" r="0.5" fill="black"/>
  <circle cx="19.400000000000002" cy="27.3" r="0.5" fill="green"/>
  <circle cx="21.700000000000003" cy="25.0" r="0.5" fill="black"/>
  <circle cx="24.0" cy="27.3" r="0.5" fill="green"/>
  <circle cx="26.900000000000002" cy="24.5" r="0.5" fill="black"/>
  <circle cx="32.0" cy="29.6" r="0.5" fill="green"/>
  <circle cx="37.2" cy="24.5" r="0.5" fill="green"/>
  <circle cx="33.9" cy="21.200000000000003" r="0.5" fill="green"/>
  <circle cx="33.9" cy="21.400000000000002" r="0.5" fill="green"/>
  <circle cx="33.7" cy="22.0" r="0.5" fill="black"/>
  <circle cx="33.5" cy="22.700000000000003" r="0.5" fill="black"/>
  <circle cx="33.2" cy="23.3" r="0.5" fill="black"/>
  <circle cx="32.9" cy="23.900000000000002" r="0.5" fill="black"/>
  <circle cx="32.4" cy="24.5" r="0.5" fill="black"/>
  <circle cx="32.0" cy="25.0" r="0.5" fill="black"/>
  <circle cx="31.3" cy="24.400000000000002" r="0.5" fill="black"/>
  <circle cx="30.700000000000003" cy="23.700000000000003" r="0.5" fill="black"/>
  <circle cx="30.0" cy="23.1" r="0.5" fill="black"/>
  <circle cx="29.400000000000002" cy="22.5" r="0.5" fill="black"/>
  <circle cx="29.1" cy="22.200000000000003" r="0.5" fill="green"/>
  <circle cx="27.8" cy="23.6" r="0.5" fill="black"/>
  <circle cx="24.6" cy="22.200000000000003" r="0.5" fill="green"/>
  <circle cx="18.900000000000002" cy="22.200000000000003" r="0.5" fill="green"/>
  <circle cx="19.5" cy="17.0" r="0.5" fill="green"/>
  <circle cx="21.700000000000003" cy="14.8" r="0.5" fill="black"/>
  <circle cx="22.3" cy="14.3" r="0.5" fill="black"/>
  <circle cx="22.8" cy="13.9" r="0.5" fill="black"/>
  <circle cx="23.5" cy="13.5" r="0.5" fill="black"/>
  <circle cx="24.1" cy="13.200000000000001" r="0.5" fill="black"/>
  <circle cx="24.700000000000003" cy="13.0" r="0.5" fill="black"/>
  <circle cx="25.400000000000002" cy="12.9" r="0.5" fill="green"/>
  <circle cx="25.6" cy="12.8" r="0.5" fill="green"/>
  <circle cx="21.700000000000003" cy="9.0" r="0.5" fill="green"/>
  <circle cx="9.8" cy="18.0" r="0.5" fill="green"/>
  <circle cx="9.700000000000001" cy="18.7" r="0.5" fill="green"/>
  <circle cx="9.5" cy="19.3" r="0.5" fill="green"/>
  <circle cx="9.5" cy="20.0" r="0.5" fill="green"/>
  <circle cx="9.5" cy="20.700000000000003" r="0.5" fill="green"/>
  <circle cx="16.6" cy="30.200000000000003" r="0.5" fill="green"/>
  <circle cx="21.700000000000003" cy="29.6" r="0.5" fill="green"/>
  <circle cx="26.900000000000002" cy="30.200000000000003" r="0.5" fill="green"/>
  <circle cx="29.700000000000003" cy="27.3" r="0.5" fill="green"/>
  <circle cx="32.0" cy="19.3" r="0.5" fill="green"/>
  <circle cx="26.900000000000002" cy="19.900000000000002" r="0.5" fill="green"/>
  <circle cx="21.700000000000003" cy="19.3" r="0.5" fill="green"/>
  <circle cx="16.6" cy="19.900000000000002" r="0.5" fill="green"/>
  <circle cx="17.3" cy="19.3" r="0.5" fill="green"/>
  <circle cx="17.900000000000002" cy="18.6" r="0.5" fill="green"/>
  <circle cx="18.6" cy="18.0" r="0.5" fill="green"/>
  <circle cx="19.200000000000003" cy="17.3" r="0.5" fill="green"/>
  <circle cx="19.5" cy="17.1" r="0.5" fill="green"/>
  <circle cx="26.900000000000002" cy="14.200000000000001" r="0.5" fill="green"/>
</svg>