<?xml version="1.0" encoding="UTF-8" standalone="no"?>
<!-- Created with Inkscape (http://www.inkscape.org/) -->

<svg
   width="600mm"
   height="600mm"
   viewBox="0 0 600 600"
   version="1.1"
   id="svg1"
   inkscape:version="1.3 (0e150ed, 2023-07-21)"
   sodipodi:docname="sol.svg"
   xmlns:inkscape="http://www.inkscape.org/namespaces/inkscape"
   xmlns:sodipodi="http://sodipodi.sourceforge.net/DTD/sodipodi-0.dtd"
   xmlns="http://www.w3.org/2000/svg"
   xmlns:svg="http://www.w3.org/2000/svg">
  <sodipodi:namedview
     id="namedview1"
     pagecolor="#ffffff"
     bordercolor="#000000"
     borderopacity="0.25"
     inkscape:showpageshadow="2"
     inkscape:pageopacity="0.0"
     inkscape:pagecheckerboard="0"
     inkscape:deskcolor="#d1d1d1"
     inkscape:document-units="mm"
     showgrid="false"
     inkscape:zoom="0.12050678"
     inkscape:cx="-157.66748"
     inkscape:cy="547.68703"
     inkscape:window-width="1312"
     inkscape:window-height="761"
     inkscape:window-x="420"
     inkscape:window-y="269"
     inkscape:window-maximized="0"
     inkscape:current-layer="layer1">
    <inkscape:grid
       id="grid2"
       units="mm"
       originx="-142.86557"
       originy="-84.576579"
       spacingx="0.99999998"
       spacingy="1"
       empcolor="#0099e5"
       empopacity="0.30196078"
       color="#0099e5"
       opacity="0.14901961"
       empspacing="5"
       dotted="false"
       gridanglex="30"
       gridanglez="30"
       visible="false" />
  </sodipodi:namedview>
  <defs
     id="defs1" />
  <g
     inkscape:label="Layer 1"
     inkscape:groupmode="layer"
     id="layer1"
     transform="translate(-37.799849,-22.377553)">
    <g
       id="g31"
       transform="matrix(4.8254159,0,0,4.8252631,-144.60015,-85.600033)"
       style="stroke-width:0.207239">
      <rect
         style="fill:#f6f5f4;stroke:none;stroke-width:0.062172"
         id="rect29"
         width="124.34161"
         height="124.34161"
         x="37.79985"
         y="22.381491" />
      <g
         id="g29"
         transform="translate(-5.0025092,8.5762521)"
         style="stroke-width:0.207239">
        <g
           id="g30"
           style="stroke-width:0.207239">
          <path
             id="path27"
             style="fill:none;stroke:#000000;stroke-width:0.062172"
             d="m 69.527984,13.815154 -2e-6,28.71332 m 1e-6,70.527556 10e-7,25.02021 m 0.01662,-25.00206 C 60.212599,103.70339 54.973182,91.01713 54.973183,77.792229 c 0,-13.224838 5.239369,-25.911045 14.571297,-35.281823"
             sodipodi:nodetypes="cccccsc" />
          <path
             id="path28"
             style="fill:none;stroke:#000000;stroke-width:0.062172"
             d="m 140.28576,13.885937 -0.007,28.572152 c 9.37745,9.376904 14.6946,22.072809 14.6946,35.334139 v 0 c 10e-6,13.261325 -5.31605,25.920992 -14.69349,35.297902 -0.01,8.3351 0.006,16.64939 0.006,24.98658"
             sodipodi:nodetypes="ccsscc" />
          <path
             id="path25"
             style="fill:none;stroke:#000000;stroke-width:0.062172"
             d="m 104.97318,13.801302 v 13.991007 m 0,99.999791 v 10.25844 m 0,-60.258311 c -13.807118,-2e-6 -24.999997,-11.192882 -24.999997,-25 -1e-6,-13.807118 11.192879,-24.999999 24.999997,-25.000001 m 0,50.000001 c 13.80712,0 25,11.192882 25,25.000001 0,13.80712 -11.19288,25 -25,25"
             sodipodi:nodetypes="cccccsccsc" />
        </g>
      </g>
    </g>
  </g>
</svg>
