<?xml version="1.0" encoding="UTF-8" standalone="no"?>
<!-- Created with Inkscape (http://www.inkscape.org/) -->

<svg
   width="600mm"
   height="600mm"
   viewBox="0 0 600 600"
   version="1.1"
   id="svg1"
   inkscape:version="1.3 (0e150ed, 2023-07-21)"
   sodipodi:docname="sol.svg"
   xmlns:inkscape="http://www.inkscape.org/namespaces/inkscape"
   xmlns:sodipodi="http://sodipodi.sourceforge.net/DTD/sodipodi-0.dtd"
   xmlns="http://www.w3.org/2000/svg"
   xmlns:svg="http://www.w3.org/2000/svg">
  <sodipodi:namedview
     id="namedview1"
     pagecolor="#ffffff"
     bordercolor="#000000"
     borderopacity="0.25"
     inkscape:showpageshadow="2"
     inkscape:pageopacity="0.0"
     inkscape:pagecheckerboard="0"
     inkscape:deskcolor="#d1d1d1"
     inkscape:document-units="mm"
     showgrid="false"
     inkscape:zoom="0.23704338"
     inkscape:cx="850.05536"
     inkscape:cy="1155.9065"
     inkscape:window-width="1312"
     inkscape:window-height="761"
     inkscape:window-x="221"
     inkscape:window-y="116"
     inkscape:window-maximized="0"
     inkscape:current-layer="layer1">
    <inkscape:grid
       id="grid2"
       units="mm"
       originx="-142.86557"
       originy="-84.576579"
       spacingx="0.99999998"
       spacingy="1"
       empcolor="#0099e5"
       empopacity="0.30196078"
       color="#0099e5"
       opacity="0.14901961"
       empspacing="5"
       dotted="false"
       gridanglex="30"
       gridanglez="30"
       visible="false" />
  </sodipodi:namedview>
  <defs
     id="defs1" />
  <g
     inkscape:label="Layer 1"
     inkscape:groupmode="layer"
     id="layer1"
     transform="translate(-37.799849,-22.377553)">
    <g
       id="g29"
       transform="matrix(4.8254159,0,0,4.8252631,-168.73934,-44.21736)"
       style="stroke-width:0.207239">
      <g
         id="g30"
         style="stroke-width:0.207239">
        <path
           id="path27"
           style="fill:none;stroke:#000000;stroke-width:0.062172"
           d="m 69.527984,13.815154 -2e-6,28.71332 0.0165,-0.01807 c -9.331928,9.370778 -14.571297,22.056985 -14.571297,35.281823 -10e-7,13.224901 5.239416,25.911161 14.571421,35.281951 m -0.01662,-0.0181 10e-7,25.02021"
           sodipodi:nodetypes="cccsccc" />
        <path
           id="path28"
           style="fill:none;stroke:#000000;stroke-width:0.062172"
           d="m 140.28576,13.885937 -0.007,28.572152 c 9.37745,9.376904 14.6946,22.072809 14.6946,35.334139 v 0 c 10e-6,13.261325 -5.31605,25.920992 -14.69349,35.297902 -0.01,8.3351 0.006,16.64939 0.006,24.98658"
           sodipodi:nodetypes="ccsscc" />
        <path
           id="path25"
           style="fill:none;stroke:#000000;stroke-width:0.062172"
           d="m 104.97318,13.801302 v 13.991007 m 0,99.999791 v 10.25844 m 0,-60.258311 c -13.807118,-2e-6 -24.999997,-11.192882 -24.999997,-25 -1e-6,-13.807118 11.192879,-24.999999 24.999997,-25.000001 m 0,50.000001 c 13.80712,0 25,11.192882 25,25.000001 0,13.80712 -11.19288,25 -25,25"
           sodipodi:nodetypes="cccccsccsc" />
      </g>
    </g>
  </g>
</svg>
