<svg xmlns="http://www.w3.org/2000/svg" width="64" height="64" viewBox="135 135 330 330" preserveAspectRatio="xMidYMid meet">
  <g transform="rotate(45, 300, 300)">
    <defs>
      <clipPath id="overlap-clip">
        <rect x="225" y="225" width="150" height="150" />
      </clipPath>
    </defs>
    <path d="M 225 225 L 375 225 L 375 375 L 225 375 A 75 75 0 1 1 225 225 Z" fill="#ffffff" />
    <path d="M 225 225 A 75 75 0 1 1 375 225 L 375 375 L 225 375 L 225 225 Z" fill="#cc0000" />
    <g clip-path="url(#overlap-clip)">
      <rect x="225" y="225" width="150" height="150" fill="#ffffff" />
      <path d="
    M 300 225
    L 375 225
    L 375 300
    L 300 300
    Z
    M 225 300
    L 300 300
    L 300 375
    L 225 375
    Z
  " fill="#cc0000" fill-rule="evenodd" />
    </g>
    <path d="M 225 225 A 75 75 0 1 1 375 225 L 375 375 L 225 375 A 75 75 0 1 1 225 225 Z" fill="none" stroke="#999999" stroke-width="1.8" stroke-linejoin="round" stroke-linecap="round" />
  </g>
</svg>