<?xml version="1.0" encoding="UTF-8" standalone="no"?>
<!-- Created with Inkscape (http://www.inkscape.org/) -->

<svg
   width="100mm"
   height="100mm"
   viewBox="0 0 100 100"
   version="1.1"
   id="svg1"
   inkscape:version="1.3 (0e150ed, 2023-07-21)"
   sodipodi:docname="5star.svg"
   xmlns:inkscape="http://www.inkscape.org/namespaces/inkscape"
   xmlns:sodipodi="http://sodipodi.sourceforge.net/DTD/sodipodi-0.dtd"
   xmlns:xlink="http://www.w3.org/1999/xlink"
   xmlns="http://www.w3.org/2000/svg"
   xmlns:svg="http://www.w3.org/2000/svg"
   xmlns:rdf="http://www.w3.org/1999/02/22-rdf-syntax-ns#"
   xmlns:cc="http://creativecommons.org/ns#"
   xmlns:dc="http://purl.org/dc/elements/1.1/">
  <metadata>
    <rdf:RDF>
      <cc:Work rdf:about="">
        <dc:title>5-Stjerne</dc:title>
        <dc:creator>
          <cc:Agent>
            <dc:title>Thomas Ahle</dc:title>
          </cc:Agent>
        </dc:creator>
        <dc:description>Outline af en 5-takket stjerne</dc:description>
        <dc:source>juleflet.dk</dc:source>
      </cc:Work>
    </rdf:RDF>
  </metadata>
  <defs
     id="defs1" />
  <g
     inkscape:label="Layer 1"
     inkscape:groupmode="layer"
     id="layer1">
    <rect
       style="fill:#ff7800;stroke:none;stroke-width:0.3"
       id="rect8"
       width="30"
       height="10"
       x="60"
       y="90" />
    <rect
       style="fill:#c061cb;stroke:none;stroke-width:0.3"
       id="rect9"
       width="10"
       height="10"
       x="90"
       y="90" />
    <path
       sodipodi:type="star"
       style="fill:#f6d32d;stroke:none;stroke-width:0.3"
       id="path1"
       inkscape:flatsided="false"
       sodipodi:sides="5"
       sodipodi:cx="50.002865"
       sodipodi:cy="50.002865"
       sodipodi:r1="38.265846"
       sodipodi:r2="18.588888"
       sodipodi:arg1="-1.5707963"
       sodipodi:arg2="-0.9424778"
       inkscape:rounded="0"
       inkscape:randomized="0"
       d="m 50.002866,11.737019 10.926273,23.227119 25.466709,3.213931 -18.7139,17.569078 4.813016,25.213438 L 50.002865,68.591753 27.510764,80.960584 32.323782,55.747147 13.609883,38.178067 39.07659,34.964138 Z"
       inkscape:transform-center-y="1.8401292"
       transform="rotate(-45,50.354743,49.857111)"
       inkscape:transform-center-x="-1.8401279" />
    <path
       style="fill:none;stroke:#57e389;stroke-width:0.3"
       d="m 10,0 v 40 l 19.218958,0 2.631505,7.293504 L 21.99858,60 H 10 l 0.15,39.961439"
       id="path5"
       sodipodi:nodetypes="ccccccc" />
    <path
       style="fill:none;stroke:#33d17a;stroke-width:0.3"
       d="M 40,0 V 29.22 L 23.147867,23.148839 36.528664,36.541968 40.866654,48.5514 33.03333,58.654486 16.112702,67.583881 40,66.825899 V 100"
       id="path2"
       sodipodi:nodetypes="ccccccccc" />
    <path
       style="fill:none;stroke:#2ec27e;stroke-width:0.3"
       d="m 90,0 v 40.002344 l -23.172932,-0.0017 -0.0571,1.770986 21.233967,14.42339 -13.11171,3.804834 L 90,60 89.9962,90.017453 v 9.875325"
       id="path10"
       sodipodi:nodetypes="ccccccccc" />
    <path
       sodipodi:type="star"
       style="fill:#c061cb;stroke:#2ec27e;stroke-width:0.602565"
       id="path3"
       inkscape:flatsided="false"
       sodipodi:sides="5"
       sodipodi:cx="50.002865"
       sodipodi:cy="50.002865"
       sodipodi:r1="38.265846"
       sodipodi:r2="18.588888"
       sodipodi:arg1="-1.5707963"
       sodipodi:arg2="-0.9424778"
       inkscape:rounded="0"
       inkscape:randomized="0"
       d="m 50.002866,11.737019 10.926273,23.227119 25.466709,3.213931 -18.7139,17.569078 4.813016,25.213438 L 50.002865,68.591753 27.510764,80.960584 32.323782,55.747147 13.609883,38.178067 39.07659,34.964138 Z"
       inkscape:transform-center-y="0.91614811"
       transform="matrix(0.35204834,-0.35204834,0.35204834,0.35204834,14.799926,50.006778)"
       inkscape:transform-center-x="-0.91614748" />
    <rect
       style="fill:#c061cb;stroke:none;stroke-width:0.3"
       id="rect4"
       width="10"
       height="10"
       x="0"
       y="0" />
    <rect
       style="fill:#c061cb;stroke:none;stroke-width:0.3"
       id="rect5"
       width="10"
       height="10"
       x="0"
       y="90" />
    <rect
       style="fill:#c061cb;stroke:none;stroke-width:0.3"
       id="rect6"
       width="10"
       height="10"
       x="90"
       y="0" />
    <rect
       style="fill:#ff7800;stroke:none;stroke-width:0.3"
       id="rect7"
       width="30"
       height="10"
       x="60"
       y="0" />
    <path
       style="fill:none;stroke:#2ec27e;stroke-width:0.3"
       d="m 60,0 v 22.01444 l 7.58934,-5.90333 -8.934508,16.923829 -0.40145,12.770057 10.577617,7.181963 -12.281638,3.563334 6.810271,6.797184 L 60,74.900536 l -0.0243,14.657851 0.0273,10.440427"
       id="path9"
       sodipodi:nodetypes="ccccccccccc" />
    <use
       x="0"
       y="0"
       xlink:href="#path5"
       id="use9"
       transform="matrix(0,1,1,0,0,0)" />
    <rect
       style="fill:#ff7800;stroke:none;stroke-width:0.3"
       id="rect10"
       width="30"
       height="10"
       x="60"
       y="-10"
       transform="rotate(90)" />
    <use
       x="0"
       y="0"
       xlink:href="#path2"
       id="use10"
       transform="matrix(0,1,1,0,4.7396173e-4,1.0971909e-4)" />
    <use
       x="0"
       y="0"
       xlink:href="#path9"
       id="use11"
       transform="matrix(0,1,1,0,0,0.00235491)" />
    <use
       x="0"
       y="0"
       xlink:href="#path10"
       id="use12"
       transform="matrix(0,1,1,0,0.00327157,0.00150276)" />
  </g>
</svg>
