<?xml version="1.0" encoding="UTF-8" standalone="no"?>
<!-- Created with Inkscape (http://www.inkscape.org/) -->

<svg
   width="100mm"
   height="100mm"
   viewBox="0 0 100 100"
   version="1.1"
   id="svg1"
   xml:space="preserve"
   inkscape:version="1.3 (0e150ed, 2023-07-21)"
   sodipodi:docname="alhambra.svg"
   xmlns:inkscape="http://www.inkscape.org/namespaces/inkscape"
   xmlns:sodipodi="http://sodipodi.sourceforge.net/DTD/sodipodi-0.dtd"
   xmlns="http://www.w3.org/2000/svg"
   xmlns:svg="http://www.w3.org/2000/svg"
   xmlns:rdf="http://www.w3.org/1999/02/22-rdf-syntax-ns#"
   xmlns:cc="http://creativecommons.org/ns#"
   xmlns:dc="http://purl.org/dc/elements/1.1/"><title
     id="title10">Alhambra</title><sodipodi:namedview
     id="namedview1"
     pagecolor="#ffffff"
     bordercolor="#000000"
     borderopacity="0.25"
     inkscape:showpageshadow="2"
     inkscape:pageopacity="0.0"
     inkscape:pagecheckerboard="0"
     inkscape:deskcolor="#d1d1d1"
     inkscape:document-units="mm"
     inkscape:zoom="1.1951438"
     inkscape:cx="176.96615"
     inkscape:cy="176.12943"
     inkscape:window-width="1368"
     inkscape:window-height="834"
     inkscape:window-x="200"
     inkscape:window-y="75"
     inkscape:window-maximized="0"
     inkscape:current-layer="layer1" /><defs
     id="defs1" /><g
     inkscape:label="Layer 1"
     inkscape:groupmode="layer"
     id="layer1"><g
       id="g5"><path
         style="fill:none;stroke:#ff7800;stroke-width:0.3;stroke-opacity:0.495935"
         d="M 6.8875224,-0.07088146 21.563433,28.689243 7.1258109,35.945757 21.589694,64.318028 7.0879321,71.595275 21.685876,100.14374"
         id="path1"
         sodipodi:nodetypes="cccccc" /><path
         style="fill:none;stroke:#ff7800;stroke-width:0.3;stroke-opacity:0.495935"
         d="M 42.451896,-0.07088146 57.127807,28.689243 42.690185,35.945757 57.154068,64.318028 42.652306,71.595275 57.25025,100.14374"
         id="path2"
         sodipodi:nodetypes="cccccc" /><path
         style="fill:none;stroke:#ff7800;stroke-width:0.3;stroke-opacity:0.495935"
         d="M 78.115604,-0.07088146 92.791515,28.689243 78.353893,35.945757 92.817776,64.318028 78.316014,71.595275 92.913958,100.14374"
         id="path3"
         sodipodi:nodetypes="cccccc" /><path
         style="fill:none;stroke:#ff7800;stroke-width:0.3;stroke-opacity:0.495935"
         d="M 31.330429,-0.0436661 25.19534,10.938358 39.577729,18.323774 25.160756,46.577128 39.587805,53.947599 25.179231,82.195113 39.422146,89.485112 33.410802,100.13439"
         id="path4" /><path
         style="fill:none;stroke:#ff7800;stroke-width:0.3;stroke-opacity:0.495935"
         d="M 66.953577,-0.0436661 60.818488,10.938358 75.200877,18.323774 60.783904,46.577128 75.210953,53.947599 60.802379,82.195113 75.045294,89.485112 69.03395,100.13439"
         id="path5" /></g><g
       id="g10"
       transform="matrix(0,1,1,0,-0.135773,0.13577354)"
       style="stroke:#57e389"><path
         style="fill:none;stroke:#57e389;stroke-width:0.3;stroke-opacity:0.495935"
         d="M 6.8875224,-0.07088146 21.563433,28.689243 7.1258109,35.945757 21.589694,64.318028 7.0879321,71.595275 21.685876,100.14374"
         id="path6"
         sodipodi:nodetypes="cccccc" /><path
         style="fill:none;stroke:#57e389;stroke-width:0.3;stroke-opacity:0.495935"
         d="M 42.451896,-0.07088146 57.127807,28.689243 42.690185,35.945757 57.154068,64.318028 42.652306,71.595275 57.25025,100.14374"
         id="path7"
         sodipodi:nodetypes="cccccc" /><path
         style="fill:none;stroke:#57e389;stroke-width:0.3;stroke-opacity:0.495935"
         d="M 78.115604,-0.07088146 92.791515,28.689243 78.353893,35.945757 92.817776,64.318028 78.316014,71.595275 92.913958,100.14374"
         id="path8"
         sodipodi:nodetypes="cccccc" /><path
         style="fill:none;stroke:#57e389;stroke-width:0.3;stroke-opacity:0.495935"
         d="M 31.330429,-0.0436661 25.19534,10.938358 39.577729,18.323774 25.160756,46.577128 39.587805,53.947599 25.179231,82.195113 39.422146,89.485112 33.410802,100.13439"
         id="path9" /><path
         style="fill:none;stroke:#57e389;stroke-width:0.3;stroke-opacity:0.495935"
         d="M 66.953577,-0.0436661 60.818488,10.938358 75.200877,18.323774 60.783904,46.577128 75.210953,53.947599 60.802379,82.195113 75.045294,89.485112 69.03395,100.13439"
         id="path10" /></g></g><metadata
     id="metadata10"><rdf:RDF><cc:Work
         rdf:about=""><dc:title>Alhambra</dc:title><dc:creator><cc:Agent><dc:title>Torben Mogensen</dc:title></cc:Agent></dc:creator><dc:description>A pattern inspired by the Alhambra tiling. Note that it is somewhat tricky to braid, as the corners tend to snag, so it should not be your first braiding project.</dc:description></cc:Work></rdf:RDF></metadata></svg>
