<?xml version="1.0" encoding="UTF-8" standalone="no"?>
<svg
   viewBox="0 0 100 100"
   data-weave-parity="0"
   version="1.1"
   id="svg14"
   sodipodi:docname="amy-weave-2.svg"
   inkscape:version="1.3 (0e150ed, 2023-07-21)"
   xmlns:inkscape="http://www.inkscape.org/namespaces/inkscape"
   xmlns:sodipodi="http://sodipodi.sourceforge.net/DTD/sodipodi-0.dtd"
   xmlns="http://www.w3.org/2000/svg"
   xmlns:svg="http://www.w3.org/2000/svg"
   xmlns:rdf="http://www.w3.org/1999/02/22-rdf-syntax-ns#"
   xmlns:cc="http://creativecommons.org/ns#"
   xmlns:dc="http://purl.org/dc/elements/1.1/">
   <metadata
     id="metadata1">
    <rdf:RDF>
      <cc:Work
         rdf:about="">
        <dc:title>Weave 2</dc:title>
        <dc:creator><cc:Agent><dc:title>Amy Young</dc:title></cc:Agent></dc:creator>
        <dc:date>2025-12-20</dc:date>
      </cc:Work>
    </rdf:RDF>
  </metadata>
  <defs
     id="defs14" />
  <sodipodi:namedview
     id="namedview14"
     pagecolor="#ffffff"
     bordercolor="#000000"
     borderopacity="0.25"
     inkscape:showpageshadow="2"
     inkscape:pageopacity="0.0"
     inkscape:pagecheckerboard="0"
     inkscape:deskcolor="#d1d1d1"
     inkscape:zoom="2.36"
     inkscape:cx="49.788136"
     inkscape:cy="50"
     inkscape:window-width="1312"
     inkscape:window-height="411"
     inkscape:window-x="0"
     inkscape:window-y="34"
     inkscape:window-maximized="0"
     inkscape:current-layer="svg14" />
  <title
     id="title1">Weave 2</title>
  
  <g
     id="g14"
     transform="matrix(2.6648928,0,0,2.66558,-0.05537352,-0.05539638)"
     style="stroke-width:0.375201">
    <path
       d="m 37.53326,2.5305675 c 0,0 -37.50000049,0 -37.50000049,0"
       stroke="#ffa500"
       fill="none"
       id="path1"
       style="stroke-width:0.375201" />
    <path
       d="m 37.53326,5.1334775 c 0,0 -37.50000049,0 -37.50000049,0"
       stroke="#ffa500"
       fill="none"
       id="path2"
       style="stroke-width:0.375201" />
    <path
       d="m 37.53326,10.804331 c -11.25,-0.75 -26.25,-0.75 -37.50000049,0"
       stroke="#ffa500"
       fill="none"
       id="path3"
       style="stroke-width:0.375201" />
    <path
       d="m 37.53326,25.03326 c -11.25,0.75 -26.25,0.75 -37.50000049,0"
       stroke="#ffa500"
       fill="none"
       id="path4"
       style="stroke-width:0.375201" />
    <path
       d="m 37.53326,26.762189 c -11.25,0.75 -26.25,0.75 -37.50000049,0"
       stroke="#ffa500"
       fill="none"
       id="path5"
       style="stroke-width:0.375201" />
    <path
       d="m 37.53326,32.433042 c 0,0 -37.50000049,0 -37.50000049,0"
       stroke="#ffa500"
       fill="none"
       id="path6"
       style="stroke-width:0.375201" />
    <path
       d="m 37.53326,35.035952 c 0,0 -37.50000049,0 -37.50000049,0"
       stroke="#ffa500"
       fill="none"
       id="path7"
       style="stroke-width:0.375201" />
    <path
       d="m 2.5305673,37.53326 c 0,0 0,-37.50000049 0,-37.50000049"
       stroke="#008000"
       fill="none"
       id="path8"
       style="stroke-width:0.375201" />
    <path
       d="m 5.1334772,37.53326 c 0,0 0,-37.50000049 0,-37.50000049"
       stroke="#008000"
       fill="none"
       id="path9"
       style="stroke-width:0.375201" />
    <path
       d="m 10.804331,37.53326 c -0.75,-11.25 -0.75,-26.25 0,-37.50000049"
       stroke="#008000"
       fill="none"
       id="path10"
       style="stroke-width:0.375201" />
    <path
       d="m 25.03326,37.53326 c 0.75,-11.25 0.75,-26.25 0,-37.50000049"
       stroke="#008000"
       fill="none"
       id="path11"
       style="stroke-width:0.375201" />
    <path
       d="m 26.762188,37.53326 c 0.75,-11.25 0.75,-26.25 0,-37.50000049"
       stroke="#008000"
       fill="none"
       id="path12"
       style="stroke-width:0.375201" />
    <path
       d="m 32.433042,37.53326 c 0,0 0,-37.50000049 0,-37.50000049"
       stroke="#008000"
       fill="none"
       id="path13"
       style="stroke-width:0.375201" />
    <path
       d="m 35.035952,37.53326 c 0,0 0,-37.50000049 0,-37.50000049"
       stroke="#008000"
       fill="none"
       id="path14"
       style="stroke-width:0.375201" />
  </g>
</svg>
