<?xml version="1.0" encoding="UTF-8" standalone="no"?>
<svg
   viewBox="0 0 100 100"
   data-weave-parity="0"
   version="1.1"
   id="svg13"
   sodipodi:docname="amy-weave-1.svg"
   inkscape:version="1.3 (0e150ed, 2023-07-21)"
   xmlns:inkscape="http://www.inkscape.org/namespaces/inkscape"
   xmlns:sodipodi="http://sodipodi.sourceforge.net/DTD/sodipodi-0.dtd"
   xmlns="http://www.w3.org/2000/svg"
   xmlns:svg="http://www.w3.org/2000/svg"
   xmlns:rdf="http://www.w3.org/1999/02/22-rdf-syntax-ns#"
   xmlns:cc="http://creativecommons.org/ns#"
   xmlns:dc="http://purl.org/dc/elements/1.1/">
   <metadata
     id="metadata1">
    <rdf:RDF>
      <cc:Work
         rdf:about="">
        <dc:title>Weave 1</dc:title>
        <dc:creator><cc:Agent><dc:title>Amy Young</dc:title></cc:Agent></dc:creator>
        <dc:date>2025-12-20</dc:date>
      </cc:Work>
    </rdf:RDF>
  </metadata>
  <defs
     id="defs13" />
  <sodipodi:namedview
     id="namedview13"
     pagecolor="#ffffff"
     bordercolor="#000000"
     borderopacity="0.25"
     inkscape:showpageshadow="2"
     inkscape:pageopacity="0.0"
     inkscape:pagecheckerboard="0"
     inkscape:deskcolor="#d1d1d1"
     inkscape:zoom="4.7136277"
     inkscape:cx="41.475486"
     inkscape:cy="38.399299"
     inkscape:window-width="1248"
     inkscape:window-height="893"
     inkscape:window-x="0"
     inkscape:window-y="34"
     inkscape:window-maximized="0"
     inkscape:current-layer="svg13" />
  <title
     id="title1">Weave 1</title>
  <path
     d="m 99.962015,7.143455 c 0,0 -99.92402985,0 -99.92402985,0"
     stroke="#ffa500"
     fill="none"
     id="path1"
     style="stroke-width:1" />
  <path
     d="m 99.962015,13.002323 c 0,0 -99.92402985,0 -99.92402985,0"
     stroke="#ffa500"
     fill="none"
     id="path2"
     style="stroke-width:1" />
  <path
     d="m 99.962015,33.311253 c -29.977209,-1.996928 -69.946821,1.996929 -99.92402985,0"
     stroke="#ffa500"
     fill="none"
     id="path3"
     style="stroke-width:1" />
  <path
     d="m 99.962015,51.736975 c -29.977209,1.996928 -69.946821,-1.996929 -99.92402985,0"
     stroke="#ffa500"
     fill="none"
     id="path4"
     style="stroke-width:1" />
  <path
     d="m 99.962015,62.14844 c 0,0 -99.92402985,0 -99.92402985,0"
     stroke="#ffa500"
     fill="none"
     id="path5"
     style="stroke-width:1" />
  <path
     d="m 99.962015,95.899867 c 0,0 -99.92402985,0 -99.92402985,0"
     stroke="#ffa500"
     fill="none"
     id="path6"
     style="stroke-width:1" />
  <path
     d="m 4.8543686,99.875526 c 0,0 0,-99.84640882 0,-99.84640882"
     stroke="#008000"
     fill="none"
     id="path7"
     style="stroke-width:1" />
  <path
     d="m 11.136606,99.875526 c 0,0 0,-99.84640882 0,-99.84640882"
     stroke="#008000"
     fill="none"
     id="path8"
     style="stroke-width:1" />
  <path
     d="m 21.200336,99.875526 c -1.998481,-29.953921 1.99848,-69.892488 0,-99.84640882"
     stroke="#008000"
     fill="none"
     id="path9"
     style="stroke-width:1" />
  <path
     d="m 66.654005,99.875526 c 1.99848,-29.953921 -1.998481,-69.892488 0,-99.84640882"
     stroke="#008000"
     fill="none"
     id="path10"
     style="stroke-width:1" />
  <path
     d="m 80.905892,99.875526 c 0,0 0,-99.84640882 0,-99.84640882"
     stroke="#008000"
     fill="none"
     id="path11"
     style="stroke-width:1" />
  <path
     d="m 89.701027,99.875526 c 0,0 0,-99.84640882 0,-99.84640882"
     stroke="#008000"
     fill="none"
     id="path12"
     style="stroke-width:1" />
  <path
     d="m 93.889184,99.875526 c 0,0 0,-99.84640882 0,-99.84640882"
     stroke="#008000"
     fill="none"
     id="path13"
     style="stroke-width:1" />
</svg>
