<svg viewBox="0 0 100 100" xmlns="http://www.w3.org/2000/svg" xmlns:rdf="http://www.w3.org/1999/02/22-rdf-syntax-ns#" xmlns:cc="http://creativecommons.org/ns#" xmlns:dc="http://purl.org/dc/elements/1.1/" data-weave-parity="0">
  <title>Flowering</title>
  <metadata>
    <rdf:RDF>
      <cc:Work rdf:about="">
        <dc:title>Blomst 2</dc:title>
        <dc:creator>
          <cc:Agent>
            <dc:title>Amy Young</dc:title>
          </cc:Agent>
        </dc:creator>
        <dc:source>juleflet.dk</dc:source>
        <dc:date>2025-12-20</dc:date>
      </cc:Work>
    </rdf:RDF>
  </metadata>
  <path d="M 99.48699943883139 7.565112746572486 C 99.48699943883139 7.565112746572486 56.417370695571144 26.411662497425816 49.99999899999998 6.5807282733637855 C 43.582627304428826 26.411662497425816 0.5129985611685868 7.565112746572486 0.5129985611685868 7.565112746572486" stroke="orange" fill="none"/>
  <path d="M 99.48699943883139 30.212251292522495 C 99.48699943883139 30.212251292522495 70.9046650070944 10.217059872595 49.99999899999998 33.628120366565 C 29.095332992905576 10.217059872595 0.5129985611685827 30.212251292522495 0.5129985611685827 30.212251292522495" stroke="orange" fill="none"/>
  <path d="M 99.48699943883139 33.89132114800633 C 81.92180665501796 50.91556968284754 18.078191344982013 50.91556968284754 0.5129985611685868 33.89132114800633" stroke="orange" fill="none"/>
  <path d="M 99.48699943883139 66.10778485199369 C 81.92180665501796 49.08353631715248 18.078191344982013 49.08353631715248 0.5129985611685868 66.10778485199369" stroke="orange" fill="none"/>
  <path d="M 99.48699943883139 69.78685470747752 C 99.48699943883139 69.78685470747752 70.9046650070944 89.78204612740501 49.99999899999998 66.37098563343501 C 29.095332992905576 89.78204612740501 0.5129985611685868 69.78685470747752 0.5129985611685868 69.78685470747752" stroke="orange" fill="none"/>
  <path d="M 99.48699943883139 92.43399325342753 C 99.48699943883139 92.43399325342753 56.417370695571144 73.5874435025742 49.99999899999998 93.41837772663622 C 43.582627304428826 73.5874435025742 0.5129985611685868 92.43399325342753 0.5129985611685868 92.43399325342753" stroke="orange" fill="none"/>
  <path d="M 7.565174711601376 99.48610558169752 C 7.565174711601376 99.48610558169752 26.41189502518973 56.41686661838586 6.580781329636945 49.999553000000006 C 26.41189502518973 43.58223938161415 7.565174711601376 0.5130004183024972 7.565174711601376 0.5130004183024972" stroke="green" fill="none"/>
  <path d="M 30.212518215909384 99.48610558169752 C 30.212518215909384 99.48610558169752 10.217145837950788 70.90402981996003 33.628418203831586 49.999553000000006 C 10.217145837950788 29.095076180039985 30.212518215909384 0.5130004183024972 30.212518215909384 0.5130004183024972" stroke="green" fill="none"/>
  <path d="M 33.89162136726037 99.48610558169752 C 50.91602397286944 81.92107176280066 50.91602397286944 18.078034237199343 33.89162136726037 0.5130004183024972" stroke="green" fill="none"/>
  <path d="M 66.10837663273962 99.48610558169752 C 49.08397402713053 81.92107176280066 49.08397402713053 18.078034237199343 66.10837663273962 0.5130004183024972" stroke="green" fill="none"/>
  <path d="M 69.7874797840906 99.48610558169752 C 69.7874797840906 99.48610558169752 89.78285216204918 70.90402981996003 66.37157979616838 49.999553000000006 C 89.78285216204918 29.095076180039985 69.7874797840906 0.5130004183024972 69.7874797840906 0.5130004183024972" stroke="green" fill="none"/>
  <path d="M 92.43482328839862 99.48610558169752 C 92.43482328839862 99.48610558169752 73.58810297481025 56.41686661838586 93.41921667036303 49.999553000000006 C 73.58810297481025 43.58223938161415 92.43482328839862 0.5130004183024972 92.43482328839862 0.5130004183024972" stroke="green" fill="none"/>
</svg>