<svg viewBox="0 0 100 100" xmlns="http://www.w3.org/2000/svg" xmlns:rdf="http://www.w3.org/1999/02/22-rdf-syntax-ns#" xmlns:cc="http://creativecommons.org/ns#" xmlns:dc="http://purl.org/dc/elements/1.1/" data-weave-parity="0">
  <title>Rosette</title>
  <metadata>
    <rdf:RDF>
      <cc:Work rdf:about="">
        <dc:title>Rosette</dc:title>
        <dc:creator>
          <cc:Agent>
            <dc:title>Amy Young</dc:title>
          </cc:Agent>
        </dc:creator>
        <dc:source>juleflet.dk</dc:source>
        <dc:date>2025-12-20</dc:date>
      </cc:Work>
    </rdf:RDF>
  </metadata>
  <path d="M 100.167738 20.254637268355932 C 100.167738 20.254637268355932 69.42074421756604 27.401086786087316 65.35745977882024 8.215890411471719 C 52.29388744648443 26.14695808566293 48.04158855351558 26.14695808566293 34.97801622117977 8.215890411471719 C 30.914731782433986 27.401086786087316 0.1677380000000009 20.254637268355932 0.1677380000000009 20.254637268355932" stroke="orange" fill="none"/>
  <path d="M 100.167738 34.514533534935666 C 68.45611515479574 37.859850576668755 52.37555470683461 28.817302974776975 50.16773800000001 44.40390579002819 C 47.9599212931654 28.817302974776975 31.879360845204268 37.859850576668755 0.1677380000000009 34.514533534935666" stroke="orange" fill="none"/>
  <path d="M 100.167738 65.82094246506436 C 68.45611515479574 62.47562542333126 52.37555470683461 71.51817302522304 50.16773800000001 55.931570209971824 C 47.9599212931654 71.51817302522304 31.879360845204275 62.47562542333126 0.16773800000000846 65.82094246506436" stroke="orange" fill="none"/>
  <path d="M 100.167738 80.08083873164409 C 100.167738 80.08083873164409 69.42074421756604 72.93438921391271 65.35745977882024 92.1195855885283 C 52.29388744648443 74.18851791433708 48.04158855351558 74.18851791433708 34.97801622117977 92.1195855885283 C 30.914731782433986 72.93438921391271 0.1677380000000009 80.08083873164409 0.1677380000000009 80.08083873164409" stroke="orange" fill="none"/>
  <path d="M 20.254637268355932 100.167738 C 20.254637268355932 100.167738 27.401086786087316 69.42074421756604 8.215890411471719 65.35745977882024 C 26.14695808566293 52.29388744648443 26.14695808566293 48.04158855351558 8.215890411471719 34.97801622117977 C 27.401086786087316 30.914731782433986 20.254637268355932 0.1677380000000009 20.254637268355932 0.1677380000000009" stroke="green" fill="none"/>
  <path d="M 34.514533534935666 100.167738 C 37.859850576668755 68.45611515479574 28.817302974776975 52.37555470683461 44.40390579002819 50.16773800000001 C 28.817302974776975 47.9599212931654 37.859850576668755 31.879360845204268 34.514533534935666 0.1677380000000009" stroke="green" fill="none"/>
  <path d="M 65.82094246506436 100.167738 C 62.47562542333126 68.45611515479574 71.51817302522304 52.37555470683461 55.931570209971824 50.16773800000001 C 71.51817302522304 47.9599212931654 62.47562542333126 31.879360845204268 65.82094246506436 0.1677380000000009" stroke="green" fill="none"/>
  <path d="M 80.08083873164409 100.167738 C 80.08083873164409 100.167738 72.93438921391271 69.42074421756604 92.1195855885283 65.35745977882024 C 74.18851791433708 52.29388744648443 74.18851791433708 48.04158855351558 92.1195855885283 34.97801622117977 C 72.93438921391271 30.914731782433986 80.08083873164409 0.1677380000000009 80.08083873164409 0.1677380000000009" stroke="green" fill="none"/>
</svg>