<?xml version="1.0" encoding="UTF-8" standalone="no"?>
<svg
   viewBox="0 0 100 100"
   data-weave-parity="0"
   version="1.1"
   id="svg12"
   sodipodi:docname="amy-pattern.svg"
   inkscape:version="1.3 (0e150ed, 2023-07-21)"
   xmlns:inkscape="http://www.inkscape.org/namespaces/inkscape"
   xmlns:sodipodi="http://sodipodi.sourceforge.net/DTD/sodipodi-0.dtd"
   xmlns="http://www.w3.org/2000/svg"
   xmlns:svg="http://www.w3.org/2000/svg"
   xmlns:rdf="http://www.w3.org/1999/02/22-rdf-syntax-ns#"
   xmlns:cc="http://creativecommons.org/ns#"
   xmlns:dc="http://purl.org/dc/elements/1.1/">
  <defs
     id="defs12" />
  <sodipodi:namedview
     id="namedview12"
     pagecolor="#ffffff"
     bordercolor="#000000"
     borderopacity="0.25"
     inkscape:showpageshadow="2"
     inkscape:pageopacity="0.0"
     inkscape:pagecheckerboard="0"
     inkscape:deskcolor="#d1d1d1"
     inkscape:zoom="2.36"
     inkscape:cx="50.211864"
     inkscape:cy="50.211864"
     inkscape:window-width="1536"
     inkscape:window-height="900"
     inkscape:window-x="0"
     inkscape:window-y="34"
     inkscape:window-maximized="0"
     inkscape:current-layer="svg12" />
  <metadata
     id="metadata1">
    <rdf:RDF>
      <cc:Work
         rdf:about="">
        <dc:title>Klokke</dc:title>
        <dc:creator><cc:Agent><dc:title>Amy Young</dc:title></cc:Agent></dc:creator>
        <dc:source>juleflet.dk</dc:source>
        <dc:date>2025-12-20</dc:date>
      </cc:Work>
    </rdf:RDF>
  </metadata>
  <path
     d="m 99.494634,5.7818306 c 0,0 0.874516,5.7713904 -19.596425,7.4840934 C 60.170503,1.3753887 64.633722,20.366107 49.800984,10.14376 34.968249,-0.07858635 0.10734,17.62135 0.10734,17.62135"
     stroke="#ffa500"
     fill="none"
     id="path1"
     style="stroke-width:1" />
  <path
     d="M 99.494634,22.398702 C 57.046258,29.956954 31.014871,6.7093781 33.720549,21.386242 24.762374,34.734306 10.799361,24.832032 0.10734,22.398702"
     stroke="#ffa500"
     fill="none"
     id="path2"
     style="stroke-width:1" />
  <path
     d="M 99.494634,36.950513 C 64.752732,36.811412 57.25454,53.510819 49.755919,40.293642 24.349064,40.131542 14.118607,29.286721 0.10734,32.588584"
     stroke="#ffa500"
     fill="none"
     id="path3"
     style="stroke-width:1" />
  <path
     d="M 99.494634,62.926422 C 64.752732,63.065521 57.25454,46.366113 49.755919,59.583292 24.349064,59.745386 14.118607,70.590211 0.10734,67.288348"
     stroke="#ffa500"
     fill="none"
     id="path4"
     style="stroke-width:1" />
  <path
     d="M 99.494634,77.47823 C 57.046258,69.91998 31.014871,93.167554 33.720549,78.49069 24.762374,65.142629 10.799361,75.044902 0.10734,77.47823"
     stroke="#ffa500"
     fill="none"
     id="path5"
     style="stroke-width:1" />
  <path
     d="m 99.494634,94.095101 c 0,0 0.874516,-5.77139 -19.596425,-7.484092 C 60.170503,98.501544 64.633722,79.510826 49.800984,89.733172 34.968249,99.955519 0.10734,82.255581 0.10734,82.255581"
     stroke="#ffa500"
     fill="none"
     id="path6"
     style="stroke-width:1" />
  <path
     d="m 5.5227015,99.495582 c 0,0 5.7872905,0.872118 7.5047115,-19.54258 C 1.1041199,60.279496 20.147155,64.730453 9.8966459,49.938467 -0.35386319,35.14648 17.394839,0.38134962 17.394839,0.38134962"
     stroke="#008000"
     fill="none"
     id="path7"
     style="stroke-width:1" />
  <path
     d="M 22.185349,99.495582 C 29.764425,57.163832 6.4528041,31.203963 21.1701,33.902211 34.554936,24.968647 24.625382,11.043993 22.185349,0.38134962"
     stroke="#008000"
     fill="none"
     id="path8"
     style="stroke-width:1" />
  <path
     d="M 36.777251,99.495582 C 36.637767,64.849138 53.383179,57.371544 40.129588,49.893523 39.967041,24.556471 29.092345,14.354123 32.403303,0.38134962"
     stroke="#008000"
     fill="none"
     id="path9"
     style="stroke-width:1" />
  <path
     d="M 62.82472,99.495582 C 62.964203,64.849138 46.218791,57.371544 59.472383,49.893523 59.634926,24.556471 70.509625,14.354123 67.198667,0.38134962"
     stroke="#008000"
     fill="none"
     id="path10"
     style="stroke-width:1" />
  <path
     d="M 77.416624,99.495582 C 69.837545,57.163832 93.149168,31.203963 78.431873,33.902211 65.047034,24.968647 74.976589,11.043993 77.416624,0.38134962"
     stroke="#008000"
     fill="none"
     id="path11"
     style="stroke-width:1" />
  <path
     d="m 94.079266,99.495582 c 0,0 -5.787291,0.872118 -7.504707,-19.54258 C 98.497847,60.279496 79.454811,64.730453 89.705328,49.938467 99.955834,35.14648 82.207129,0.38134962 82.207129,0.38134962"
     stroke="#008000"
     fill="none"
     id="path12"
     style="stroke-width:1" />
</svg>
