<?xml version="1.0" encoding="UTF-8" standalone="no"?>
<svg
   viewBox="0 0 100 100"
   data-weave-parity="0"
   version="1.1"
   id="svg8"
   sodipodi:docname="amy-weave-3.svg"
   inkscape:version="1.3 (0e150ed, 2023-07-21)"
   xmlns:inkscape="http://www.inkscape.org/namespaces/inkscape"
   xmlns:sodipodi="http://sodipodi.sourceforge.net/DTD/sodipodi-0.dtd"
   xmlns="http://www.w3.org/2000/svg"
   xmlns:svg="http://www.w3.org/2000/svg"
   xmlns:rdf="http://www.w3.org/1999/02/22-rdf-syntax-ns#"
   xmlns:cc="http://creativecommons.org/ns#"
   xmlns:dc="http://purl.org/dc/elements/1.1/">
  <defs
     id="defs8" />
  <sodipodi:namedview
     id="namedview8"
     pagecolor="#ffffff"
     bordercolor="#000000"
     borderopacity="0.25"
     inkscape:showpageshadow="2"
     inkscape:pageopacity="0.0"
     inkscape:pagecheckerboard="0"
     inkscape:deskcolor="#d1d1d1"
     inkscape:zoom="2.36"
     inkscape:cx="49.788136"
     inkscape:cy="50"
     inkscape:window-width="1312"
     inkscape:window-height="411"
     inkscape:window-x="0"
     inkscape:window-y="34"
     inkscape:window-maximized="0"
     inkscape:current-layer="svg8" />
  <title
     id="title1">Weave 3</title>
  <metadata
     id="metadata1">
    <rdf:RDF>
      <cc:Work
         rdf:about="">
        <dc:title>Weave 3</dc:title>
        <dc:creator><cc:Agent><dc:title>Amy Young</dc:title></cc:Agent></dc:creator>
        <dc:source>juleflet.dk</dc:source>
        <dc:date>2025-12-20</dc:date>
      </cc:Work>
    </rdf:RDF>
  </metadata>
  <g
     id="g8"
     transform="matrix(1.6610754,0,0,1.6623284,-33.05377,-33.07883)"
     style="stroke-width:0.601793">
    <path
       d="m 80,32.178144 c 0,0 -16.321255,4.015406 -18.767432,-7.525753 -7.864527,10.786718 -14.600609,10.786718 -22.465136,0 C 36.321255,36.19355 20,32.178144 20,32.178144"
       stroke="#ffa500"
       fill="none"
       id="path1"
       style="stroke-width:0.601793" />
    <path
       d="m 80,40 c -9.088924,3.236689 -30.781389,-4.18367 -32.110538,5.192698 0,0 4.221076,0 4.221076,0 C 50.781389,35.81633 29.088924,43.236689 20,40"
       stroke="#ffa500"
       fill="none"
       id="path2"
       style="stroke-width:0.601793" />
    <path
       d="m 80,60 c -9.088924,-3.236689 -30.781389,4.18367 -32.110538,-5.192698 0,0 4.221076,0 4.221076,0 C 50.781389,64.18367 29.088924,56.763311 20,60"
       stroke="#ffa500"
       fill="none"
       id="path3"
       style="stroke-width:0.601793" />
    <path
       d="m 80,67.821856 c 0,0 -16.321255,-4.015406 -18.767432,7.525753 -7.864527,-10.786718 -14.600609,-10.786718 -22.465136,0 C 36.321255,63.80645 20,67.821856 20,67.821856"
       stroke="#ffa500"
       fill="none"
       id="path4"
       style="stroke-width:0.601793" />
    <path
       d="m 32.178144,80 c 0,0 4.015406,-16.321255 -7.525753,-18.767432 10.786718,-7.864527 10.786718,-14.600609 0,-22.465136 C 36.19355,36.321255 32.178144,20 32.178144,20"
       stroke="#008000"
       fill="none"
       id="path5"
       style="stroke-width:0.601793" />
    <path
       d="m 40,80 c 3.236689,-9.088924 -4.18367,-30.781389 5.192698,-32.110538 0,0 0,4.221076 0,4.221076 C 35.81633,50.781389 43.236689,29.088924 40,20"
       stroke="#008000"
       fill="none"
       id="path6"
       style="stroke-width:0.601793" />
    <path
       d="m 60,80 c -3.236689,-9.088924 4.18367,-30.781389 -5.192698,-32.110538 0,0 0,4.221076 0,4.221076 C 64.18367,50.781389 56.763311,29.088924 60,20"
       stroke="#008000"
       fill="none"
       id="path7"
       style="stroke-width:0.601793" />
    <path
       d="m 67.821856,80 c 0,0 -4.015406,-16.321255 7.525753,-18.767432 -10.786718,-7.864527 -10.786718,-14.600609 0,-22.465136 C 63.80645,36.321255 67.821856,20 67.821856,20"
       stroke="#008000"
       fill="none"
       id="path8"
       style="stroke-width:0.601793" />
  </g>
</svg>
