<?xml version="1.0" encoding="UTF-8" standalone="no"?>
<!-- Created with Inkscape (http://www.inkscape.org/) -->

<svg
   width="100mm"
   height="100mm"
   viewBox="0 0 100 100"
   version="1.1"
   id="svg1"
   inkscape:version="1.3 (0e150ed, 2023-07-21)"
   sodipodi:docname="5star.svg"
   xmlns:inkscape="http://www.inkscape.org/namespaces/inkscape"
   xmlns:sodipodi="http://sodipodi.sourceforge.net/DTD/sodipodi-0.dtd"
   xmlns:xlink="http://www.w3.org/1999/xlink"
   xmlns="http://www.w3.org/2000/svg"
   xmlns:svg="http://www.w3.org/2000/svg"
   xmlns:rdf="http://www.w3.org/1999/02/22-rdf-syntax-ns#"
   xmlns:cc="http://creativecommons.org/ns#"
   xmlns:dc="http://purl.org/dc/elements/1.1/">
  <metadata>
    <rdf:RDF>
      <cc:Work rdf:about="">
        <dc:title>Engel</dc:title>
        <dc:creator>
          <cc:Agent>
            <dc:title>Thomas Ahle</dc:title>
          </cc:Agent>
        </dc:creator>
        <dc:description>Klassisk engle motiv</dc:description>
        <dc:source>juleflet.dk</dc:source>
      </cc:Work>
    </rdf:RDF>
  </metadata>
  <sodipodi:namedview
     id="namedview1"
     pagecolor="#ffffff"
     bordercolor="#000000"
     borderopacity="0.25"
     inkscape:showpageshadow="2"
     inkscape:pageopacity="0.0"
     inkscape:pagecheckerboard="0"
     inkscape:deskcolor="#d1d1d1"
     inkscape:document-units="mm"
     inkscape:zoom="0.9849692"
     inkscape:cx="141.62879"
     inkscape:cy="149.24325"
     inkscape:window-width="1520"
     inkscape:window-height="937"
     inkscape:window-x="0"
     inkscape:window-y="34"
     inkscape:window-maximized="0"
     inkscape:current-layer="layer1" /><defs
     id="defs1" /><g
     inkscape:label="Layer 1"
     inkscape:groupmode="layer"
     id="layer1"><path
       style="fill:none;stroke:#a04140"
       d="m -0.66754547,11.232021 c 2.07804127,0 1.34776666,-0.07477 3.34162187,0.01255 3.4549149,0.151303 6.9669393,1.21989 10.1981816,2.846103 1.494428,0.752111 2.887271,2.134966 4.461704,2.6125 2.18092,0.661487 5.549636,-2.216322 7.967329,-2.267003 4.116674,-0.08629 7.686178,2.17385 11.472955,4.038751 1.198911,0.590431 3.007725,0.711351 4.004808,1.59371 2.389071,2.114172 -1.102338,5.653207 -1.072697,7.416745 1.487884,-0.663811 4.073342,-1.143728 5.253833,-3.505625 0.798211,-1.597055 0.932193,-3.743176 1.379276,-5.417784 0.643679,-2.411002 0.970658,-5.826372 3.820136,-6.522638 3.164845,-0.773323 6.281333,0.653638 9.241859,1.962567 5.72963,2.533236 12.698061,4.188771 18.802897,5.63886 4.588588,1.089933 16.415202,0.308915 21.428172,-2.300817"
       id="path2"
       sodipodi:nodetypes="csssssscsssssc" /><path
       style="fill:none;stroke:#a04140"
       d="M -0.48277438,89.47628 C 1.8096515,90.02206 3.2300778,89.76999 5.8610082,89.337419 11.981895,88.331048 18.483526,85.93566 23.389132,81.841983 c 3.072266,-2.563775 5.984601,-5.387455 8.147091,-8.78349 1.304873,-2.049204 2.074666,-5.29169 4.004565,-6.702389 1.346792,-0.984479 4.842876,-2.874036 6.64632,-2.689227 1.002617,0.102743 1.548232,1.002219 2.077653,1.744458 1.359279,1.905662 2.696929,3.910537 4.177197,5.734999 3.452337,4.255091 7.1609,8.389451 11.278196,12.019356 2.43021,2.142533 5.24025,4.28989 7.648636,6.146155 l 9.879488,-8.15102 2.974962,-2.914348 6.904527,2.601554 c 4.388945,1.823054 8.963738,1.787629 13.486803,2.2695"
       id="path1"
       sodipodi:nodetypes="ccsscscssccccc" /><path
       style="fill:none;stroke:#a04140"
       d="m 10.91725,-0.35277702 c 0,2.07804402 -0.07477,1.347769 0.01255,3.34162402 0.151303,3.454915 1.21989,6.96694 2.846103,10.198182 0.752111,1.494428 2.134966,2.887271 2.6125,4.461704 0.661487,2.18092 -2.216322,5.549636 -2.267003,7.967329 -0.08629,4.116674 2.17385,7.686178 4.038751,11.472955 0.590431,1.198911 0.711351,3.007725 1.59371,4.004808 2.114172,2.389071 5.653207,-1.102338 7.416745,-1.072697 -0.663811,1.487884 -1.143728,4.073342 -3.505625,5.253833 -1.597055,0.798211 -3.743176,0.932193 -5.417784,1.379276 -2.411002,0.643679 -5.826372,0.970658 -6.522638,3.820136 -0.773323,3.164845 0.653638,6.281333 1.962567,9.241859 2.533236,5.72963 4.188771,12.698061 5.63886,18.802897 1.089933,4.588588 0.308915,16.415202 -2.300817,21.428172"
       id="path3"
       sodipodi:nodetypes="csssssscsssssc" /><path
       style="fill:none;stroke:#a04140"
       d="m 89.161509,-0.16800702 c 0.54578,2.29243002 0.29371,3.71285602 -0.138861,6.34378602 -1.006371,6.120887 -3.401759,12.622518 -7.495436,17.528124 -2.563775,3.072266 -5.387455,5.984601 -8.78349,8.147091 -2.049204,1.304873 -5.29169,2.074666 -6.702389,4.004565 -0.984479,1.346792 -2.874036,4.842876 -2.689227,6.64632 0.102743,1.002617 1.002219,1.548232 1.744458,2.077653 1.905662,1.359279 3.910537,2.696929 5.734999,4.177197 4.255091,3.452337 8.389451,7.1609 12.019356,11.278196 2.142533,2.43021 4.28989,5.24025 6.146155,7.648636 l -8.15102,9.879488 -2.914348,2.974962 2.601554,6.904527 c 1.823054,4.388945 1.787629,8.963738 2.2695,13.486802"
       id="path4"
       sodipodi:nodetypes="ccsscscssccccc" /></g></svg>
