<?xml version="1.0" encoding="UTF-8" standalone="no"?>
<!-- Created with Inkscape (http://www.inkscape.org/) -->

<svg
   width="100mm"
   height="100mm"
   viewBox="0 0 100 100"
   version="1.1"
   id="svg1"
   inkscape:version="1.3 (0e150ed, 2023-07-21)"
   sodipodi:docname="balls.svg"
   xmlns:inkscape="http://www.inkscape.org/namespaces/inkscape"
   xmlns:sodipodi="http://sodipodi.sourceforge.net/DTD/sodipodi-0.dtd"
   xmlns="http://www.w3.org/2000/svg"
   xmlns:svg="http://www.w3.org/2000/svg" data-weave-parity="0" xmlns:rdf="http://www.w3.org/1999/02/22-rdf-syntax-ns#" xmlns:cc="http://creativecommons.org/ns#" xmlns:dc="http://purl.org/dc/elements/1.1/">
  <title>Polka</title>
  <desc>Polka prikker</desc>
  <metadata>
    <rdf:RDF>
      <cc:Work rdf:about="">
        <dc:title>Polka</dc:title>
        <dc:creator>
          <cc:Agent>
            <dc:title>Thomas Ahle</dc:title>
          </cc:Agent>
        </dc:creator>
        <dc:description>Polka prikker</dc:description>
        <dc:source>juleflet.dk</dc:source>
      </cc:Work>
    </rdf:RDF>
  </metadata>
  <sodipodi:namedview
     id="namedview1"
     pagecolor="#ffffff"
     bordercolor="#000000"
     borderopacity="0.25"
     inkscape:showpageshadow="2"
     inkscape:pageopacity="0.0"
     inkscape:pagecheckerboard="0"
     inkscape:deskcolor="#d1d1d1"
     inkscape:document-units="mm"
     inkscape:zoom="1.9666582"
     inkscape:cx="266.44182"
     inkscape:cy="227.28911"
     inkscape:window-width="1480"
     inkscape:window-height="841"
     inkscape:window-x="0"
     inkscape:window-y="34"
     inkscape:window-maximized="0"
     inkscape:current-layer="layer1" />
  <defs
     id="defs1" />
  <g
     inkscape:label="Layer 1"
     inkscape:groupmode="layer"
     id="layer1">
    <path
       id="path22"
       style="fill:none;stroke:#2ec27e;stroke-width:0.3"
       d="M 6.5294792,6.5282029 3.4741344,3.472861 m 0.0011,1.6e-4 A 4.8898314,4.8898314 0 0 0 4.907434,0.01539971 v 0 A 4.8898314,4.8898314 0 0 0 4.9074098,0 m 1.6397035,93.50283 -3.0553449,3.055344 m 1.4332756,3.44182 A 4.8898314,4.8898314 0 0 0 3.4928684,96.557755 M 6.5478443,73.195501 a 14.360708,14.360708 0 0 0 -4.206155,10.154553 v 0 a 14.360708,14.360708 0 0 0 4.206155,10.154554 M 6.5471133,73.1955 3.4917684,70.140156 m 3.0553449,-9.970024 -3.0553449,3.055344 m 0.0011,6.914847 A 4.8898314,4.8898314 0 0 0 4.9250682,66.68269 v 0 A 4.8898314,4.8898314 0 0 0 3.4928684,63.225057 M 6.5478163,39.862801 a 14.360708,14.360708 0 0 0 -4.206155,10.154554 v 0 a 14.360708,14.360708 0 0 0 4.206183,10.154554 M 6.5471133,39.862801 3.4917684,36.807457 m 3.0553449,-9.970023 -3.0553449,3.055344 m 0.0011,6.914846 a 4.8898314,4.8898314 0 0 0 1.4321998,-3.457632 v 0 A 4.8898314,4.8898314 0 0 0 3.4928684,29.892359 M 6.5478443,6.5301025 A 14.360708,14.360708 0 0 0 2.3416893,16.684657 v 0 a 14.360708,14.360708 0 0 0 4.206155,10.154554" />
    <path
       id="path35"
       style="fill:none;stroke:#2ec27e;stroke-width:0.3"
       d="M 26.903628,6.5282029 29.958973,3.472861 m -0.0011,1.6e-4 a 4.8898314,4.8898314 0 0 1 -1.4322,-3.45762129 v 0 A 4.8898314,4.8898314 0 0 1 28.525698,0 m -1.639704,93.50283 3.055345,3.055344 m -1.433276,3.44182 a 4.8898314,4.8898314 0 0 1 1.432176,-3.442239 M 26.885263,73.195501 a 14.360708,14.360708 0 0 1 4.206155,10.154553 v 0 a 14.360708,14.360708 0 0 1 -4.206155,10.154554 m 7.31e-4,-20.309108 3.055345,-3.055344 m -3.055345,-9.970024 3.055345,3.055344 m -0.0011,6.914847 a 4.8898314,4.8898314 0 0 1 -1.4322,-3.457633 v 0 a 4.8898314,4.8898314 0 0 1 1.4322,-3.457633 M 26.885291,39.862801 a 14.360708,14.360708 0 0 1 4.206155,10.154554 v 0 a 14.360708,14.360708 0 0 1 -4.206183,10.154554 m 7.31e-4,-20.309108 3.055345,-3.055344 m -3.055345,-9.970023 3.055345,3.055344 m -0.0011,6.914846 a 4.8898314,4.8898314 0 0 1 -1.4322,-3.457632 v 0 a 4.8898314,4.8898314 0 0 1 1.4322,-3.457633 M 26.885263,6.5301025 a 14.360708,14.360708 0 0 1 4.206155,10.1545545 v 0 a 14.360708,14.360708 0 0 1 -4.206155,10.154554" />
    <path
       id="path36"
       style="fill:none;stroke:#2ec27e;stroke-width:0.3"
       d="M 39.825063,6.5282029 36.769718,3.472861 m 0.0011,1.6e-4 a 4.8898314,4.8898314 0 0 0 1.4322,-3.45762129 v 0 A 4.8898314,4.8898314 0 0 0 38.202994,0 m 1.639703,93.50283 -3.055345,3.055344 m 1.433276,3.44182 a 4.8898314,4.8898314 0 0 0 -1.432176,-3.442239 m 3.054976,-23.362254 a 14.360708,14.360708 0 0 0 -4.206155,10.154553 v 0 a 14.360708,14.360708 0 0 0 4.206155,10.154554 M 39.842697,73.1955 36.787352,70.140156 m 3.055345,-9.970024 -3.055345,3.055344 m 0.0011,6.914847 a 4.8898314,4.8898314 0 0 0 1.4322,-3.457633 v 0 a 4.8898314,4.8898314 0 0 0 -1.4322,-3.457633 M 39.8434,39.862801 a 14.360708,14.360708 0 0 0 -4.206155,10.154554 v 0 a 14.360708,14.360708 0 0 0 4.206183,10.154554 m -7.31e-4,-20.309108 -3.055345,-3.055344 m 3.055345,-9.970023 -3.055345,3.055344 m 0.0011,6.914846 a 4.8898314,4.8898314 0 0 0 1.4322,-3.457632 v 0 a 4.8898314,4.8898314 0 0 0 -1.4322,-3.457633 M 39.843428,6.5301025 A 14.360708,14.360708 0 0 0 35.637273,16.684657 v 0 a 14.360708,14.360708 0 0 0 4.206155,10.154554" />
    <path
       id="path37"
       style="fill:none;stroke:#2ec27e;stroke-width:0.3"
       d="M 60.199212,6.5282029 63.254557,3.472861 m -0.0011,1.6e-4 a 4.8898314,4.8898314 0 0 1 -1.4322,-3.45762129 v 0 A 4.8898314,4.8898314 0 0 1 61.821282,0 m -1.639704,93.50283 3.055345,3.055344 m -1.433276,3.44182 a 4.8898314,4.8898314 0 0 1 1.432176,-3.442239 M 60.180847,73.195501 a 14.360708,14.360708 0 0 1 4.206155,10.154553 v 0 a 14.360708,14.360708 0 0 1 -4.206155,10.154554 m 7.31e-4,-20.309108 3.055345,-3.055344 m -3.055345,-9.970024 3.055345,3.055344 m -0.0011,6.914847 a 4.8898314,4.8898314 0 0 1 -1.4322,-3.457633 v 0 a 4.8898314,4.8898314 0 0 1 1.4322,-3.457633 M 60.180875,39.862801 a 14.360708,14.360708 0 0 1 4.206155,10.154554 v 0 a 14.360708,14.360708 0 0 1 -4.206183,10.154554 m 7.31e-4,-20.309108 3.055345,-3.055344 m -3.055345,-9.970023 3.055345,3.055344 m -0.0011,6.914846 a 4.8898314,4.8898314 0 0 1 -1.4322,-3.457632 v 0 a 4.8898314,4.8898314 0 0 1 1.4322,-3.457633 M 60.180847,6.5301025 a 14.360708,14.360708 0 0 1 4.206155,10.1545545 v 0 a 14.360708,14.360708 0 0 1 -4.206155,10.154554" />
    <path
       id="path38"
       style="fill:none;stroke:#2ec27e;stroke-width:0.3"
       d="M 73.120647,6.5282029 70.065302,3.472861 m 0.0011,1.6e-4 a 4.8898314,4.8898314 0 0 0 1.4322,-3.45762129 v 0 A 4.8898314,4.8898314 0 0 0 71.498578,0 m 1.639703,93.50283 -3.055345,3.055344 m 1.433276,3.44182 a 4.8898314,4.8898314 0 0 0 -1.432176,-3.442239 m 3.054976,-23.362254 a 14.360708,14.360708 0 0 0 -4.206155,10.154553 v 0 a 14.360708,14.360708 0 0 0 4.206155,10.154554 M 73.138281,73.1955 70.082936,70.140156 m 3.055345,-9.970024 -3.055345,3.055344 m 0.0011,6.914847 a 4.8898314,4.8898314 0 0 0 1.4322,-3.457633 v 0 a 4.8898314,4.8898314 0 0 0 -1.4322,-3.457633 m 3.054948,-23.362256 a 14.360708,14.360708 0 0 0 -4.206155,10.154554 v 0 a 14.360708,14.360708 0 0 0 4.206183,10.154554 m -7.31e-4,-20.309108 -3.055345,-3.055344 m 3.055345,-9.970023 -3.055345,3.055344 m 0.0011,6.914846 a 4.8898314,4.8898314 0 0 0 1.4322,-3.457632 v 0 a 4.8898314,4.8898314 0 0 0 -1.4322,-3.457633 M 73.139012,6.5301025 A 14.360708,14.360708 0 0 0 68.932857,16.684657 v 0 a 14.360708,14.360708 0 0 0 4.206155,10.154554" />
    <path
       id="path39"
       style="fill:none;stroke:#2ec27e;stroke-width:0.3"
       d="M 93.494796,6.5282029 96.550141,3.472861 m -0.0011,1.6e-4 a 4.8898314,4.8898314 0 0 1 -1.4322,-3.45762129 v 0 A 4.8898314,4.8898314 0 0 1 95.116866,0 m -1.639704,93.50283 3.055345,3.055344 m -1.433276,3.44182 a 4.8898314,4.8898314 0 0 1 1.432176,-3.442239 M 93.476431,73.195501 a 14.360708,14.360708 0 0 1 4.206155,10.154553 v 0 a 14.360708,14.360708 0 0 1 -4.206155,10.154554 m 7.31e-4,-20.309108 3.055345,-3.055344 m -3.055345,-9.970024 3.055345,3.055344 m -0.0011,6.914847 a 4.8898314,4.8898314 0 0 1 -1.4322,-3.457633 v 0 a 4.8898314,4.8898314 0 0 1 1.4322,-3.457633 M 93.476459,39.862801 a 14.360708,14.360708 0 0 1 4.206155,10.154554 v 0 a 14.360708,14.360708 0 0 1 -4.206183,10.154554 m 7.31e-4,-20.309108 3.055345,-3.055344 m -3.055345,-9.970023 3.055345,3.055344 m -0.0011,6.914846 a 4.8898314,4.8898314 0 0 1 -1.4322,-3.457632 v 0 a 4.8898314,4.8898314 0 0 1 1.4322,-3.457633 M 93.476431,6.5301025 a 14.360708,14.360708 0 0 1 4.206155,10.1545545 v 0 a 14.360708,14.360708 0 0 1 -4.206155,10.154554" />
    <path
       id="path46"
       style="fill:none;stroke:#ff7800;stroke-width:0.3"
       d="M 6.5403439,93.482656 3.485002,96.538001 m 1.6e-4,-0.0011 a 4.8898314,4.8898314 0 0 0 -3.45762129,-1.4322 v 0 a 4.8898314,4.8898314 0 0 0 -0.01539971,2.4e-5 m 93.50283,-1.639703 3.055344,3.055345 m 3.441825,-1.433276 a 4.8898314,4.8898314 0 0 0 -3.442244,1.432176 M 73.207642,93.464291 a 14.360708,14.360708 0 0 0 10.154553,4.206155 v 0 a 14.360708,14.360708 0 0 0 10.154554,-4.206155 m -20.309108,7.31e-4 -3.055344,3.055345 m -9.970024,-3.055345 3.055344,3.055345 m 6.914847,-0.0011 a 4.8898314,4.8898314 0 0 0 -3.457633,-1.4322 v 0 a 4.8898314,4.8898314 0 0 0 -3.457633,1.4322 M 39.874942,93.464319 a 14.360708,14.360708 0 0 0 10.154554,4.206155 v 0 A 14.360708,14.360708 0 0 0 60.18405,93.464291 m -20.309108,7.31e-4 -3.055344,3.055345 m -9.970023,-3.055345 3.055344,3.055345 m 6.914846,-0.0011 a 4.8898314,4.8898314 0 0 0 -3.457632,-1.4322 v 0 a 4.8898314,4.8898314 0 0 0 -3.457633,1.4322 M 6.5422435,93.464291 a 14.360708,14.360708 0 0 0 10.1545545,4.206155 v 0 a 14.360708,14.360708 0 0 0 10.154554,-4.206155" />
    <path
       id="path47"
       style="fill:none;stroke:#ff7800;stroke-width:0.3"
       d="M 6.5403439,73.108507 3.485002,70.053162 m 1.6e-4,0.0011 a 4.8898314,4.8898314 0 0 1 -3.45762129,1.4322 v 0 A 4.8898314,4.8898314 0 0 1 0.012141,71.486437 m 93.50283,1.639704 3.055344,-3.055345 m 3.441825,1.433276 a 4.8898314,4.8898314 0 0 1 -3.442244,-1.432176 m -23.362254,3.054976 a 14.360708,14.360708 0 0 1 10.154553,-4.206155 v 0 a 14.360708,14.360708 0 0 1 10.154554,4.206155 m -20.309108,-7.31e-4 -3.055344,-3.055345 m -9.970024,3.055345 3.055344,-3.055345 m 6.914847,0.0011 a 4.8898314,4.8898314 0 0 1 -3.457633,1.4322 v 0 a 4.8898314,4.8898314 0 0 1 -3.457633,-1.4322 m -23.362256,3.054948 a 14.360708,14.360708 0 0 1 10.154554,-4.206155 v 0 a 14.360708,14.360708 0 0 1 10.154554,4.206183 m -20.309108,-7.31e-4 -3.055344,-3.055345 m -9.970023,3.055345 3.055344,-3.055345 m 6.914846,0.0011 a 4.8898314,4.8898314 0 0 1 -3.457632,1.4322 v 0 A 4.8898314,4.8898314 0 0 1 29.9045,70.071896 M 6.5422435,73.126872 A 14.360708,14.360708 0 0 1 16.696798,68.920717 v 0 a 14.360708,14.360708 0 0 1 10.154554,4.206155" />
    <path
       id="path48"
       style="fill:none;stroke:#ff7800;stroke-width:0.3"
       d="M 6.5403439,60.187072 3.485002,63.242417 m 1.6e-4,-0.0011 a 4.8898314,4.8898314 0 0 0 -3.45762129,-1.4322 v 0 a 4.8898314,4.8898314 0 0 0 -0.01539971,2.4e-5 m 93.50283,-1.639703 3.055344,3.055345 m 3.441825,-1.433276 a 4.8898314,4.8898314 0 0 0 -3.442244,1.432176 M 73.207642,60.168707 a 14.360708,14.360708 0 0 0 10.154553,4.206155 v 0 a 14.360708,14.360708 0 0 0 10.154554,-4.206155 m -20.309108,7.31e-4 -3.055344,3.055345 m -9.970024,-3.055345 3.055344,3.055345 m 6.914847,-0.0011 a 4.8898314,4.8898314 0 0 0 -3.457633,-1.4322 v 0 a 4.8898314,4.8898314 0 0 0 -3.457633,1.4322 M 39.874942,60.168735 a 14.360708,14.360708 0 0 0 10.154554,4.206155 v 0 A 14.360708,14.360708 0 0 0 60.18405,60.168707 m -20.309108,7.31e-4 -3.055344,3.055345 m -9.970023,-3.055345 3.055344,3.055345 m 6.914846,-0.0011 a 4.8898314,4.8898314 0 0 0 -3.457632,-1.4322 v 0 a 4.8898314,4.8898314 0 0 0 -3.457633,1.4322 M 6.5422435,60.168707 a 14.360708,14.360708 0 0 0 10.1545545,4.206155 v 0 a 14.360708,14.360708 0 0 0 10.154554,-4.206155" />
    <path
       id="path49"
       style="fill:none;stroke:#ff7800;stroke-width:0.3"
       d="M 6.5403439,39.812923 3.485002,36.757578 m 1.6e-4,0.0011 a 4.8898314,4.8898314 0 0 1 -3.45762129,1.4322 v 0 A 4.8898314,4.8898314 0 0 1 0.012141,38.190853 m 93.50283,1.639704 3.055344,-3.055345 m 3.441825,1.433276 a 4.8898314,4.8898314 0 0 1 -3.442244,-1.432176 m -23.362254,3.054976 a 14.360708,14.360708 0 0 1 10.154553,-4.206155 v 0 a 14.360708,14.360708 0 0 1 10.154554,4.206155 m -20.309108,-7.31e-4 -3.055344,-3.055345 m -9.970024,3.055345 3.055344,-3.055345 m 6.914847,0.0011 a 4.8898314,4.8898314 0 0 1 -3.457633,1.4322 v 0 a 4.8898314,4.8898314 0 0 1 -3.457633,-1.4322 M 39.874942,39.83126 a 14.360708,14.360708 0 0 1 10.154554,-4.206155 v 0 a 14.360708,14.360708 0 0 1 10.154554,4.206183 m -20.309108,-7.31e-4 -3.055344,-3.055345 m -9.970023,3.055345 3.055344,-3.055345 m 6.914846,0.0011 a 4.8898314,4.8898314 0 0 1 -3.457632,1.4322 v 0 A 4.8898314,4.8898314 0 0 1 29.9045,36.776312 M 6.5422435,39.831288 A 14.360708,14.360708 0 0 1 16.696798,35.625133 v 0 a 14.360708,14.360708 0 0 1 10.154554,4.206155" />
    <path
       id="path50"
       style="fill:none;stroke:#ff7800;stroke-width:0.3"
       d="M 6.5403439,26.891488 3.485002,29.946833 m 1.6e-4,-0.0011 a 4.8898314,4.8898314 0 0 0 -3.45762129,-1.4322 v 0 a 4.8898314,4.8898314 0 0 0 -0.01539971,2.4e-5 m 93.50283,-1.639703 3.055344,3.055345 m 3.441825,-1.433276 a 4.8898314,4.8898314 0 0 0 -3.442244,1.432176 M 73.207642,26.873123 a 14.360708,14.360708 0 0 0 10.154553,4.206155 v 0 a 14.360708,14.360708 0 0 0 10.154554,-4.206155 m -20.309108,7.31e-4 -3.055344,3.055345 m -9.970024,-3.055345 3.055344,3.055345 m 6.914847,-0.0011 a 4.8898314,4.8898314 0 0 0 -3.457633,-1.4322 v 0 a 4.8898314,4.8898314 0 0 0 -3.457633,1.4322 M 39.874942,26.873151 a 14.360708,14.360708 0 0 0 10.154554,4.206155 v 0 A 14.360708,14.360708 0 0 0 60.18405,26.873123 m -20.309108,7.31e-4 -3.055344,3.055345 m -9.970023,-3.055345 3.055344,3.055345 m 6.914846,-0.0011 a 4.8898314,4.8898314 0 0 0 -3.457632,-1.4322 v 0 a 4.8898314,4.8898314 0 0 0 -3.457633,1.4322 M 6.5422435,26.873123 a 14.360708,14.360708 0 0 0 10.1545545,4.206155 v 0 a 14.360708,14.360708 0 0 0 10.154554,-4.206155" />
    <path
       id="path51"
       style="fill:none;stroke:#ff7800;stroke-width:0.3"
       d="M 6.5403439,6.517339 3.485002,3.461994 m 1.6e-4,0.0011 a 4.8898314,4.8898314 0 0 1 -3.45762129,1.4322 v 0 A 4.8898314,4.8898314 0 0 1 0.012141,4.895269 m 93.50283,1.639704 3.055344,-3.055345 m 3.441825,1.433276 A 4.8898314,4.8898314 0 0 1 96.569896,3.480728 M 73.207642,6.535704 A 14.360708,14.360708 0 0 1 83.362195,2.329549 v 0 A 14.360708,14.360708 0 0 1 93.516749,6.535704 M 73.207641,6.534973 70.152297,3.479628 m -9.970024,3.055345 3.055344,-3.055345 m 6.914847,0.0011 a 4.8898314,4.8898314 0 0 1 -3.457633,1.4322 v 0 a 4.8898314,4.8898314 0 0 1 -3.457633,-1.4322 M 39.874942,6.535676 A 14.360708,14.360708 0 0 1 50.029496,2.329521 v 0 A 14.360708,14.360708 0 0 1 60.18405,6.535704 M 39.874942,6.534973 36.819598,3.479628 m -9.970023,3.055345 3.055344,-3.055345 m 6.914846,0.0011 a 4.8898314,4.8898314 0 0 1 -3.457632,1.4322 v 0 A 4.8898314,4.8898314 0 0 1 29.9045,3.480728 M 6.5422435,6.535704 A 14.360708,14.360708 0 0 1 16.696798,2.329549 v 0 a 14.360708,14.360708 0 0 1 10.154554,4.206155" />
  </g>
</svg>
