<?xml version="1.0" encoding="UTF-8" standalone="no"?>
<!-- Created with Inkscape (http://www.inkscape.org/) -->

<svg
   width="100mm"
   height="100mm"
   viewBox="0 0 100 100"
   version="1.1"
   id="svg1"
   inkscape:export-filename="bitmap.png"
   inkscape:export-xdpi="96"
   inkscape:export-ydpi="96"
   inkscape:version="1.3 (0e150ed, 2023-07-21)"
   sodipodi:docname="circle.svg"
   xmlns:inkscape="http://www.inkscape.org/namespaces/inkscape"
   xmlns:sodipodi="http://sodipodi.sourceforge.net/DTD/sodipodi-0.dtd"
   xmlns="http://www.w3.org/2000/svg"
   xmlns:svg="http://www.w3.org/2000/svg">
  <sodipodi:namedview
     id="namedview1"
     pagecolor="#ffffff"
     bordercolor="#000000"
     borderopacity="0.25"
     inkscape:showpageshadow="2"
     inkscape:pageopacity="0.0"
     inkscape:pagecheckerboard="0"
     inkscape:deskcolor="#d1d1d1"
     inkscape:document-units="mm"
     inkscape:zoom="1.3157124"
     inkscape:cx="118.18692"
     inkscape:cy="166.82977"
     inkscape:window-width="1312"
     inkscape:window-height="778"
     inkscape:window-x="0"
     inkscape:window-y="34"
     inkscape:window-maximized="0"
     inkscape:current-layer="layer1" />
  <defs
     id="defs1" />
  <g
     inkscape:label="Layer 1"
     inkscape:groupmode="layer"
     id="layer1">
    <path
       id="path15"
       style="fill:none;stroke:#2ec27e;stroke-width:0.1;stroke-dasharray:none"
       d="m 100.11858,39.814764 c -6.370602,1.338248 -11.794089,0.370817 -16.970745,-1.289801 l -7.385792,2.657298 c 0.441034,1.712132 0.647816,3.408469 0.79267,5.124864 l -8.421794,1.309681 C 67.417983,40.769156 61.15686,32.802097 52.692208,32.202047 l 1.297627,-8.73763 M 0.05005432,39.678961 C 6.508835,41.060832 12.08617,40.001208 17.309999,38.325458 l 7.283963,2.608968 c -0.729237,1.711276 -1.068984,3.43067 -1.3204,5.276498 l 9.036484,1.247107 C 33.024983,39.998726 39.319319,33.124325 47.78397,32.00672 l -1.330998,-8.442628 c 2.729721,-0.225839 5.016596,-0.277881 7.524889,-0.110165" />
    <path
       id="path16"
       style="fill:none;stroke:#2ec27e;stroke-width:0.1;stroke-dasharray:none"
       d="M 99.945426,32.671115 C 90.440284,34.024772 82.060143,31.440166 74.848501,25.467248 l -5.530844,5.465606 C 66.367348,27.848148 63.079036,25.329255 59.116105,24.145352 l 2.415819,-7.169511 M 0.55206035,32.573597 C 10.057202,33.927254 18.836077,32.044828 25.610996,25.269905 l 5.46577,5.526773 c 2.950309,-3.084706 6.289718,-5.252236 10.252649,-6.436139 l -2.64092,-7.330907 c 6.07147,-0.36116 12.751443,-2.055297 22.842951,-0.05713" />
    <path
       id="path20"
       style="fill:none;stroke:#e66100;stroke-width:0.1;stroke-dasharray:none"
       d="M 39.958104,-0.00764545 C 41.296352,6.3629566 40.328921,11.786445 38.668303,16.963101 l 2.657298,7.385792 c 1.712132,-0.441034 3.408469,-0.647816 5.124864,-0.79267 l 1.309681,8.421794 c -6.84765,0.714936 -14.814709,6.976059 -15.414759,15.440711 l -8.73763,-1.297627 m 16.214544,53.939769 c 1.381871,-6.458769 0.322247,-12.036104 -1.353503,-17.259933 l 2.608968,-7.283963 c 1.711276,0.729237 3.43067,1.068984 5.276498,1.3204 L 47.601371,67.80089 C 40.142066,67.085953 33.267665,60.791617 32.15006,52.326966 l -8.442628,1.330998 c -0.225839,-2.729721 -0.277881,-5.016596 -0.110165,-7.524889" />
    <path
       id="path21"
       style="fill:none;stroke:#e66100;stroke-width:0.1;stroke-dasharray:none"
       d="M 32.814455,0.16550855 C 34.168112,9.6706503 31.583506,18.050793 25.610588,25.262435 l 5.465606,5.530844 C 27.991488,33.743588 25.472595,37.0319 24.288692,40.994831 L 17.119181,38.579012 M 32.716937,99.558875 C 34.070594,90.053734 32.188168,81.274859 25.413245,74.49994 l 5.526773,-5.46577 C 27.855312,66.083861 25.687782,62.744452 24.503879,58.781521 l -7.330907,2.64092 c -0.36116,-6.07147 -2.055297,-12.751443 -0.05713,-22.842951" />
    <path
       id="path22"
       style="fill:none;stroke:#e66100;stroke-width:0.1;stroke-dasharray:none"
       d="M 60.47656,0.17528678 C 59.138312,6.5458887 60.105743,11.969381 61.766361,17.146037 l -2.657298,7.385792 c -1.712132,-0.441034 -3.408469,-0.647816 -5.124864,-0.79267 l -1.309681,8.421794 c 6.84765,0.714936 14.814709,6.976059 15.414759,15.440711 l 8.73763,-1.297627 M 60.612363,100.24378 C 59.230492,93.785037 60.290116,88.207702 61.965866,82.983873 L 59.356898,75.69991 c -1.711276,0.729237 -3.43067,1.068984 -5.276498,1.3204 l -1.247107,-9.036484 c 7.459305,-0.714937 14.333706,-7.009273 15.451311,-15.473924 l 8.442628,1.330998 c 0.225839,-2.729721 0.277881,-5.016596 0.110165,-7.524889" />
    <path
       id="path23"
       style="fill:none;stroke:#e66100;stroke-width:0.1;stroke-dasharray:none"
       d="M 67.620209,0.34844078 C 66.266552,9.8535824 68.851158,18.233729 74.824076,25.445371 l -5.465606,5.530844 c 3.084706,2.950309 5.603599,6.238621 6.787502,10.201552 l 7.169511,-2.415819 M 67.717727,99.741809 C 66.36407,90.23667 68.246496,81.457795 75.021419,74.682876 l -5.526773,-5.46577 c 3.084706,-2.950309 5.252236,-6.289718 6.436139,-10.252649 l 7.330907,2.64092 c 0.36116,-6.07147 2.055297,-12.751443 0.05713,-22.842951" />
    <path
       id="path24"
       style="fill:none;stroke:#2ec27e;stroke-width:0.1;stroke-dasharray:none"
       d="M 100.11858,60.22328 C 93.747978,58.885032 88.324491,59.852463 83.147835,61.513081 l -7.385792,-2.657298 c 0.441034,-1.712132 0.647816,-3.408469 0.79267,-5.124864 l -8.421794,-1.309681 c -0.714936,6.84765 -6.976059,14.814709 -15.440711,15.414759 l 1.297627,8.73763 M 0.05005432,60.359083 C 6.508835,58.977212 12.08617,60.036836 17.309999,61.712586 l 7.283963,-2.608968 c -0.729237,-1.711276 -1.068984,-3.43067 -1.3204,-5.276498 l 9.036484,-1.247107 c 0.714937,7.459305 7.009273,14.333706 15.473924,15.451311 l -1.330998,8.442628 c 2.729721,0.225839 5.016596,0.277881 7.524889,0.110165" />
    <path
       id="path25"
       style="fill:none;stroke:#2ec27e;stroke-width:0.1;stroke-dasharray:none"
       d="M 99.945426,67.366929 C 90.440284,66.013272 82.060143,68.597878 74.848501,74.570796 L 69.317657,69.10519 c -2.950309,3.084706 -6.238621,5.603599 -10.201552,6.787502 l 2.415819,7.169511 M 0.55206035,67.464447 C 10.057202,66.11079 18.836077,67.993216 25.610996,74.768139 l 5.46577,-5.526773 c 2.950309,3.084706 6.289718,5.252236 10.252649,6.436139 l -2.64092,7.330907 c 6.07147,0.36116 12.751443,2.055297 22.842951,0.05713" />
  </g>
</svg>
