<?xml version="1.0" encoding="UTF-8" standalone="no"?>
<!-- Created with Inkscape (http://www.inkscape.org/) -->

<svg
   width="100mm"
   height="100mm"
   viewBox="0 0 100 100"
   version="1.1"
   id="svg1"
   inkscape:export-filename="bitmap.png"
   inkscape:export-xdpi="96"
   inkscape:export-ydpi="96"
   inkscape:version="1.3 (0e150ed, 2023-07-21)"
   sodipodi:docname="circle_wip.svg"
   data-author="Thomas Ahle"
   data-weave-parity="0"
   xmlns:inkscape="http://www.inkscape.org/namespaces/inkscape"
   xmlns:sodipodi="http://sodipodi.sourceforge.net/DTD/sodipodi-0.dtd"
   xmlns:xlink="http://www.w3.org/1999/xlink"
   xmlns="http://www.w3.org/2000/svg"
   xmlns:svg="http://www.w3.org/2000/svg"
   xmlns:rdf="http://www.w3.org/1999/02/22-rdf-syntax-ns#"
   xmlns:cc="http://creativecommons.org/ns#"
   xmlns:dc="http://purl.org/dc/elements/1.1/">
  <title
     id="title1">Uret v2</title>
  <desc
     id="desc1">A simple clock</desc>
  <sodipodi:namedview
     id="namedview1"
     pagecolor="#ffffff"
     bordercolor="#000000"
     borderopacity="0.25"
     inkscape:showpageshadow="2"
     inkscape:pageopacity="0.0"
     inkscape:pagecheckerboard="0"
     inkscape:deskcolor="#d1d1d1"
     inkscape:document-units="mm"
     inkscape:zoom="1.2835576"
     inkscape:cx="101.67054"
     inkscape:cy="236.06264"
     inkscape:window-width="1248"
     inkscape:window-height="1055"
     inkscape:window-x="0"
     inkscape:window-y="34"
     inkscape:window-maximized="0"
     inkscape:current-layer="layer1"
     showgrid="false" />
  <defs
     id="defs1" />
  <g
     inkscape:label="Layer 1"
     inkscape:groupmode="layer"
     id="layer1">
    <circle
       style="fill:none;stroke:#c01c28;stroke-width:0.3"
       id="circle9"
       cx="5.6105666"
       cy="5.6105666"
       r="34.823982" />
    <circle
       style="fill:none;stroke:#c01c28;stroke-width:0.300001"
       id="circle8"
       cx="6.3493028"
       cy="6.3493028"
       r="26.943304" />
    <g
       id="g10">
      <path
         id="path15"
         style="fill:none;stroke:#2ec27e;stroke-width:0.1;stroke-dasharray:none"
         d="m 99.915959,39.916075 c -6.370602,1.338248 -11.896934,0.242261 -17.07359,-1.418357 l -7.295118,2.892221 c 0.442631,1.278752 0.926924,3.424955 1.119431,4.640994 l -8.401307,1.405228 C 67.538674,40.694392 62.298616,33.274572 52.613764,31.729945 l 1.458075,-8.357239 C 51.5945,22.995802 49.383465,22.9136 46.023416,23.349522 l 1.424297,8.386505 C 39.289536,32.940785 33.018034,38.984281 31.742738,47.447705 L 23.35138,46.02452 c 0.312271,-2.072499 0.551487,-2.92003 1.079338,-4.610501 L 17.14803,38.485734 C 11.903106,40.098201 6.3457792,40.975648 0.01937201,39.990898"
         sodipodi:nodetypes="cccccccccccccc" />
      <path
         id="path16"
         style="fill:none;stroke:#2ec27e;stroke-width:0.1;stroke-dasharray:none"
         d="M 99.945426,32.671115 C 90.440284,34.024772 81.812542,31.33981 74.6009,25.366892 l -5.514924,5.587542 C 66.032047,27.992317 62.464671,25.720869 58.584519,24.439316 l 2.928586,-7.293039 C 54.22421,14.425333 45.430238,14.569632 38.483272,17.158842 l 2.931118,7.28667 c -3.887398,1.306644 -7.484643,3.495969 -10.472719,6.486259 l -5.555878,-5.5211 C 18.610874,32.185595 9.7114167,34.507237 0.02781835,32.573596"
         sodipodi:nodetypes="cccccccccc" />
    </g>
    <circle
       style="fill:none;stroke:#c01c28;stroke-width:0.300001"
       id="path6"
       cx="50"
       cy="50"
       r="26.943304" />
    <circle
       style="fill:none;stroke:#c01c28;stroke-width:0.300001"
       id="circle6"
       cx="50"
       cy="50"
       r="18.446949" />
    <circle
       style="fill:none;stroke:#c01c28;stroke-width:0.3"
       id="circle7"
       cx="50"
       cy="50"
       r="34.823982" />
    <use
       x="0"
       y="0"
       xlink:href="#g10"
       id="use10"
       transform="matrix(0,1,1,0,-2.4666316e-4,3.1823717e-4)" />
    <use
       x="0"
       y="0"
       xlink:href="#g10"
       id="use11"
       transform="rotate(90,49.999858,50.000176)" />
    <g
       id="g12"
       transform="matrix(1,0,0,-1,-0.06758004,99.998441)">
      <path
         id="path11"
         style="fill:none;stroke:#2ec27e;stroke-width:0.1;stroke-dasharray:none"
         d="m 99.915959,39.916075 c -6.370602,1.338248 -11.896934,0.242261 -17.07359,-1.418357 l -7.295118,2.892221 c 0.442631,1.278752 0.926924,3.424955 1.119431,4.640994 l -8.401307,1.405228 C 67.538674,40.694392 62.298616,33.274572 52.613764,31.729945 l 1.458075,-8.357239 C 51.5945,22.995802 49.383465,22.9136 46.023416,23.349522 l 1.424297,8.386505 C 39.289536,32.940785 33.018034,38.984281 31.742738,47.447705 L 23.35138,46.02452 c 0.312271,-2.072499 0.551487,-2.92003 1.079338,-4.610501 L 17.14803,38.485734 C 11.903106,40.098201 6.3457792,40.975648 0.01937201,39.990898"
         sodipodi:nodetypes="cccccccccccccc" />
      <path
         id="path12"
         style="fill:none;stroke:#2ec27e;stroke-width:0.1;stroke-dasharray:none"
         d="M 99.945426,32.671115 C 90.440284,34.024772 81.812542,31.33981 74.6009,25.366892 l -5.514924,5.587542 C 66.032047,27.992317 62.464671,25.720869 58.584519,24.439316 l 2.928586,-7.293039 C 54.22421,14.425333 45.430238,14.569632 38.483272,17.158842 l 2.931118,7.28667 c -3.887398,1.306644 -7.484643,3.495969 -10.472719,6.486259 l -5.555878,-5.5211 C 18.610874,32.185595 9.7114167,34.507237 0.02781835,32.573596"
         sodipodi:nodetypes="cccccccccc" />
    </g>
  </g>
  <metadata
     id="metadata12">
    <rdf:RDF>
      <cc:Work
         rdf:about="">
        <dc:title>Uret v2</dc:title>
      </cc:Work>
    </rdf:RDF>
  </metadata>
</svg>
