<?xml version="1.0" encoding="UTF-8" standalone="no"?>
<!-- Created with Inkscape (http://www.inkscape.org/) -->

<svg
   width="100mm"
   height="100mm"
   viewBox="0 0 100 100"
   version="1.1"
   id="svg1"
   sodipodi:docname="david.svg"
   inkscape:version="1.3 (0e150ed, 2023-07-21)"
   xmlns:inkscape="http://www.inkscape.org/namespaces/inkscape"
   xmlns:sodipodi="http://sodipodi.sourceforge.net/DTD/sodipodi-0.dtd"
   xmlns:xlink="http://www.w3.org/1999/xlink"
   xmlns="http://www.w3.org/2000/svg"
   xmlns:svg="http://www.w3.org/2000/svg"
   xmlns:rdf="http://www.w3.org/1999/02/22-rdf-syntax-ns#"
   xmlns:cc="http://creativecommons.org/ns#"
   xmlns:dc="http://purl.org/dc/elements/1.1/">
  <title
     id="title42">Davidsstjerne</title>
  <sodipodi:namedview
     id="namedview1"
     pagecolor="#ffffff"
     bordercolor="#000000"
     borderopacity="0.25"
     inkscape:showpageshadow="2"
     inkscape:pageopacity="0.0"
     inkscape:pagecheckerboard="0"
     inkscape:deskcolor="#d1d1d1"
     inkscape:document-units="mm"
     inkscape:zoom="29.03404"
     inkscape:cx="301.14652"
     inkscape:cy="298.95943"
     inkscape:window-width="1584"
     inkscape:window-height="1031"
     inkscape:window-x="0"
     inkscape:window-y="33"
     inkscape:window-maximized="0"
     inkscape:current-layer="layer1" />
  <defs
     id="defs1" />
  <g
     inkscape:label="Layer 1"
     inkscape:groupmode="layer"
     id="layer1">
    <g
       id="g4"
       transform="rotate(-45,46.13964,50.246757)">
      <path
         sodipodi:type="star"
         style="fill:none;stroke-width:0.3;stroke-opacity:0.495935"
         id="path1"
         inkscape:flatsided="true"
         sodipodi:sides="3"
         sodipodi:cx="-2.3904738"
         sodipodi:cy="13.864748"
         sodipodi:r1="42.762093"
         sodipodi:r2="21.381048"
         sodipodi:arg1="0.52359878"
         sodipodi:arg2="1.5707963"
         inkscape:rounded="0"
         inkscape:randomized="0"
         d="m 34.642585,35.245794 -74.066117,0 37.0330583,-64.143139 z"
         inkscape:transform-center-y="-10.690524"
         transform="translate(51.434284,38.937211)" />
      <path
         sodipodi:type="star"
         style="fill:none;stroke-width:0.444916;stroke-opacity:0.495935"
         id="path2"
         inkscape:flatsided="true"
         sodipodi:sides="3"
         sodipodi:cx="-2.3904738"
         sodipodi:cy="13.864748"
         sodipodi:r1="42.762093"
         sodipodi:r2="21.381048"
         sodipodi:arg1="0.52359878"
         sodipodi:arg2="1.5707963"
         inkscape:rounded="0"
         inkscape:randomized="0"
         d="m 34.642585,35.245794 -74.066117,0 37.0330583,-64.143139 z"
         inkscape:transform-center-y="-7.208453"
         transform="matrix(0.67428427,0,0,0.67428427,50.655669,43.453177)" />
      <path
         sodipodi:type="star"
         style="fill:none;stroke-width:0.3;stroke-opacity:0.495935"
         id="path3"
         inkscape:flatsided="true"
         sodipodi:sides="3"
         sodipodi:cx="-2.3904738"
         sodipodi:cy="13.864748"
         sodipodi:r1="42.762093"
         sodipodi:r2="21.381048"
         sodipodi:arg1="0.52359878"
         sodipodi:arg2="1.5707963"
         inkscape:rounded="0"
         inkscape:randomized="0"
         d="m 34.642585,35.245794 -74.066117,0 37.0330583,-64.143139 z"
         inkscape:transform-center-y="10.690524"
         transform="matrix(1,0,0,-1,51.434284,66.666709)" />
      <path
         sodipodi:type="star"
         style="fill:none;stroke-width:0.444916;stroke-opacity:0.495935"
         id="path4"
         inkscape:flatsided="true"
         sodipodi:sides="3"
         sodipodi:cx="-2.3904738"
         sodipodi:cy="13.864748"
         sodipodi:r1="42.762093"
         sodipodi:r2="21.381048"
         sodipodi:arg1="0.52359878"
         sodipodi:arg2="1.5707963"
         inkscape:rounded="0"
         inkscape:randomized="0"
         d="m 34.642585,35.245794 -74.066117,0 37.0330583,-64.143139 z"
         inkscape:transform-center-y="7.2084531"
         transform="matrix(0.67428427,0,0,-0.67428427,50.655669,62.150743)" />
    </g>
    <rect
       style="fill:none;stroke:none;stroke-width:0.300001;stroke-opacity:0.495935"
       id="rect5"
       width="12.5"
       height="12.5"
       x="0"
       y="0" />
    <rect
       style="fill:none;stroke:none;stroke-width:0.300001;stroke-opacity:0.495935"
       id="rect6"
       width="12.5"
       height="12.5"
       x="12.5"
       y="0" />
    <rect
       style="fill:none;stroke:none;stroke-width:0.300001;stroke-opacity:0.495935"
       id="rect8"
       width="12.5"
       height="12.5"
       x="37.5"
       y="0" />
    <rect
       style="fill:none;stroke:none;stroke-width:0.300001;stroke-opacity:0.495935"
       id="rect10"
       width="12.5"
       height="12.5"
       x="62.5"
       y="0" />
    <rect
       style="fill:none;stroke:none;stroke-width:0.300001;stroke-opacity:0.495935"
       id="rect11"
       width="12.5"
       height="12.5"
       x="75"
       y="0" />
    <rect
       style="fill:none;stroke:none;stroke-width:0.300001;stroke-opacity:0.495935"
       id="rect12"
       width="12.5"
       height="12.5"
       x="87.5"
       y="0" />
    <path
       style="fill:none;stroke:#e01b24;stroke-width:0.3;stroke-opacity:0.495935"
       d="M 12.5,0 V 12.502996 25 l 8.666301,-0.01 3.349255,12.51 H 12.5 V 50 h 7.262189 L 8.6837555,61.077039 12.506022,62.090329 12.5,62.5 v 37.66334"
       id="path12"
       sodipodi:nodetypes="cccccccccccc" />
    <use
       x="0"
       y="0"
       xlink:href="#path12"
       id="use12"
       transform="matrix(0,1,1,0,0,0.01062087)" />
    <path
       style="fill:none;stroke:#33d17a;stroke-width:0.3;stroke-opacity:0.495935"
       d="m 25,0 v 12.5 8.67661 l -5.239979,-1.414884 9.857397,9.855692 2.225387,8.28855 -8.529297,8.54818 4.923747,4.915477 -6.090414,6.081887 -1.799178,6.714624 12.202394,3.297167 2.002341,7.498552 H 25 l 0,25.265195"
       id="path13"
       sodipodi:nodetypes="cccccccccccccc" />
    <use
       x="0"
       y="0"
       xlink:href="#path13"
       id="use13"
       transform="matrix(0,1,1,0,0,-0.00219049)" />
    <circle
       style="fill:#e01b24;stroke:none;stroke-width:0.3;stroke-opacity:0.495935"
       id="path14"
       cx="6.2709184"
       cy="5.8637156"
       r="2.4432147" />
    <circle
       style="fill:#e01b24;stroke:none;stroke-width:0.3;stroke-opacity:0.495935"
       id="circle14"
       cx="17.183945"
       cy="16.776743"
       r="2.4432147" />
    <circle
       style="fill:#e01b24;stroke:none;stroke-width:0.3;stroke-opacity:0.495935"
       id="circle15"
       cx="33.553486"
       cy="16.776743"
       r="2.4432147" />
    <path
       style="fill:none;stroke:#f8e45c;stroke-width:0.3;stroke-opacity:0.495935"
       d="m 0,37.5 h 24.566428 l 1.577147,6.115212 8.727852,-8.727851 4.898698,4.898698 5.921438,-5.867799 7.944852,2.1391 1.808986,-6.751227 4.245206,1.156179 9.841611,9.841611 8.307906,2.223922 2.050791,-6.663744 L 86.004877,37.5 87.49093,37.915449 87.503913,37.5 h 12.497847"
       id="path16"
       sodipodi:nodetypes="cccccccccccccccc" />
    <circle
       style="fill:#ffffff;stroke:none;stroke-width:0.3;stroke-opacity:0.495935"
       id="circle16"
       cx="17.685423"
       cy="6.2537122"
       r="2.4432147" />
    <circle
       style="fill:#ffffff;stroke:none;stroke-width:0.3;stroke-opacity:0.495935"
       id="circle17"
       cx="6.3272309"
       cy="17.778936"
       r="2.4432147" />
    <circle
       style="fill:#ffffff;stroke:none;stroke-width:0.3;stroke-opacity:0.495935"
       id="circle18"
       cx="6.3272309"
       cy="17.778936"
       r="2.4432147" />
    <circle
       style="fill:#ffffff;stroke:none;stroke-width:0.3;stroke-opacity:0.495935"
       id="circle19"
       cx="44.327065"
       cy="5.8361316"
       r="2.4432147" />
    <circle
       style="fill:#e01b24;stroke:none;stroke-width:0.3;stroke-opacity:0.495935"
       id="circle20"
       cx="56.554806"
       cy="5.16855"
       r="2.4432147" />
    <circle
       style="fill:#ffffff;stroke:none;stroke-width:0.3;stroke-opacity:0.495935"
       id="circle21"
       cx="58.524803"
       cy="17.611904"
       r="2.4432147" />
    <circle
       style="fill:#e01b24;stroke:none;stroke-width:0.3;stroke-opacity:0.495935"
       id="circle22"
       cx="44.577614"
       cy="18.113001"
       r="2.4432147" />
    <use
       x="0"
       y="0"
       xlink:href="#path16"
       id="use22"
       transform="matrix(0,1,1,0,0.00124421,0.00327795)" />
    <path
       style="fill:#ffffff;stroke:#9141ac;stroke-width:0.3;stroke-opacity:0.495935"
       d="m 50,0 v 19.722581 l -3.535361,3.595912 4.911269,4.917149 4.088275,1.098184 -1.82147,6.71553 8.132056,2.181734 -23.543488,23.544595 8.520522,2.282155 -1.872356,6.68522 3.759707,1.00741 7.797216,2.048434 L 50,80.239696 v 19.72571"
       id="path22"
       sodipodi:nodetypes="cccccccccccccc" />
    <use
       x="0"
       y="0"
       xlink:href="#path22"
       id="use23"
       transform="matrix(0,1,1,0,1.188169e-7,-8.938656e-4)"
       style="fill:none;stroke:none" />
    <path
       style="fill:none;stroke:none;stroke-width:0.3;stroke-opacity:0.495935"
       d="M 51.330629,28.181522 46.433702,23.284596"
       id="path23" />
    <circle
       style="fill:#e01b24;stroke:none;stroke-width:0.3;stroke-opacity:0.495935"
       id="circle23"
       cx="10.462281"
       cy="30.649113"
       r="2.4432147" />
    <circle
       style="fill:#ffffff;stroke:none;stroke-width:0.3;stroke-opacity:0.495935"
       id="circle24"
       cx="5.5406532"
       cy="43.378464"
       r="2.4432147" />
    <circle
       style="fill:#e01b24;stroke:none;stroke-width:0.3;stroke-opacity:0.495935"
       id="circle25"
       cx="16.468874"
       cy="43.162849"
       r="2.4432147" />
    <circle
       style="fill:#e01b24;stroke:none;stroke-width:0.3;stroke-opacity:0.495935"
       id="circle26"
       cx="5.7906199"
       cy="56.534069"
       r="2.4432147" />
    <circle
       style="fill:#ffffff;stroke:none;stroke-width:0.3;stroke-opacity:0.495935"
       id="circle27"
       cx="68.422485"
       cy="7.2505379"
       r="2.4432147" />
    <circle
       style="fill:#e01b24;stroke:none;stroke-width:0.3;stroke-opacity:0.495935"
       id="circle28"
       cx="82.728813"
       cy="6.6269259"
       r="2.4432147" />
    <path
       style="fill:none;stroke:#986a44;stroke-width:0.3;stroke-opacity:0.495935"
       d="m 62.5,0 v 12.511124 l -0.408548,0.0053 0.408548,1.525591 1.707203,6.322056 -6.775374,1.815456 2.258853,8.284327 9.825863,9.815438 1.226974,4.572478 -6.698694,1.877514 2.070522,7.577784 -5.933268,5.910535 4.921637,4.876172 -3.041668,3.060806 -1.804231,6.727771 2.242273,0.599802 -0.09232,24.579461"
       id="path28"
       sodipodi:nodetypes="ccccccccccccccccc" />
    <use
       x="0"
       y="0"
       xlink:href="#path28"
       id="use28"
       transform="matrix(0,1,1,0,0.02222568,0.00239835)" />
    <path
       style="fill:none;stroke:#3584e4;stroke-width:0.3;stroke-opacity:0.495935"
       d="m 75,0 0.03776,34.533864 3.238088,0.900665 1.61075,0.438636 -2.018263,6.640618 -6.111607,6.130538 3.134376,11.627494 -6.731328,1.801174 2.246645,8.313398 9.832191,9.851249 L 75,78.832012 v 21.179038"
       id="path29"
       sodipodi:nodetypes="cccccccccccc" />
    <use
       x="0"
       y="0"
       xlink:href="#path29"
       id="use29"
       transform="matrix(0,1,1,0,-0.00127367,-0.00314372)" />
    <circle
       style="fill:#e01b24;stroke:none;stroke-width:0.3;stroke-opacity:0.495935"
       id="circle29"
       cx="19.726688"
       cy="70.112801"
       r="2.4432147" />
    <circle
       style="fill:#ffffff;stroke:none;stroke-width:0.3;stroke-opacity:0.495935"
       id="circle30"
       cx="6.0170999"
       cy="68.86837"
       r="2.4432147" />
    <rect
       style="fill:none;stroke:none;stroke-width:0.300001;stroke-opacity:0.495935"
       id="rect30"
       width="12.5"
       height="12.5"
       x="87.5"
       y="12.5" />
    <circle
       style="fill:#e01b24;stroke:none;stroke-width:0.3;stroke-opacity:0.495935"
       id="circle31"
       cx="93.9814"
       cy="18.683266"
       r="2.4432147" />
    <circle
       style="fill:#ffffff;stroke:none;stroke-width:0.3;stroke-opacity:0.495935"
       id="circle32"
       cx="93.517532"
       cy="6.0895572"
       r="2.4432147" />
    <circle
       style="fill:#ffffff;stroke:none;stroke-width:0.3;stroke-opacity:0.495935"
       id="circle33"
       cx="80.121597"
       cy="18.235203"
       r="2.4432147" />
    <path
       style="fill:none;stroke:#ff7800;stroke-width:0.3;stroke-opacity:0.495935"
       d="M 87.5,0 V 37.91204 L 91.305369,38.931685 80.253186,50 H 87.5 V 62.5 H 75.474112 L 78.832088,75 H 87.5 l 0,24.938682"
       id="path33"
       sodipodi:nodetypes="cccccccccc" />
    <circle
       style="fill:#ffffff;stroke:none;stroke-width:0.3;stroke-opacity:0.495935"
       id="circle34"
       cx="93.584549"
       cy="30.415337"
       r="2.4432147" />
    <circle
       style="fill:#e01b24;stroke:none;stroke-width:0.3;stroke-opacity:0.495935"
       id="circle35"
       cx="70.179886"
       cy="19.175287"
       r="2.4432147" />
    <circle
       style="fill:#e01b24;stroke:none;stroke-width:0.3;stroke-opacity:0.495935"
       id="circle36"
       cx="81.12735"
       cy="30.553272"
       r="2.4432147" />
    <circle
       style="fill:#e01b24;stroke:none;stroke-width:0.3;stroke-opacity:0.495935"
       id="circle37"
       cx="94.561279"
       cy="42.894489"
       r="2.4432147" />
    <use
       x="0"
       y="0"
       xlink:href="#path33"
       id="use37"
       transform="matrix(0,1,1,0,-4.0088331e-5,0.00182931)" />
    <rect
       style="fill:none;stroke:none;stroke-width:0.300001;stroke-opacity:0.495935"
       id="rect37"
       width="12.5"
       height="12.5"
       x="87.5"
       y="50" />
    <circle
       style="fill:#ffffff;stroke:none;stroke-width:0.3;stroke-opacity:0.495935"
       id="circle38"
       cx="93.271233"
       cy="56.733875"
       r="2.4432147" />
    <rect
       style="fill:none;stroke:none;stroke-width:0.300001;stroke-opacity:0.495935"
       id="rect38"
       width="12.5"
       height="12.5"
       x="87.5"
       y="75" />
    <circle
       style="fill:#ffffff;stroke:none;stroke-width:0.3;stroke-opacity:0.495935"
       id="circle39"
       cx="93.897865"
       cy="82.112465"
       r="2.4432147" />
    <circle
       style="fill:#e01b24;stroke:none;stroke-width:0.3;stroke-opacity:0.495935"
       id="circle40"
       cx="82.717735"
       cy="57.422565"
       r="2.4432147" />
    <circle
       style="fill:#e01b24;stroke:none;stroke-width:0.3;stroke-opacity:0.495935"
       id="circle41"
       cx="90.613426"
       cy="68.47654"
       r="2.4432147" />
    <circle
       style="fill:#e01b24;stroke:none;stroke-width:0.3;stroke-opacity:0.495935"
       id="circle42"
       cx="83.64296"
       cy="83.440666"
       r="2.4432147" />
  </g>
  <metadata
     id="metadata42">
    <rdf:RDF>
      <cc:Work
         rdf:about="">
        <dc:title>Davidsstjerne</dc:title>
        <dc:creator>
          <cc:Agent>
            <dc:title>Thomas Ahle</dc:title>
          </cc:Agent>
        </dc:creator>
      </cc:Work>
    </rdf:RDF>
  </metadata>
</svg>
