<svg viewBox="0 0 100 100" xmlns="http://www.w3.org/2000/svg" xmlns:rdf="http://www.w3.org/1999/02/22-rdf-syntax-ns#" xmlns:cc="http://creativecommons.org/ns#" xmlns:dc="http://purl.org/dc/elements/1.1/" data-weave-parity="0">
  <title>David 4</title>
  <desc>4x4 Version of the Star of David</desc>
  <metadata>
    <rdf:RDF>
      <cc:Work rdf:about="">
        <dc:title>David 4</dc:title>
        <dc:creator>
          <cc:Agent>
            <dc:title>Thomas Ahle</dc:title>
          </cc:Agent>
        </dc:creator>
        <dc:description>4x4 Version of the Star of David</dc:description>
        <dc:source>juleflet.dk</dc:source>
        <dc:date>2025-12-25</dc:date>
      </cc:Work>
    </rdf:RDF>
  </metadata>
  <path d="M 100 10 C 96.66666666666667 10 93.33333333333331 10 90 10 C 82.24299866666667 17.761601000000006 74.48599733333333 25.523202000000005 66.728996 33.28480299999999 C 74.388912 35.30988299999999 82.048828 37.334963000000016 89.70874399999998 39.360043 C 85.135691 40.577138666666656 80.562638 41.79423433333333 75.98958499999999 43.01133 C 74.23347999999999 44.766183999999996 72.47737500000001 46.52103799999999 70.72127 48.275892 C 70.08270699999998 45.892741 69.44414400000002 43.50959 68.80558099999999 41.126439000000005 C 65.49490733333333 37.815765 62.18423366666666 34.50509099999999 58.87356000000001 31.19441700000001 C 58.87356000000001 31.19441700000001 56.98867099999999 24.010415000000005 56.98867099999999 24.010415000000005 C 58.205765666666665 19.43736199999999 59.422860333333325 14.864308999999992 60.639955 10.291255999999995 C 57.09330366666667 13.855777000000009 53.54665233333331 17.420298000000003 50.000001 20.984818999999995 C 50.000001 17.323212666666656 50.000001 13.66160633333334 50.000001 10 C 33.333333049999986 10 16.666667949999994 10 0 10" stroke="orange" fill="none"/>
  <path d="M 100 50 C 93.00209100000001 50.000001 86.004182 50.000002 79.00627300000001 50.00000299999999 C 76.95100833333332 52.04326166666665 74.89574366666668 54.08652033333332 72.840479 56.129779 C 74.91655666666665 63.77618533333334 76.99263433333331 71.42259166666666 79.06871199999999 79.06899800000001 C 75.72810499999999 75.72839099999999 72.387498 72.38778400000001 69.046891 69.04717699999999 C 68.39141833333332 66.62753400000001 67.73594566666664 64.20789099999999 67.08047299999998 61.78824799999999 C 66.20715233333331 62.67909833333333 65.33383166666667 63.569948666666654 64.460511 64.460799 C 62.791007666666665 62.79129499999999 61.12150433333331 61.121790999999995 59.452000999999974 59.45228699999999 C 61.290018999999994 57.629187 63.12803699999999 55.80608699999999 64.96605499999998 53.982987000000016 C 63.631837333333316 48.999504333333334 62.29761966666666 44.016021666666674 60.96340200000001 39.03253900000001 C 55.983592666666674 37.700302 51.00378333333333 36.368065 46.02397399999999 35.035828 C 44.19855266666667 36.87321733333332 42.37313133333333 38.71060666666667 40.547710000000016 40.54799599999999 C 38.878206 38.878492000000016 37.208702 37.20898799999999 35.539198 35.539484 C 36.41256733333334 34.66098433333334 37.28593666666666 33.78248466666667 38.159306 32.903985 C 35.757144333333336 32.253692 33.35498266666667 31.603399000000003 30.952821000000007 30.95310599999999 C 27.61221333333333 27.61249833333333 24.27160566666667 24.271890666666668 20.930998 20.931282999999997 C 23.004433000000006 28.579700000000003 25.077868000000002 36.228117 27.151303000000006 43.87653399999999 C 25.095808333333338 45.91768933333333 23.040313666666673 47.958844666666664 20.984818999999995 50 C 17.323212666666667 50 13.66160633333334 50 10 50 C 6.666666666666667 50 3.3333333333333335 50 0 50" stroke="orange" fill="none"/>
  <path d="M 100 90.00001200000001 C 83.33333205000001 90.00001200000001 66.66666695000002 90.00001200000001 49.999999 90.00001200000001 C 49.999999 86.33840566666667 49.999999 82.67679933333335 49.999999 79.015193 C 46.453347666666694 82.57971400000001 42.90669633333332 86.14423500000001 39.36004499999999 89.70875600000001 C 40.577139666666675 85.13570300000002 41.79423433333333 80.56265000000003 43.01132900000001 75.989597 C 43.01132900000001 75.989597 41.12643999999998 68.805595 41.12643999999998 68.805595 C 37.81576633333335 65.49492100000002 34.50509266666668 62.18424699999999 31.194419000000018 58.873573 C 30.55585599999997 56.49042200000001 29.91729300000001 54.107271000000004 29.278729999999996 51.724120000000006 C 27.522624999999984 53.478974000000015 25.766520000000014 55.23382800000002 24.010415000000005 56.988682000000004 C 19.43736199999999 58.20577766666668 14.864309000000011 59.42287333333335 10.291256000000013 60.63996900000001 C 17.951172000000003 62.665048999999996 25.61108799999999 64.69012900000003 33.271004000000005 66.71520900000002 C 25.51400266666667 74.47681 17.757001333333335 82.238411 10 90.00001200000001 C 6.666666666666686 90.00001200000001 3.3333333333333335 90.00001200000001 0 90.00001200000001" stroke="orange" fill="none"/>
  <path d="M 9.999993999999997 100.00000600000001 C 9.999993999999997 96.66667266666667 9.999993999999997 93.33333933333333 9.999993999999997 90.000006 C 17.761595 82.24300466666666 25.523196000000002 74.48600333333334 33.28479699999999 66.72900200000001 C 35.309876999999986 74.388918 37.33495700000001 82.048834 39.360037 89.70875 C 40.57713266666666 85.13569699999998 41.79422833333333 80.56264400000002 43.011324 75.989591 C 44.76617799999998 74.233486 46.52103199999999 72.47738100000002 48.27588599999997 70.72127600000002 C 45.892734999999995 70.082713 43.509584000000004 69.44415000000004 41.126433 68.80558699999997 C 37.81575899999999 65.49491333333333 34.505084999999994 62.18423966666665 31.194411 58.873566000000025 C 31.194411 58.873566000000025 24.010409 56.988676999999996 24.010409 56.988676999999996 C 19.437355999999983 58.20577166666667 14.864302999999987 59.42286633333333 10.291249999999991 60.63996100000001 C 13.855771000000006 57.093309666666684 17.420292 53.546658333333305 20.984812999999995 50.000007000000004 C 17.323206666666653 50.000007000000004 13.661600333333334 50.000007000000004 9.999993999999997 50.000007000000004 C 9.999993999999997 33.333339049999985 9.999993999999997 16.66667395 9.999993999999997 0.000006000000003799262" stroke="green" fill="none"/>
  <path d="M 49.999994000000015 100.00000600000001 C 49.99999499999999 93.002097 49.99999599999999 86.004188 49.99999700000001 79.00627899999999 C 52.04325566666665 76.95101433333332 54.08651433333331 74.89574966666666 56.12977300000001 72.84048500000002 C 63.776179333333324 74.91656266666666 71.42258566666665 76.99264033333333 79.06899200000001 79.06871799999999 C 75.72838499999999 75.728111 72.387778 72.387504 69.04717099999999 69.04689699999999 C 66.627528 68.39142433333333 64.207885 67.73595166666665 61.78824199999997 67.080479 C 62.67909233333332 66.20715833333333 63.569942666666655 65.33383766666668 64.46079299999998 64.46051700000001 C 62.791288999999985 62.79101366666665 61.12178499999998 61.12151033333332 59.45228099999997 59.45200699999999 C 57.629180999999996 61.29002499999999 55.806080999999985 63.12804300000001 53.98298100000002 64.96606099999997 C 48.99949833333333 63.631843333333336 44.01601566666666 62.29762566666667 39.032533 60.963408000000015 C 37.700296 55.98359866666668 36.368058999999995 51.00378933333334 35.035821999999996 46.023979999999995 C 36.87321133333332 44.19855866666668 38.710600666666664 42.37313733333334 40.54798999999999 40.547716000000015 C 38.87848600000001 38.878212 37.20898199999999 37.208708 35.53947799999999 35.539204000000005 C 34.66097833333333 36.41257333333334 33.782478666666655 37.285942666666664 32.90397899999999 38.159312 C 32.253685999999995 35.757150333333335 31.603393 33.35498866666667 30.95309999999999 30.952827000000017 C 27.61249233333333 27.612219333333332 24.271884666666665 24.271611666666672 20.931276999999994 20.931004 C 28.579694 23.00443900000001 36.228111 25.077874000000012 43.876527999999986 27.15130900000001 C 45.91768333333334 25.095814333333344 47.95883866666666 23.040319666666676 49.999994000000015 20.984825 C 49.999994000000015 17.32321866666667 49.999994000000015 13.661612333333343 49.999994000000015 10.000006000000004 C 49.999994000000015 6.6666726666666705 49.999994000000015 3.333339333333337 49.999994000000015 0.000006000000003799262" stroke="green" fill="none"/>
  <path d="M 90.000006 100.00000600000001 C 90.000006 83.33333805000001 90.000006 66.66667295000002 90.000006 50.000005 C 86.33839966666666 50.000005 82.67679333333334 50.000005 79.01518700000001 50.000005 C 82.57970799999998 46.4533536666667 86.144229 42.90670233333333 89.70875000000001 39.360051 C 85.13569700000001 40.577145666666674 80.56264400000002 41.794240333333335 75.989591 43.01133500000001 C 75.989591 43.01133500000001 68.805589 41.12644599999999 68.805589 41.12644599999999 C 65.494915 37.815772333333356 62.18424100000001 34.505098666666676 58.873567000000016 31.194425000000024 C 56.490415999999996 30.555861999999973 54.107265000000005 29.917299000000014 51.72411400000002 29.278736 C 53.478968 27.522630999999993 55.23382200000001 25.766526000000017 56.98867599999999 24.010421000000008 C 58.20577166666667 19.437367999999992 59.42286733333335 14.864315000000014 60.63996300000001 10.291262000000017 C 62.66504299999999 17.95117800000001 64.69012300000001 25.611094 66.71520300000002 33.271010000000004 C 74.476804 25.514008666666673 82.238405 17.757007333333338 90.000006 10.000006000000004 C 90.000006 6.66667266666669 90.000006 3.333339333333337 90.000006 0.000006000000003799262" stroke="green" fill="none"/>
</svg>