<svg viewBox="0 0 100 100" xmlns="http://www.w3.org/2000/svg" xmlns:rdf="http://www.w3.org/1999/02/22-rdf-syntax-ns#" xmlns:cc="http://creativecommons.org/ns#" xmlns:dc="http://purl.org/dc/elements/1.1/" data-weave-parity="0">
  <title>Davidsstjerne Cirkel</title>
  <metadata>
    <rdf:RDF>
      <cc:Work rdf:about="">
        <dc:title>Davidsstjerne Cirkel</dc:title>
        <dc:creator>
          <cc:Agent>
            <dc:title>Thomas Ahle</dc:title>
          </cc:Agent>
        </dc:creator>
        <dc:source>juleflet.dk</dc:source>
        <dc:date>2025-12-25</dc:date>
      </cc:Work>
    </rdf:RDF>
  </metadata>
  <path d="M 100 12.510621 C 91.66673333333334 12.510621 83.33346666666667 12.510621 75.0002 12.510621 C 71.035779 10.109728 66.996514 7.8952457 62.529878 6.745179299999999 C 62.04559833333333 7.394911666666666 61.561318666666665 8.044644033333332 61.077039 8.6943764 C 57.384693 12.387187999999998 53.692346 16.079999 50 19.77281 C 50 14.8375168 50 9.9022236 50 4.9669304 C 45.813914 4.9945524 41.64496 5.5181881 37.5 6.7365355000000005 C 37.5 12.666416 37.5 18.5962965 37.5 24.526177000000004 C 33.33 23.409758666666672 29.159999999999997 22.293340333333333 24.99 21.176922 C 24.993333333333332 18.288155 24.996666666666663 15.399388000000002 25 12.510621 C 22.576671 14.216428 20.228407 16.033154 18.115712000000002 18.197963 C 16.24480666666667 16.302182333333334 14.373901333333333 14.406401666666667 12.502996 12.510621 C 8.335330666666668 12.510621 4.167665333333334 12.510621 0 12.510621" stroke="orange" fill="none"/>
  <path d="M 100 25.026959999999992 C 95.361759 25.026959999999992 87.404295 24.999509999999997 87.404295 24.999509999999997 C 87.518668 24.86596699999999 84.26488378296823 20.430315782968204 81.83804278296822 18.1517387829682 C 77.05478078296821 22.96848278296821 72.22807 27.74177800000001 67.444808 32.558522 C 66.345752 28.491057 65.329939 24.482863999999996 64.230884 20.415400000000005 C 61.992676 21.01512600000001 59.68972 21.574075000000004 57.45151200000001 22.173801000000008 C 55.424216333333334 24.203939 53.39692066666667 26.234076999999996 51.369625 28.264214999999997 C 49.73113266666667 26.622965999999998 48.09264033333333 24.981716999999996 46.454147999999996 23.340468000000005 C 43.604754666666665 26.183567000000004 40.755361333333326 29.026665999999995 37.90596799999999 31.869765 C 35.143117999999994 31.127969 32.395962 30.370480000000004 29.633112 29.628684 C 26.34788099999999 26.342885000000006 23.049427 23.051593000000008 19.76419599999999 19.765794 C 20.235823999999987 21.51245399999999 20.70498199999999 23.2803 21.176609999999993 25.026959999999992 C 18.284406666666655 25.026959999999992 15.392203333333326 25.026959999999992 12.5 25.026959999999992 C 8.333333333333332 25.026959999999992 4.166666666666666 25.026959999999992 0 25.026959999999992" stroke="orange" fill="none"/>
  <path d="M 100 37.470122 C 97.75160699999999 37.470122 95.50321399999999 37.470122 93.25482099999999 37.470122 C 92.60508866666665 37.95440166666667 91.95535633333333 38.438681333333335 91.30562400000001 38.922961 C 87.40831700000001 37.869613666666666 83.51100999999998 36.81626633333334 79.61370299999999 35.762919000000004 C 79.00855099999998 38.021377 78.43674999999999 40.313186 77.83159799999999 42.571644000000006 C 75.07015599999998 41.818693 72.27536299999998 41.032391000000004 69.51391999999998 40.27944000000001 C 66.24210733333332 37.004152333333344 62.970294666666646 33.728864666666674 59.698481999999984 30.45357700000001 C 58.17432299999999 30.04458500000001 56.939379999999986 29.782164000000012 55.41522099999998 29.373172000000007 C 54.78938299999998 31.60607000000001 54.25603399999998 33.82169000000001 53.630195999999984 36.05458800000001 C 51.10426799999998 35.36441400000001 48.196633999999975 34.54494900000001 45.67070599999999 33.85477500000001 C 43.70052766666664 35.83253100000001 41.730349333333315 37.81028700000001 39.76017099999998 39.78804300000001 C 38.13478033333331 38.14749733333334 36.50938966666664 36.50695166666668 34.883998999999974 34.86640600000001 C 33.86373033333331 35.88029533333334 32.84346166666664 36.89418466666668 31.82319299999998 37.90807400000001 C 29.887430999999975 39.85313400000001 27.951668999999974 41.79819400000002 26.01590699999997 43.743254000000015 C 25.815972999999996 42.99583 24.695554 38.217456 24.49562 37.470032 C 16.302467 37.500805 8.1931537 37.531578 0 37.562352" stroke="orange" fill="none"/>
  <path d="M 100 50.00045828850692 C 93.42476333333332 50.00045828850692 86.81493278548356 50.00045828850692 80.2396961188169 50.00045828850692 C 78.09276545215023 52.1459149551736 78.83076876093634 51.40608360856762 76.68383809426966 53.551540275234274 C 76.68383809426966 53.551540275234274 71.75047011881689 48.639612288506925 71.75047011881689 48.639612288506925 C 71.41466678548356 47.386376621840256 70.95822692668993 45.830156857481086 70.6224235933566 44.576921190814424 C 68.39401692668993 45.20103985748108 66.18393618864933 45.731490661471454 63.95552952198267 46.355609328138115 C 63.19481118864934 43.51543532813811 62.50058586095292 41.106098168994386 61.739867527619595 38.26592416899438 C 53.89166919428627 46.11375350232773 46.07928845215023 53.9273979551736 38.2310901188169 61.775227288506926 C 37.503845452150244 59.06454195517359 36.77660078548357 56.35385662184025 36.0493561188169 53.64317128850692 C 33.810846118816904 54.250327955173596 31.572336118816903 54.85748462184025 29.333826118816898 55.464641288506925 C 28.967764785483574 54.10188295517359 28.60170345215024 52.73912462184025 28.235642118816905 51.376366288506915 C 26.596592452150237 49.73927662184025 24.957542785483568 48.10218695517358 23.318493118816907 46.46509728850691 C 22.119855785483566 47.6435509551736 20.921218452150235 48.82200462184025 19.722581118816905 50.00045828850692 C 13.148387452150223 50.00045828850692 6.574193666666661 50.00045828850692 0 50.00045828850692" stroke="orange" fill="none"/>
  <path d="M 100 62.437648 C 91.8068463 62.46842199999999 83.697533 62.49919500000001 75.50438 62.52996799999999 C 75.304446 61.78254400000001 74.184027 57.00417000000001 73.98409300000003 56.25674599999998 C 72.04833100000003 58.20180599999999 70.11256900000002 60.14686599999999 68.17680700000001 62.09192599999999 C 67.15653833333336 63.10581533333332 66.13626966666669 64.11970466666665 65.11600100000003 65.13359399999999 C 63.49061033333335 63.49304833333333 61.86521966666669 61.852502666666666 60.23982900000002 60.21195699999999 C 58.26965066666667 62.18971299999999 56.299472333333355 64.16746899999998 54.32929400000002 66.145225 C 51.80336600000002 65.45505099999998 48.89573200000001 64.63558599999999 46.369804000000016 63.94541199999999 C 45.74396600000003 66.17831 45.21061700000003 68.39393 44.58477900000002 70.62682799999999 C 43.06062000000002 70.217836 41.82567700000001 69.955415 40.301518000000016 69.54642299999999 C 37.029705333333354 66.27113533333333 33.757892666666685 62.99584766666665 30.486080000000015 59.72055999999999 C 27.72463700000002 58.967608999999996 24.929844000000013 58.181307000000004 22.168402000000007 57.428355999999994 C 21.56325000000001 59.686814 20.991449000000017 61.978623 20.386297000000013 64.23708099999999 C 16.488990000000012 63.18373366666666 12.591682999999989 62.13038633333334 8.694375999999995 61.077039 C 8.044643666666673 61.561318666666665 7.39491133333335 62.04559833333334 6.7451790000000065 62.529878 C 4.496786000000024 62.529878 2.2483930000000023 62.529878 0 62.529878" stroke="orange" fill="none"/>
  <path d="M 100 74.97304 C 95.83333333333334 74.97304 91.66666666666666 74.97304 87.5 74.97304 C 84.60779666666667 74.97304 81.71559333333335 74.97304 78.82339 74.97304 C 79.295018 76.7197 79.764176 78.48754600000001 80.23580400000002 80.234206 C 76.950573 76.948407 73.652119 73.65711499999999 70.36688799999999 70.371316 C 67.604038 69.62951999999999 64.856882 68.872031 62.09403200000001 68.130235 C 59.244638666666674 70.973334 56.395245333333335 73.816433 53.545852000000004 76.659532 C 51.90735966666667 75.01828300000001 50.26886733333333 73.377034 48.630375 71.735785 C 46.60307933333333 73.76592300000002 44.575783666666666 75.79606100000001 42.54848799999999 77.826199 C 40.31028 78.42592499999999 38.007324000000004 78.98487399999999 35.769116 79.5846 C 34.670061000000004 75.51713600000001 33.654247999999995 71.508943 32.55519200000002 67.441478 C 27.77193 72.25822199999999 22.94521921703179 77.03151721703179 18.161957217031784 81.8482612170318 C 15.735116217031777 79.5696842170318 12.48133199999999 75.13403300000002 12.59570499999999 75.00049000000001 C 12.59570499999999 75.00049000000001 4.638240999999994 74.97304 0 74.97304" stroke="orange" fill="none"/>
  <path d="M 100 87.489379 C 95.83233466666667 87.489379 91.66466933333334 87.489379 87.497004 87.489379 C 85.62609866666666 85.59359833333335 83.75519333333334 83.69781766666668 81.884288 81.802037 C 79.771593 83.966846 77.42332900000001 85.78357199999999 75 87.489379 C 75.00333333333334 84.600612 75.00666666666666 81.71184500000001 75.01 78.823078 C 70.84 77.70665966666667 66.67 76.59024133333332 62.5 75.473823 C 62.5 81.4037035 62.5 87.333584 62.5 93.2634645 C 58.35504 94.4818119 54.18608600000001 95.0054476 50 95.0330696 C 50 90.0977764 50 85.1624832 50 80.22719 C 46.30765399999999 83.920001 42.615307 87.61281199999999 38.922960999999994 91.3056236 C 38.438681333333335 91.95535596666667 37.954401666666676 92.60508833333334 37.470122 93.2548207 C 33.003485999999995 92.1047543 28.96422099999999 89.89027200000001 24.999799999999993 87.489379 C 16.666533333333327 87.489379 8.333266666666663 87.489379 0 87.489379" stroke="orange" fill="none"/>
  <path d="M 12.510621 100 C 12.510621 91.66673333333334 12.510621 83.33346666666667 12.510621 75.0002 C 10.109728 71.035779 7.8952457 66.996514 6.745179299999999 62.529878 C 7.394911666666666 62.04559833333333 8.044644033333332 61.561318666666665 8.6943764 61.077039 C 12.387187999999998 57.384693 16.079999 53.692346 19.77281 50 C 14.8375168 50 9.9022236 50 4.9669304 50 C 4.9945524 45.813914 5.5181881 41.64496 6.7365355000000005 37.5 C 12.666416 37.5 18.5962965 37.5 24.526177000000004 37.5 C 23.409758666666672 33.33 22.293340333333333 29.159999999999997 21.176922 24.99 C 18.288155 24.993333333333332 15.399388000000002 24.996666666666663 12.510621 25 C 14.216428 22.576671 16.033154 20.228407 18.197963 18.115712000000002 C 16.302182333333334 16.24480666666667 14.406401666666667 14.373901333333333 12.510621 12.502996 C 12.510621 8.335330666666668 12.510621 4.167665333333334 12.510621 0" stroke="green" fill="none"/>
  <path d="M 25.026959999999992 100 C 25.026959999999992 95.361759 24.999509999999997 87.404295 24.999509999999997 87.404295 C 24.86596699999999 87.518668 20.430315782968204 84.26488378296823 18.1517387829682 81.83804278296822 C 22.96848278296821 77.05478078296821 27.74177800000001 72.22807 32.558522 67.444808 C 28.491057 66.345752 24.482863999999996 65.329939 20.415400000000005 64.230884 C 21.01512600000001 61.992676 21.574075000000004 59.68972 22.173801000000008 57.45151200000001 C 24.203939 55.424216333333334 26.234076999999996 53.39692066666667 28.264214999999997 51.369625 C 26.622965999999998 49.73113266666667 24.981716999999996 48.09264033333333 23.340468000000005 46.454147999999996 C 26.183567000000004 43.604754666666665 29.026665999999995 40.755361333333326 31.869765 37.90596799999999 C 31.127969 35.143117999999994 30.370480000000004 32.395962 29.628684 29.633112 C 26.342885000000006 26.34788099999999 23.051593000000008 23.049427 19.765794 19.76419599999999 C 21.51245399999999 20.235823999999987 23.2803 20.70498199999999 25.026959999999992 21.176609999999993 C 25.026959999999992 18.284406666666655 25.026959999999992 15.392203333333326 25.026959999999992 12.5 C 25.026959999999992 8.333333333333332 25.026959999999992 4.166666666666666 25.026959999999992 0" stroke="green" fill="none"/>
  <path d="M 37.470122 100 C 37.470122 97.75160699999999 37.470122 95.50321399999999 37.470122 93.25482099999999 C 37.95440166666667 92.60508866666665 38.438681333333335 91.95535633333333 38.922961 91.30562400000001 C 37.869613666666666 87.40831700000001 36.81626633333334 83.51100999999998 35.762919000000004 79.61370299999999 C 38.021377 79.00855099999998 40.313186 78.43674999999999 42.571644000000006 77.83159799999999 C 41.818693 75.07015599999998 41.032391000000004 72.27536299999998 40.27944000000001 69.51391999999998 C 37.004152333333344 66.24210733333332 33.728864666666674 62.970294666666646 30.45357700000001 59.698481999999984 C 30.04458500000001 58.17432299999999 29.782164000000012 56.939379999999986 29.373172000000007 55.41522099999998 C 31.60607000000001 54.78938299999998 33.82169000000001 54.25603399999998 36.05458800000001 53.630195999999984 C 35.36441400000001 51.10426799999998 34.54494900000001 48.196633999999975 33.85477500000001 45.67070599999999 C 35.83253100000001 43.70052766666664 37.81028700000001 41.730349333333315 39.78804300000001 39.76017099999998 C 38.14749733333334 38.13478033333331 36.50695166666668 36.50938966666664 34.86640600000001 34.883998999999974 C 35.88029533333334 33.86373033333331 36.89418466666668 32.84346166666664 37.90807400000001 31.82319299999998 C 39.85313400000001 29.887430999999975 41.79819400000002 27.951668999999974 43.743254000000015 26.01590699999997 C 42.99583 25.815972999999996 38.217456 24.695554 37.470032 24.49562 C 37.500805 16.302467 37.531578 8.1931537 37.562352 0" stroke="green" fill="none"/>
  <path d="M 50.00045828850692 100 C 50.00045828850692 93.42476333333332 50.00045828850692 86.81493278548356 50.00045828850692 80.2396961188169 C 52.1459149551736 78.09276545215023 51.40608360856762 78.83076876093634 53.551540275234274 76.68383809426966 C 53.551540275234274 76.68383809426966 48.639612288506925 71.75047011881689 48.639612288506925 71.75047011881689 C 47.386376621840256 71.41466678548356 45.830156857481086 70.95822692668993 44.576921190814424 70.6224235933566 C 45.20103985748108 68.39401692668993 45.731490661471454 66.18393618864933 46.355609328138115 63.95552952198267 C 43.51543532813811 63.19481118864934 41.106098168994386 62.50058586095292 38.26592416899438 61.739867527619595 C 46.11375350232773 53.89166919428627 53.9273979551736 46.07928845215023 61.775227288506926 38.2310901188169 C 59.06454195517359 37.503845452150244 56.35385662184025 36.77660078548357 53.64317128850692 36.0493561188169 C 54.250327955173596 33.810846118816904 54.85748462184025 31.572336118816903 55.464641288506925 29.333826118816898 C 54.10188295517359 28.967764785483574 52.73912462184025 28.60170345215024 51.376366288506915 28.235642118816905 C 49.73927662184025 26.596592452150237 48.10218695517358 24.957542785483568 46.46509728850691 23.318493118816907 C 47.6435509551736 22.119855785483566 48.82200462184025 20.921218452150235 50.00045828850692 19.722581118816905 C 50.00045828850692 13.148387452150223 50.00045828850692 6.574193666666661 50.00045828850692 0" stroke="green" fill="none"/>
  <path d="M 62.437648 100 C 62.46842199999999 91.8068463 62.49919500000001 83.697533 62.52996799999999 75.50438 C 61.78254400000001 75.304446 57.00417000000001 74.184027 56.25674599999998 73.98409300000003 C 58.20180599999999 72.04833100000003 60.14686599999999 70.11256900000002 62.09192599999999 68.17680700000001 C 63.10581533333332 67.15653833333336 64.11970466666665 66.13626966666669 65.13359399999999 65.11600100000003 C 63.49304833333333 63.49061033333335 61.852502666666666 61.86521966666669 60.21195699999999 60.23982900000002 C 62.18971299999999 58.26965066666667 64.16746899999998 56.299472333333355 66.145225 54.32929400000002 C 65.45505099999998 51.80336600000002 64.63558599999999 48.89573200000001 63.94541199999999 46.369804000000016 C 66.17831 45.74396600000003 68.39393 45.21061700000003 70.62682799999999 44.58477900000002 C 70.217836 43.06062000000002 69.955415 41.82567700000001 69.54642299999999 40.301518000000016 C 66.27113533333333 37.029705333333354 62.99584766666665 33.757892666666685 59.72055999999999 30.486080000000015 C 58.967608999999996 27.72463700000002 58.181307000000004 24.929844000000013 57.428355999999994 22.168402000000007 C 59.686814 21.56325000000001 61.978623 20.991449000000017 64.23708099999999 20.386297000000013 C 63.18373366666666 16.488990000000012 62.13038633333334 12.591682999999989 61.077039 8.694375999999995 C 61.561318666666665 8.044643666666673 62.04559833333334 7.39491133333335 62.529878 6.7451790000000065 C 62.529878 4.496786000000024 62.529878 2.2483930000000023 62.529878 0" stroke="green" fill="none"/>
  <path d="M 74.97304 100 C 74.97304 95.83333333333334 74.97304 91.66666666666666 74.97304 87.5 C 74.97304 84.60779666666667 74.97304 81.71559333333335 74.97304 78.82339 C 76.7197 79.295018 78.48754600000001 79.764176 80.234206 80.23580400000002 C 76.948407 76.950573 73.65711499999999 73.652119 70.371316 70.36688799999999 C 69.62951999999999 67.604038 68.872031 64.856882 68.130235 62.09403200000001 C 70.973334 59.244638666666674 73.816433 56.395245333333335 76.659532 53.545852000000004 C 75.01828300000001 51.90735966666667 73.377034 50.26886733333333 71.735785 48.630375 C 73.76592300000002 46.60307933333333 75.79606100000001 44.575783666666666 77.826199 42.54848799999999 C 78.42592499999999 40.31028 78.98487399999999 38.007324000000004 79.5846 35.769116 C 75.51713600000001 34.670061000000004 71.508943 33.654247999999995 67.441478 32.55519200000002 C 72.25822199999999 27.77193 77.03151721703179 22.94521921703179 81.8482612170318 18.161957217031784 C 79.5696842170318 15.735116217031777 75.13403300000002 12.48133199999999 75.00049000000001 12.59570499999999 C 75.00049000000001 12.59570499999999 74.97304 4.638240999999994 74.97304 0" stroke="green" fill="none"/>
  <path d="M 87.489379 100 C 87.489379 95.83233466666667 87.489379 91.66466933333334 87.489379 87.497004 C 85.59359833333335 85.62609866666666 83.69781766666668 83.75519333333334 81.802037 81.884288 C 83.966846 79.771593 85.78357199999999 77.42332900000001 87.489379 75 C 84.600612 75.00333333333334 81.71184500000001 75.00666666666666 78.823078 75.01 C 77.70665966666667 70.84 76.59024133333332 66.67 75.473823 62.5 C 81.4037035 62.5 87.333584 62.5 93.2634645 62.5 C 94.4818119 58.35504 95.0054476 54.18608600000001 95.0330696 50 C 90.0977764 50 85.1624832 50 80.22719 50 C 83.920001 46.30765399999999 87.61281199999999 42.615307 91.3056236 38.922960999999994 C 91.95535596666667 38.438681333333335 92.60508833333334 37.954401666666676 93.2548207 37.470122 C 92.1047543 33.003485999999995 89.89027200000001 28.96422099999999 87.489379 24.999799999999993 C 87.489379 16.666533333333327 87.489379 8.333266666666663 87.489379 0" stroke="green" fill="none"/>
</svg>