<svg viewBox="0 0 100 100" xmlns="http://www.w3.org/2000/svg"
    data-author="Traditional" data-weave-parity="0">
  <title>Eksplosion</title>
  <desc>Strålende farver fra midten der skyder ud i alle retninger.</desc>
  <path d="M 100 24.401 C 100 24.401 53.982 39.28 53.982 39.28 C 53.982 39.28 46.018 39.28 46.018 39.28 C 46.018 39.28 0 24.401 0 24.401" stroke="orange" fill="none"/>
  <path d="M 100 40 C 100 40 53.982 46.077 53.982 46.077 C 53.982 46.077 46.018 46.077 46.018 46.077 C 46.018 46.077 0 40 0 40" stroke="orange" fill="none"/>
  <path d="M 100 60 C 100 60 53.982 53.923 53.982 53.923 C 53.982 53.923 46.018 53.923 46.018 53.923 C 46.018 53.923 0 60 0 60" stroke="orange" fill="none"/>
  <path d="M 100 75.599 C 100 75.599 53.982 60.72 53.982 60.72 C 53.982 60.72 46.018 60.72 46.018 60.72 C 46.018 60.72 0 75.599 0 75.599" stroke="orange" fill="none"/>
  <path d="M 24.401 100 C 24.401 100 39.28 53.982 39.28 53.982 C 39.28 53.982 39.28 46.018 39.28 46.018 C 39.28 46.018 24.401 0 24.401 0" stroke="green" fill="none"/>
  <path d="M 40 100 C 40 100 46.077 53.982 46.077 53.982 C 46.077 53.982 46.077 46.018 46.077 46.018 C 46.077 46.018 40 0 40 0" stroke="green" fill="none"/>
  <path d="M 60 100 C 60 100 53.923 53.982 53.923 53.982 C 53.923 53.982 53.923 46.018 53.923 46.018 C 53.923 46.018 60 0 60 0" stroke="green" fill="none"/>
  <path d="M 75.599 100 C 75.599 100 60.72 53.982 60.72 53.982 C 60.72 53.982 60.72 46.018 60.72 46.018 C 60.72 46.018 75.599 0 75.599 0" stroke="green" fill="none"/>
</svg>
