<?xml version="1.0" encoding="UTF-8" standalone="no"?>
<!-- Created with Inkscape (http://www.inkscape.org/) -->

<svg
   width="100mm"
   height="100mm"
   viewBox="0 0 100 100"
   version="1.1"
   id="svg1"
   xml:space="preserve"
   inkscape:version="1.3 (0e150ed, 2023-07-21)"
   sodipodi:docname="flower.svg"
   xmlns:inkscape="http://www.inkscape.org/namespaces/inkscape"
   xmlns:sodipodi="http://sodipodi.sourceforge.net/DTD/sodipodi-0.dtd"
   xmlns:xlink="http://www.w3.org/1999/xlink"
   xmlns="http://www.w3.org/2000/svg"
   xmlns:svg="http://www.w3.org/2000/svg"
   xmlns:rdf="http://www.w3.org/1999/02/22-rdf-syntax-ns#"
   xmlns:cc="http://creativecommons.org/ns#"
   xmlns:dc="http://purl.org/dc/elements/1.1/"><title
     id="title5">Blomst</title><sodipodi:namedview
     id="namedview1"
     pagecolor="#ffffff"
     bordercolor="#000000"
     borderopacity="0.25"
     inkscape:showpageshadow="2"
     inkscape:pageopacity="0.0"
     inkscape:pagecheckerboard="0"
     inkscape:deskcolor="#d1d1d1"
     inkscape:document-units="mm"
     inkscape:zoom="1.4424933"
     inkscape:cx="155.63331"
     inkscape:cy="148.35424"
     inkscape:window-width="1560"
     inkscape:window-height="1003"
     inkscape:window-x="124"
     inkscape:window-y="85"
     inkscape:window-maximized="0"
     inkscape:current-layer="layer1" /><defs
     id="defs1" /><g
     inkscape:label="Layer 1"
     inkscape:groupmode="layer"
     id="layer1"><path
       style="fill:none;stroke:#ff7800;stroke-width:0.3"
       d="m 34.42133,0.00404127 -0.01,1.20859753 c -0.634615,2.0549115 -3.376413,9.7510702 -3.337367,18.3338142 0.05874,12.912458 4.873664,22.348192 8.68129,27.900235 -5.542838,2.439699 -17.113294,9.684977 -23.538646,23.483371 -4.500107,9.663947 -4.822519,17.609569 -4.927052,21.477296 -0.104534,3.86773 0.759103,7.590647 0.759103,7.590647"
       id="path1"
       sodipodi:nodetypes="ccscssc" /><path
       style="fill:none;stroke:#ff7800;stroke-width:0.3"
       d="m 40.257456,-0.00788959 v 0.49910654 c 0,0 10.399286,9.86144605 14.46417,20.99569405 4.064884,11.134249 2.935467,20.989272 2.935467,20.989272 l -5.852121,0.847585 -4.439916,-3.500176 -2.392031,5.22541 9.907188,9.913426 -2.34386,5.286157 -4.260677,-3.632139 -5.886432,1.122802 c 0,0 -1.36451,11.907706 4.467714,24.190725 5.832226,12.283022 12.953817,17.438116 12.953817,17.438116 l 0.294583,0.727841"
       id="path2"
       sodipodi:nodetypes="ccsccccccccscc" /><path
       style="fill:none;stroke:#ff7800;stroke-width:0.3"
       d="m 65.592202,100.00108 0,-1.431584 c 0,0 2.956179,-5.564345 3.449571,-16.727073 0.384613,-8.701656 -3.790544,-23.360272 -8.88539,-29.235788 2.163546,-0.58818 16.817704,-8.010774 23.262807,-22.787662 6.255656,-14.342537 5.688232,-19.8270746 4.559098,-29.82217019"
       id="path3"
       sodipodi:nodetypes="ccscsc" /><use
       x="0"
       y="0"
       xlink:href="#path1"
       id="use3"
       transform="matrix(0,1,1,0,-0.08231034,0.08230974)"
       style="stroke:#8ff0a4" /><use
       x="0"
       y="0"
       xlink:href="#path2"
       id="use4"
       transform="matrix(0,1,1,0,-0.08231034,0.08230974)"
       style="stroke:#8ff0a4" /><use
       x="0"
       y="0"
       xlink:href="#path3"
       id="use5"
       transform="matrix(0,1,1,0,-0.08231034,0.08230974)"
       style="stroke:#8ff0a4" /></g><metadata
     id="metadata5"><rdf:RDF><cc:Work
         rdf:about=""><dc:title>Blomst</dc:title><dc:creator><cc:Agent><dc:title>Klassisk</dc:title></cc:Agent></dc:creator></cc:Work></rdf:RDF></metadata></svg>
