<svg viewBox="0 0 100 100" xmlns="http://www.w3.org/2000/svg"
  data-source="juleflet.dk" data-exported="2025-12-18T09:57:10.949Z"
  data-author="Traditional" data-weave-parity="0">
  <title>Gaver</title>
  <desc>4 små julegaver</desc>
  <path d="M 100 21.245738562184176 C 100 21.245738562184176 0 21.245738562184176 0 21.245738562184176" stroke="orange" fill="none"/>
  <path d="M 100 29.386297167529417 C 74.99999999999997 29.386297167529417 25.00000000000004 29.386297167529417 0 29.386297167529417" stroke="orange" fill="none"/>
  <path d="M 100 50 C 74.99999999999997 50 25.00000000000004 50 0 50" stroke="orange" fill="none"/>
  <path d="M 100 70.61370283247058 C 74.99999999999997 70.61370283247058 25.00000000000004 70.61370283247058 0 70.61370283247058" stroke="orange" fill="none"/>
  <path d="M 100 78.75426143781581 C 100 78.75426143781581 0 78.75426143781581 0 78.75426143781581" stroke="orange" fill="none"/>
  <path d="M 21.245738562184176 100 C 21.245738562184176 100 21.245738562184176 0 21.245738562184176 0" stroke="green" fill="none"/>
  <path d="M 29.386297167529417 100 C 29.386297167529417 74.99999999999997 29.386297167529417 25.00000000000004 29.386297167529417 0" stroke="green" fill="none"/>
  <path d="M 50 100 C 50 74.99999999999997 50 25.00000000000004 50 0" stroke="green" fill="none"/>
  <path d="M 70.61370283247058 100 C 70.61370283247058 74.99999999999997 70.61370283247058 25.00000000000004 70.61370283247058 0" stroke="green" fill="none"/>
  <path d="M 78.75426143781581 100 C 78.75426143781581 100 78.75426143781581 0 78.75426143781581 0" stroke="green" fill="none"/>
</svg>