<?xml version="1.0" encoding="UTF-8" standalone="no"?>
<!-- Created with Inkscape (http://www.inkscape.org/) -->

<svg
   width="100mm"
   height="100mm"
   viewBox="0 0 100 100"
   version="1.1"
   id="svg1"
   inkscape:version="1.3 (0e150ed, 2023-07-21)"
   sodipodi:docname="h3h5.svg"
   xmlns:inkscape="http://www.inkscape.org/namespaces/inkscape"
   xmlns:sodipodi="http://sodipodi.sourceforge.net/DTD/sodipodi-0.dtd"
   xmlns="http://www.w3.org/2000/svg"
   xmlns:svg="http://www.w3.org/2000/svg">
  <sodipodi:namedview
     id="namedview1"
     pagecolor="#ffffff"
     bordercolor="#000000"
     borderopacity="0.25"
     inkscape:showpageshadow="2"
     inkscape:pageopacity="0.0"
     inkscape:pagecheckerboard="0"
     inkscape:deskcolor="#d1d1d1"
     inkscape:document-units="mm"
     inkscape:zoom="3.3695143"
     inkscape:cx="238.46167"
     inkscape:cy="59.207347"
     inkscape:window-width="1224"
     inkscape:window-height="1046"
     inkscape:window-x="0"
     inkscape:window-y="34"
     inkscape:window-maximized="0"
     inkscape:current-layer="layer1" />
  <defs
     id="defs1" />
  <g
     inkscape:label="Layer 1"
     inkscape:groupmode="layer"
     id="layer1">
    <rect
       style="fill:#ed333b;stroke:none;stroke-width:2.10001;stroke-dasharray:none"
       id="rect85"
       width="16.634314"
       height="16.637011"
       x="-66.616302"
       y="-66.611244"
       transform="scale(-1)" />
    <rect
       style="fill:#ed333b;stroke:none;stroke-width:2.10001;stroke-dasharray:none"
       id="rect87"
       width="16.634314"
       height="16.637011"
       x="-33.347679"
       y="-66.611244"
       transform="scale(-1)" />
    <rect
       style="fill:#ed333b;stroke:none;stroke-width:2.10001;stroke-dasharray:none"
       id="rect88"
       width="16.634314"
       height="16.637011"
       x="-16.713367"
       y="-49.974236"
       transform="scale(-1)" />
    <rect
       style="fill:#ed333b;stroke:none;stroke-width:2.10001;stroke-dasharray:none"
       id="rect89"
       width="16.634314"
       height="16.637011"
       x="-33.347679"
       y="-33.337227"
       transform="scale(-1)" />
    <rect
       style="fill:#ed333b;stroke:none;stroke-width:2.10001;stroke-dasharray:none"
       id="rect90"
       width="16.634314"
       height="16.637011"
       x="-66.616302"
       y="-33.337227"
       transform="scale(-1)" />
    <rect
       style="fill:#ed333b;stroke:none;stroke-width:2.10001;stroke-dasharray:none"
       id="rect91"
       width="16.634314"
       height="16.637011"
       x="-49.981987"
       y="-16.700218"
       transform="scale(-1)" />
    <rect
       style="fill:#ed333b;stroke:none;stroke-width:2.10001;stroke-dasharray:none"
       id="rect92"
       width="16.634314"
       height="16.637011"
       x="-16.713367"
       y="-16.700218"
       transform="scale(-1)" />
    <rect
       style="fill:#deddda;stroke:none;stroke-width:2.10001;stroke-dasharray:none"
       id="rect93"
       width="16.634314"
       height="16.637011"
       x="-66.616302"
       y="-49.974236"
       transform="scale(-1)" />
    <rect
       style="fill:#deddda;stroke:none;stroke-width:2.10001;stroke-dasharray:none"
       id="rect94"
       width="16.634314"
       height="16.637011"
       x="-49.981987"
       y="-66.611244"
       transform="scale(-1)" />
    <rect
       style="fill:#deddda;stroke:none;stroke-width:2.10001;stroke-dasharray:none"
       id="rect97"
       width="16.634314"
       height="16.637011"
       x="-33.347679"
       y="-16.700218"
       transform="scale(-1)" />
    <rect
       style="fill:#deddda;stroke:none;stroke-width:2.10001;stroke-dasharray:none"
       id="rect98"
       width="16.634314"
       height="16.637011"
       x="-16.713367"
       y="-33.337227"
       transform="scale(-1)" />
    <rect
       style="fill:#deddda;stroke:none;stroke-width:2.10001;stroke-dasharray:none"
       id="rect99"
       width="16.634314"
       height="16.637011"
       x="-66.616302"
       y="-16.700218"
       transform="scale(-1)" />
    <rect
       style="fill:#deddda;stroke:none;stroke-width:2.10001;stroke-dasharray:none"
       id="rect100"
       width="16.634314"
       height="16.637011"
       x="-16.713367"
       y="-66.611244"
       transform="scale(-1)" />
    <rect
       style="fill:#ed333b;stroke:none;stroke-width:2.10001;stroke-dasharray:none"
       id="rect110"
       width="16.634314"
       height="16.637011"
       x="-49.981987"
       y="-83.248253"
       transform="scale(-1)" />
    <rect
       style="fill:#ed333b;stroke:none;stroke-width:2.10001;stroke-dasharray:none"
       id="rect111"
       width="16.634314"
       height="16.637011"
       x="-16.713367"
       y="-83.248253"
       transform="scale(-1)" />
    <rect
       style="fill:#deddda;stroke:none;stroke-width:2.10001;stroke-dasharray:none"
       id="rect112"
       width="16.634314"
       height="16.637011"
       x="-33.347679"
       y="-83.248253"
       transform="scale(-1)" />
    <rect
       style="fill:#deddda;stroke:none;stroke-width:2.10001;stroke-dasharray:none"
       id="rect113"
       width="16.634314"
       height="16.637011"
       x="-66.616302"
       y="-83.248253"
       transform="scale(-1)" />
    <rect
       style="fill:#ed333b;stroke:none;stroke-width:2.10001;stroke-dasharray:none"
       id="rect114"
       width="16.634314"
       height="16.637011"
       x="-83.250633"
       y="-83.248253"
       transform="scale(-1)" />
    <rect
       style="fill:#ed333b;stroke:none;stroke-width:2.10001;stroke-dasharray:none"
       id="rect115"
       width="16.634314"
       height="16.637011"
       x="-83.250633"
       y="-49.974236"
       transform="scale(-1)" />
    <rect
       style="fill:#deddda;stroke:none;stroke-width:2.10001;stroke-dasharray:none"
       id="rect116"
       width="16.634314"
       height="16.637011"
       x="-83.250633"
       y="-66.611244"
       transform="scale(-1)" />
    <rect
       style="fill:#deddda;stroke:none;stroke-width:2.10001;stroke-dasharray:none"
       id="rect117"
       width="16.634314"
       height="16.637011"
       x="-83.250633"
       y="-33.337227"
       transform="scale(-1)" />
    <rect
       style="fill:#ed333b;stroke:none;stroke-width:2.10001;stroke-dasharray:none"
       id="rect118"
       width="16.634314"
       height="16.637011"
       x="-83.250633"
       y="-16.700218"
       transform="scale(-1)" />
    <rect
       style="fill:#ed333b;stroke:none;stroke-width:2.10001;stroke-dasharray:none"
       id="rect119"
       width="16.634314"
       height="16.637011"
       x="-49.981987"
       y="-49.974236"
       transform="scale(-1)" />
    <rect
       style="fill:#deddda;stroke:none;stroke-width:2.10001;stroke-dasharray:none"
       id="rect120"
       width="16.634314"
       height="16.637011"
       x="-49.981987"
       y="-33.337227"
       transform="scale(-1)" />
    <rect
       style="fill:#deddda;stroke:none;stroke-width:2.10001;stroke-dasharray:none"
       id="rect121"
       width="16.634314"
       height="16.637011"
       x="-33.347679"
       y="-49.974236"
       transform="scale(-1)" />
    <rect
       style="fill:#ed333b;stroke:none;stroke-width:2.10001;stroke-dasharray:none"
       id="rect389"
       width="16.634314"
       height="16.637011"
       x="-66.688637"
       y="-99.957619"
       transform="scale(-1)" />
    <rect
       style="fill:#ed333b;stroke:none;stroke-width:2.10001;stroke-dasharray:none"
       id="rect390"
       width="16.634314"
       height="16.637011"
       x="-33.42001"
       y="-99.957619"
       transform="scale(-1)" />
    <rect
       style="fill:#deddda;stroke:none;stroke-width:2.10001;stroke-dasharray:none"
       id="rect391"
       width="16.634314"
       height="16.637011"
       x="-50.054317"
       y="-99.957619"
       transform="scale(-1)" />
    <rect
       style="fill:#deddda;stroke:none;stroke-width:2.10001;stroke-dasharray:none"
       id="rect392"
       width="16.634314"
       height="16.637011"
       x="-83.322952"
       y="-99.957619"
       transform="scale(-1)" />
    <rect
       style="fill:#ed333b;stroke:none;stroke-width:2.10001;stroke-dasharray:none"
       id="rect393"
       width="16.634314"
       height="16.637011"
       x="-99.957283"
       y="-99.957619"
       transform="scale(-1)" />
    <rect
       style="fill:#ed333b;stroke:none;stroke-width:2.10001;stroke-dasharray:none"
       id="rect394"
       width="16.634314"
       height="16.637011"
       x="-99.882927"
       y="-66.609222"
       transform="scale(-1)" />
    <rect
       style="fill:#deddda;stroke:none;stroke-width:2.10001;stroke-dasharray:none"
       id="rect395"
       width="16.634314"
       height="16.637011"
       x="-99.882927"
       y="-83.246231"
       transform="scale(-1)" />
    <rect
       style="fill:#deddda;stroke:none;stroke-width:2.10001;stroke-dasharray:none"
       id="rect396"
       width="16.634314"
       height="16.637011"
       x="-99.882927"
       y="-49.972214"
       transform="scale(-1)" />
    <rect
       style="fill:#ed333b;stroke:none;stroke-width:2.10001;stroke-dasharray:none"
       id="rect397"
       width="16.634314"
       height="16.637011"
       x="-99.882927"
       y="-33.335205"
       transform="scale(-1)" />
    <rect
       style="fill:#deddda;stroke:none;stroke-width:2.10001;stroke-dasharray:none"
       id="rect398"
       width="16.634314"
       height="16.637011"
       x="-99.900604"
       y="-16.698372"
       transform="scale(-1)" />
    <rect
       style="fill:#deddda;stroke:none;stroke-width:2.10001;stroke-dasharray:none"
       id="rect399"
       width="16.634314"
       height="16.637011"
       x="-16.77424"
       y="-99.886467"
       transform="scale(-1)" />
    <g
       id="g121"
       transform="matrix(1.3745507,0,0,1.3747736,-193.05505,-129.81084)"
       style="stroke-width:0.727446">
      <rect
         style="fill:#ed333b;stroke:none;stroke-width:1.52765;stroke-dasharray:none"
         id="rect86"
         width="14.857566"
         height="14.857566"
         x="-188.2433"
         y="-141.83467"
         transform="scale(-1)" />
      <rect
         style="fill:#deddda;stroke:none;stroke-width:1.52765;stroke-dasharray:none"
         id="rect95"
         width="14.857566"
         height="14.857566"
         x="-188.2433"
         y="-126.9771"
         transform="scale(-1)" />
      <rect
         style="fill:#deddda;stroke:none;stroke-width:1.52765;stroke-dasharray:none"
         id="rect96"
         width="14.857566"
         height="14.857566"
         x="-173.38574"
         y="-141.83467"
         transform="scale(-1)" />
      <rect
         style="fill:#ed333b;stroke:none;stroke-width:1.52765;stroke-dasharray:none"
         id="rect101"
         width="10.826689"
         height="10.826689"
         x="-186.31227"
         y="-151.1564"
         transform="scale(-1)" />
      <rect
         style="fill:#ed333b;stroke:none;stroke-width:1.52765;stroke-dasharray:none"
         id="rect102"
         width="10.826689"
         height="10.826689"
         x="-175.48558"
         y="-140.32973"
         transform="scale(-1)" />
      <rect
         style="fill:#ed333b;stroke:none;stroke-width:1.52765;stroke-dasharray:none"
         id="rect103"
         width="10.826689"
         height="10.826689"
         x="-197.13898"
         y="-140.32973"
         transform="scale(-1)" />
      <rect
         style="fill:#ed333b;stroke:none;stroke-width:1.52765;stroke-dasharray:none"
         id="rect104"
         width="10.826689"
         height="10.826689"
         x="-186.31227"
         y="-129.50304"
         transform="scale(-1)" />
      <rect
         style="fill:#deddda;stroke:none;stroke-width:1.52765;stroke-dasharray:none"
         id="rect105"
         width="10.826689"
         height="10.826689"
         x="-197.13898"
         y="-151.1564"
         transform="scale(-1)" />
      <rect
         style="fill:#deddda;stroke:none;stroke-width:1.52765;stroke-dasharray:none"
         id="rect106"
         width="10.826689"
         height="10.826689"
         x="-186.31227"
         y="-140.32973"
         transform="scale(-1)" />
      <rect
         style="fill:#deddda;stroke:none;stroke-width:1.52765;stroke-dasharray:none"
         id="rect107"
         width="10.826689"
         height="10.826689"
         x="-175.48558"
         y="-151.1564"
         transform="scale(-1)" />
      <rect
         style="fill:#deddda;stroke:none;stroke-width:1.52765;stroke-dasharray:none"
         id="rect108"
         width="10.826689"
         height="10.826689"
         x="-175.48558"
         y="-129.50304"
         transform="scale(-1)" />
      <rect
         style="fill:#deddda;stroke:none;stroke-width:1.52765;stroke-dasharray:none"
         id="rect109"
         width="10.826689"
         height="10.826689"
         x="-197.13898"
         y="-129.50304"
         transform="scale(-1)" />
      <path
         id="path109"
         style="fill:#ed333b;fill-opacity:1;stroke:none;stroke-width:1.52765;stroke-dasharray:none"
         d="m 164.9018,118.7575 a 16.247982,16.247982 0 0 0 -16.24755,16.24812 16.247982,16.247982 0 0 0 16.24755,16.24812 z" />
      <path
         id="path110"
         style="fill:#deddda;stroke:none;stroke-width:1.52765;stroke-dasharray:none"
         d="m 164.87308,118.78623 a 16.081569,16.081569 0 0 1 16.08169,-16.08114 16.081569,16.081569 0 0 1 16.0817,16.08114 z" />
    </g>
    <path
       style="fill:none;fill-opacity:1;stroke:#986a44;stroke-width:0.4;stroke-dasharray:none;stroke-opacity:1"
       d="M 16.540598,0.19900027 C 16.276631,12.686475 17.376117,28.785266 16.711472,41.257399 l -3.056104,4.867058 c -2.46225,5.426405 -2.816481,8.558422 -2.605644,12.809424 0.210844,4.251003 4.193793,8.32946 5.769611,12.572005 -0.637878,7.178202 0.719755,17.865349 0.177041,28.305972"
       id="path399"
       sodipodi:nodetypes="ccczcc" />
    <path
       style="fill:none;fill-opacity:1;stroke:#f6d32d;stroke-width:0.4;stroke-dasharray:none;stroke-opacity:1"
       d="M -0.84833014,16.911468 41.409022,16.740819 c 2.550369,-2.361246 4.825122,-3.724541 8.585052,-4.598411 l 13.02439,12.051229 14.948834,9.293259 C 75.31948,27.834223 74.145306,20.707907 69.849932,16.70279 l 30.260358,0.08417"
       id="path400"
       sodipodi:nodetypes="ccccccc" />
    <path
       style="fill:none;fill-opacity:1;stroke:#1a5fb4;stroke-width:0.4;stroke-dasharray:none;stroke-opacity:1"
       d="m 33.163925,-0.05642194 -0.01943,21.84310094 0.204284,10.907669 -0.01958,0.53725 c -4.927115,0.627952 -5.564888,0.812849 -8.982943,2.410112 l 9.239444,12.36005 -0.06206,-7.607513 14.679752,-0.09725 -0.153501,8.564117 0.03494,29.169903 -15.255553,-0.277201 0.19761,8.833508 -0.185588,13.804754"
       id="path401"
       sodipodi:nodetypes="ccccccccccccc" />
    <path
       style="fill:none;fill-opacity:1;stroke:#33d17a;stroke-width:0.4;stroke-dasharray:none;stroke-opacity:1"
       d="m -0.44456767,33.488094 16.84892967,0.02769 8.0965,-0.498695 8.938959,-0.08505 0.126905,7.417437 14.509412,-0.05225 -0.0098,-6.841737 52.188843,-0.173913"
       id="path503"
       sodipodi:nodetypes="cccccccc" />
    <path
       style="fill:none;fill-opacity:1;stroke:#1a5fb4;stroke-width:0.4;stroke-dasharray:none;stroke-opacity:1"
       d="M 49.751232,0.16801201 49.969275,12.229591 62.908397,24.006555 63.325159,48.31792 63.213737,78.187047 50.390397,78.584633 50.202912,100.13604"
       id="path504"
       sodipodi:nodetypes="ccccccc" />
    <path
       style="fill:none;fill-opacity:1;stroke:#c061cb;stroke-width:0.4;stroke-dasharray:none;stroke-opacity:1"
       d="m 0.05666431,50.108388 11.93117069,0.03251 c 1.553507,-4.363016 5.454294,-11.802674 12.300279,-14.547145 l 9.39414,12.535805 22.169794,0.0186 c 7.660985,1.019619 15.272705,-0.04828 21.96098,0.101999 l -0.0861,1.845313 22.03593,-0.189985"
       id="path546"
       sodipodi:nodetypes="cccccccc" />
    <path
       style="fill:none;fill-opacity:1;stroke:#000000;stroke-width:0.4;stroke-dasharray:none;stroke-opacity:1"
       d="M 82.941097,0.26449483 83.044291,100.06212"
       id="path547" />
    <path
       style="fill:none;fill-opacity:1;stroke:#000000;stroke-width:0.4;stroke-dasharray:none;stroke-opacity:1"
       d="m 66.618241,0.12608261 0.08981,14.15695839 c 7.386174,4.40309 7.581081,11.693922 11.383284,19.316116 l -0.623211,28.587915 0.03787,15.804333 -6.436174,0.03934 -4.037122,-0.01783 -0.291826,21.842833"
       id="path548"
       sodipodi:nodetypes="cccccccc" />
    <path
       style="fill:none;fill-opacity:1;stroke:#62a0ea;stroke-width:0.4;stroke-dasharray:none;stroke-opacity:1"
       d="M -0.5761184,83.197566 99.994686,83.408445"
       id="path549" />
    <path
       style="fill:none;fill-opacity:1;stroke:#f6d32d;stroke-width:0.4;stroke-dasharray:none;stroke-opacity:1"
       d="m -0.78695566,66.74936 13.91545366,-0.210878 3.373444,4.42836 8.749873,5.799048 7.737899,1.021212 -0.175578,-15.425915 15.145739,1.402756 23.315776,-0.736241 7.044555,-0.03591 0.101571,3.378979 4.520783,0.244972 17.15753,-0.393571"
       id="path550"
       sodipodi:nodetypes="cccccccccccc" />
  </g>
</svg>
