<?xml version="1.0" encoding="UTF-8" standalone="no"?>
<!-- Created with Inkscape (http://www.inkscape.org/) -->

<svg
   width="100mm"
   height="100mm"
   viewBox="0 0 100 100"
   version="1.1"
   id="svg1"
   xml:space="preserve"
   inkscape:version="1.3 (0e150ed, 2023-07-21)"
   sodipodi:docname="jul.svg"
   xmlns:inkscape="http://www.inkscape.org/namespaces/inkscape"
   xmlns:sodipodi="http://sodipodi.sourceforge.net/DTD/sodipodi-0.dtd"
   xmlns="http://www.w3.org/2000/svg"
   xmlns:svg="http://www.w3.org/2000/svg"
   xmlns:rdf="http://www.w3.org/1999/02/22-rdf-syntax-ns#"
   xmlns:cc="http://creativecommons.org/ns#"
   xmlns:dc="http://purl.org/dc/elements/1.1/"><title
     id="title8">JUL</title><sodipodi:namedview
     id="namedview1"
     pagecolor="#ffffff"
     bordercolor="#000000"
     borderopacity="0.25"
     inkscape:showpageshadow="2"
     inkscape:pageopacity="0.0"
     inkscape:pagecheckerboard="0"
     inkscape:deskcolor="#d1d1d1"
     inkscape:document-units="mm"
     inkscape:zoom="0.9935739"
     inkscape:cx="57.87189"
     inkscape:cy="68.439801"
     inkscape:window-width="1536"
     inkscape:window-height="979"
     inkscape:window-x="0"
     inkscape:window-y="34"
     inkscape:window-maximized="0"
     inkscape:current-layer="layer1" /><defs
     id="defs1" /><g
     inkscape:label="Layer 1"
     inkscape:groupmode="layer"
     id="layer1"><path
       style="fill:none;stroke:#c01c28;stroke-width:0.3"
       d="M 100.09174,19.857382 H 78.832352 l -1.630114,1.698034 4.890338,5.02618 -13.176744,13.380508 -13.24737,-13.408073 4.935405,-4.935406 -1.627997,-1.679409 -59.10762123,0.05552"
       id="path1" /><path
       style="fill:none;stroke:#c01c28;stroke-width:0.3"
       d="m 0.02383477,39.805849 39.11876823,0.118811 1.573049,1.607619 -4.926579,5.01301 8.815983,8.798695 c 1.591531,1.374504 6.007722,2.680292 9.199955,-0.298009 3.756487,-3.504742 2.046841,-8.384272 0.494687,-9.996124 l -8.541363,-8.516387 3.259206,-3.259207 8.279127,8.27913 3.359105,-3.359105 8.27913,8.27913 8.304104,-8.304104 1.648333,1.648333 h 21.266"
       id="path2"
       sodipodi:nodetypes="cccccsccccccccc" /><path
       style="fill:none;stroke:#8ff0a4;stroke-width:0.3"
       d="M 0.08781177,59.777345 H 19.164964 l 1.637475,1.637474 8.359136,-8.359134 8.301882,8.301881 3.263498,-3.263498 c 1.530645,1.381657 3.752306,3.452907 8.370588,3.446711 4.292656,-0.0058 6.913009,-2.079922 8.267528,-3.458162 l 1.671828,1.671825 h 41.200241"
       id="path3"
       sodipodi:nodetypes="ccccccsccc" /><path
       style="fill:none;stroke:#c01c28;stroke-width:0.3"
       d="M 0.10749777,79.671683 H 19.166756 l 1.636219,-1.636221 -4.944619,-4.944617 13.341481,-13.341483 8.396861,8.504746 c 0.697129,0.697129 0.665842,2.354871 0,3.020713 l -6.895494,6.895494 c -0.936293,0.936293 -2.552075,0.540563 -3.209509,-0.116871 l -3.281428,3.281428 c 0,0 1.483386,2.05876 4.917648,2.05876 3.434263,0 4.513088,-1.63622 4.513088,-1.63622 l 3.757911,-3.757909 1.681171,1.68117 h 61.077345"
       id="path4"
       sodipodi:nodetypes="ccccccccccscccc" /><path
       style="fill:none;stroke:#26a269;stroke-width:0.3"
       d="m 19.059133,99.930102 v -20.22347 l 1.668492,-1.668492 -8.290358,-8.290359 8.365514,-8.340103 -1.641095,-1.631167 V -0.17362123"
       id="path5" /><path
       style="fill:none;stroke:#26a269;stroke-width:0.3"
       d="m 38.996117,99.806945 0.07746,-20.1354 -1.670145,-1.670145 3.394377,-3.394377 c 2.402225,-2.402225 2.674007,-6.615321 0,-9.795526 l -3.340676,-3.462909 3.260171,-3.260171 -8.298898,-8.298898 8.29704,-8.257788 -1.576776,-1.60955 V -0.16547123"
       id="path6"
       sodipodi:nodetypes="ccccccccccc" /><path
       style="fill:none;stroke:#26a269;stroke-width:0.3"
       d="M 58.90651,99.818246 59.030171,59.75267 57.362565,58.080916 c 4.377738,-4.377738 4.411571,-12.052092 -0.06689,-16.530553 l 3.357158,-3.356509 -8.307885,-8.304557 8.256389,-8.269382 -1.62813,-1.681556 V -0.17942123"
       id="path7"
       sodipodi:nodetypes="ccccccccc" /><path
       style="fill:none;stroke:#26a269;stroke-width:0.3"
       d="m 78.815476,99.814107 0.01913,-60.024821 -1.607553,-1.62669 8.257839,-8.257836 -8.286686,-8.351502 1.633767,-1.695656 V -0.18369123"
       id="path8" /></g><metadata
     id="metadata8"><rdf:RDF><cc:Work
         rdf:about=""><dc:title>JUL</dc:title><dc:creator><cc:Agent><dc:title>Gerth Stølting Brodal</dc:title></cc:Agent></dc:creator><dc:date>2012</dc:date><dc:description>Se https://cs.au.dk/~gerth/julehjerter/index.php for flere hjerter med tekst</dc:description></cc:Work></rdf:RDF></metadata></svg>
