<svg viewBox="0 0 100 100" xmlns="http://www.w3.org/2000/svg" data-author="Thomas" data-weave-parity="1">
  <title>Juletræ</title>
  <path d="M 100 7.477 C 100 7.477 0 7.477 0 7.477" stroke="orange" fill="none"/>
  <path d="M 100 78.809 C 99.269 78.761 73.153 79.751 73.153 79.751 C 73.153 79.751 66.488 73.261 66.488 73.261 C 66.488 73.261 37.756 87.703 37.756 87.703 C 37.756 87.703 41.388 56.667 41.388 56.667 C 41.388 56.667 27.704 75.517 27.704 75.517 C 27.704 75.517 30.183 45.185 30.183 45.185 C 30.183 45.185 21.565 62.392 21.565 62.392 C 21.565 62.392 22.077 29.019 22.077 29.019 C 22.077 29.019 15.157 38.457 15.157 38.457 C 15.157 38.457 15.381 15.671 15.381 15.671 C 15.381 15.671 5.528 16.308 0 15.939" stroke="orange" fill="none"/>
  <path d="M 100 92.523 C 100 92.523 0 92.523 0 92.523" stroke="orange" fill="none"/>
  <path d="M 7.477 100 C 7.477 100 7.477 0 7.477 0" stroke="green" fill="none"/>
  <path d="M 78.809 100 C 78.761 99.269 79.751 73.153 79.751 73.153 C 79.751 73.153 73.261 66.488 73.261 66.488 C 73.261 66.488 87.703 37.756 87.703 37.756 C 87.703 37.756 56.667 41.388 56.667 41.388 C 56.667 41.388 75.517 27.704 75.517 27.704 C 75.517 27.704 45.185 30.183 45.185 30.183 C 45.185 30.183 62.392 21.565 62.392 21.565 C 62.392 21.565 29.019 22.077 29.019 22.077 C 29.019 22.077 38.457 15.157 38.457 15.157 C 38.457 15.157 15.671 15.381 15.671 15.381 C 15.671 15.381 16.308 5.528 15.939 0" stroke="green" fill="none"/>
  <path d="M 92.523 100 C 92.523 100 92.523 0 92.523 0" stroke="green" fill="none"/>
</svg>
