<?xml version="1.0" encoding="UTF-8" standalone="no"?>
<!-- Created with Inkscape (http://www.inkscape.org/) -->

<svg
   width="100mm"
   height="100mm"
   viewBox="0 0 100 100"
   version="1.1"
   id="svg1"
   inkscape:version="1.3 (0e150ed, 2023-07-21)"
   sodipodi:docname="khatam.svg"
   xmlns:inkscape="http://www.inkscape.org/namespaces/inkscape"
   xmlns:sodipodi="http://sodipodi.sourceforge.net/DTD/sodipodi-0.dtd"
   xmlns="http://www.w3.org/2000/svg"
   xmlns:svg="http://www.w3.org/2000/svg"
   xmlns:rdf="http://www.w3.org/1999/02/22-rdf-syntax-ns#"
   xmlns:cc="http://creativecommons.org/ns#"
   xmlns:dc="http://purl.org/dc/elements/1.1/">
  <title
     id="title59">Khatam</title>
  <sodipodi:namedview
     id="namedview1"
     pagecolor="#ffffff"
     bordercolor="#000000"
     borderopacity="0.25"
     inkscape:showpageshadow="2"
     inkscape:pageopacity="0.0"
     inkscape:pagecheckerboard="0"
     inkscape:deskcolor="#d1d1d1"
     inkscape:document-units="mm"
     inkscape:zoom="1.498107"
     inkscape:cx="113.14279"
     inkscape:cy="198.2502"
     inkscape:window-width="1624"
     inkscape:window-height="937"
     inkscape:window-x="0"
     inkscape:window-y="33"
     inkscape:window-maximized="0"
     inkscape:current-layer="svg1" />
  <defs
     id="defs1" />
  <g
     inkscape:label="Layer 1"
     inkscape:groupmode="layer"
     id="layer1"
     style="display:none">
    <path
       sodipodi:type="star"
       style="display:inline;fill:none;stroke:none;stroke-width:0.627833;stroke-opacity:0.495935"
       id="path43"
       inkscape:flatsided="false"
       sodipodi:sides="8"
       sodipodi:cx="65.06131"
       sodipodi:cy="58.460888"
       sodipodi:r1="27.89621"
       sodipodi:r2="36.318249"
       sodipodi:arg1="0.3887561"
       sodipodi:arg2="0.78358268"
       inkscape:rounded="0"
       inkscape:randomized="0"
       d="M 90.87594,69.034601 90.788771,84.095102 75.838265,84.191332 65.127245,94.779077 54.487597,84.275518 39.427095,84.188349 39.330866,69.237843 28.743121,58.526823 39.24668,47.887175 l 0.08717,-15.060502 14.950505,-0.09623 10.711021,-10.587745 10.639648,10.503559 15.060501,0.08717 0.09623,14.950505 10.587746,10.711021 z"
       transform="matrix(0.4716485,-0.07663534,0.0766353,0.47164826,6.0980311,72.932869)" />
    <path
       sodipodi:type="star"
       style="display:inline;fill:none;stroke:none;stroke-width:0.627833;stroke-opacity:0.495935"
       id="path1"
       inkscape:flatsided="false"
       sodipodi:sides="8"
       sodipodi:cx="65.06131"
       sodipodi:cy="58.460888"
       sodipodi:r1="27.89621"
       sodipodi:r2="36.318249"
       sodipodi:arg1="0.3887561"
       sodipodi:arg2="0.78358268"
       inkscape:rounded="0"
       inkscape:randomized="0"
       d="M 90.87594,69.034601 90.788771,84.095102 75.838265,84.191332 65.127245,94.779077 54.487597,84.275518 39.427095,84.188349 39.330866,69.237843 28.743121,58.526823 39.24668,47.887175 l 0.08717,-15.060502 14.950505,-0.09623 10.711021,-10.587745 10.639648,10.503559 15.060501,0.08717 0.09623,14.950505 10.587746,10.711021 z"
       transform="matrix(0.4716485,-0.07663534,0.0766353,0.47164826,27.526568,51.779277)" />
    <path
       sodipodi:type="star"
       style="display:inline;fill:none;stroke:none;stroke-width:0.627833;stroke-opacity:0.495935"
       id="path2"
       inkscape:flatsided="false"
       sodipodi:sides="8"
       sodipodi:cx="65.06131"
       sodipodi:cy="58.460888"
       sodipodi:r1="27.89621"
       sodipodi:r2="36.318249"
       sodipodi:arg1="0.3887561"
       sodipodi:arg2="0.78358268"
       inkscape:rounded="0"
       inkscape:randomized="0"
       d="M 90.87594,69.034601 90.788771,84.095102 75.838265,84.191332 65.127245,94.779077 54.487597,84.275518 39.427095,84.188349 39.330866,69.237843 28.743121,58.526823 39.24668,47.887175 l 0.08717,-15.060502 14.950505,-0.09623 10.711021,-10.587745 10.639648,10.503559 15.060501,0.08717 0.09623,14.950505 10.587746,10.711021 z"
       transform="matrix(0.4716485,-0.07663534,0.0766353,0.47164826,27.25163,94.361392)" />
    <path
       sodipodi:type="star"
       style="display:inline;fill:none;stroke:none;stroke-width:0.627833;stroke-opacity:0.495935"
       id="path3"
       inkscape:flatsided="false"
       sodipodi:sides="8"
       sodipodi:cx="65.06131"
       sodipodi:cy="58.460888"
       sodipodi:r1="27.89621"
       sodipodi:r2="36.318249"
       sodipodi:arg1="0.3887561"
       sodipodi:arg2="0.78358268"
       inkscape:rounded="0"
       inkscape:randomized="0"
       d="M 90.87594,69.034601 90.788771,84.095102 75.838265,84.191332 65.127245,94.779077 54.487597,84.275518 39.427095,84.188349 39.330866,69.237843 28.743121,58.526823 39.24668,47.887175 l 0.08717,-15.060502 14.950505,-0.09623 10.711021,-10.587745 10.639648,10.503559 15.060501,0.08717 0.09623,14.950505 10.587746,10.711021 z"
       transform="matrix(0.4716485,-0.07663534,0.0766353,0.47164826,48.680167,73.2078)" />
    <path
       sodipodi:type="star"
       style="display:inline;fill:none;stroke:none;stroke-width:0.627833;stroke-opacity:0.495935"
       id="path4"
       inkscape:flatsided="false"
       sodipodi:sides="8"
       sodipodi:cx="65.06131"
       sodipodi:cy="58.460888"
       sodipodi:r1="27.89621"
       sodipodi:r2="36.318249"
       sodipodi:arg1="0.3887561"
       sodipodi:arg2="0.78358268"
       inkscape:rounded="0"
       inkscape:randomized="0"
       d="M 90.87594,69.034601 90.788771,84.095102 75.838265,84.191332 65.127245,94.779077 54.487597,84.275518 39.427095,84.188349 39.330866,69.237843 28.743121,58.526823 39.24668,47.887175 l 0.08717,-15.060502 14.950505,-0.09623 10.711021,-10.587745 10.639648,10.503559 15.060501,0.08717 0.09623,14.950505 10.587746,10.711021 z"
       transform="matrix(0.4716485,-0.07663534,0.0766353,0.47164826,48.955105,30.625685)" />
    <path
       sodipodi:type="star"
       style="display:inline;fill:none;stroke:none;stroke-width:0.627833;stroke-opacity:0.495935"
       id="path5"
       inkscape:flatsided="false"
       sodipodi:sides="8"
       sodipodi:cx="65.06131"
       sodipodi:cy="58.460888"
       sodipodi:r1="27.89621"
       sodipodi:r2="36.318249"
       sodipodi:arg1="0.3887561"
       sodipodi:arg2="0.78358268"
       inkscape:rounded="0"
       inkscape:randomized="0"
       d="M 90.87594,69.034601 90.788771,84.095102 75.838265,84.191332 65.127245,94.779077 54.487597,84.275518 39.427095,84.188349 39.330866,69.237843 28.743121,58.526823 39.24668,47.887175 l 0.08717,-15.060502 14.950505,-0.09623 10.711021,-10.587745 10.639648,10.503559 15.060501,0.08717 0.09623,14.950505 10.587746,10.711021 z"
       transform="matrix(0.4716485,-0.07663534,0.0766353,0.47164826,70.383643,9.472093)" />
    <path
       sodipodi:type="star"
       style="display:inline;fill:none;stroke:none;stroke-width:0.627833;stroke-opacity:0.495935"
       id="path6"
       inkscape:flatsided="false"
       sodipodi:sides="8"
       sodipodi:cx="65.06131"
       sodipodi:cy="58.460888"
       sodipodi:r1="27.89621"
       sodipodi:r2="36.318249"
       sodipodi:arg1="0.3887561"
       sodipodi:arg2="0.78358268"
       inkscape:rounded="0"
       inkscape:randomized="0"
       d="M 90.87594,69.034601 90.788771,84.095102 75.838265,84.191332 65.127245,94.779077 54.487597,84.275518 39.427095,84.188349 39.330866,69.237843 28.743121,58.526823 39.24668,47.887175 l 0.08717,-15.060502 14.950505,-0.09623 10.711021,-10.587745 10.639648,10.503559 15.060501,0.08717 0.09623,14.950505 10.587746,10.711021 z"
       transform="matrix(0.4716485,-0.07663534,0.0766353,0.47164826,70.108703,52.054208)" />
    <path
       sodipodi:type="star"
       style="display:inline;fill:none;stroke:none;stroke-width:0.627833;stroke-opacity:0.495935"
       id="path7"
       inkscape:flatsided="false"
       sodipodi:sides="8"
       sodipodi:cx="65.06131"
       sodipodi:cy="58.460888"
       sodipodi:r1="27.89621"
       sodipodi:r2="36.318249"
       sodipodi:arg1="0.3887561"
       sodipodi:arg2="0.78358268"
       inkscape:rounded="0"
       inkscape:randomized="0"
       d="M 90.87594,69.034601 90.788771,84.095102 75.838265,84.191332 65.127245,94.779077 54.487597,84.275518 39.427095,84.188349 39.330866,69.237843 28.743121,58.526823 39.24668,47.887175 l 0.08717,-15.060502 14.950505,-0.09623 10.711021,-10.587745 10.639648,10.503559 15.060501,0.08717 0.09623,14.950505 10.587746,10.711021 z"
       transform="matrix(0.4716485,-0.07663534,0.0766353,0.47164826,91.537243,30.900616)" />
    <path
       sodipodi:type="star"
       style="display:inline;fill:none;stroke:none;stroke-width:0.627833;stroke-opacity:0.495935"
       id="path8"
       inkscape:flatsided="false"
       sodipodi:sides="8"
       sodipodi:cx="65.06131"
       sodipodi:cy="58.460888"
       sodipodi:r1="27.89621"
       sodipodi:r2="36.318249"
       sodipodi:arg1="0.3887561"
       sodipodi:arg2="0.78358268"
       inkscape:rounded="0"
       inkscape:randomized="0"
       d="M 90.87594,69.034601 90.788771,84.095102 75.838265,84.191332 65.127245,94.779077 54.487597,84.275518 39.427095,84.188349 39.330866,69.237843 28.743121,58.526823 39.24668,47.887175 l 0.08717,-15.060502 14.950505,-0.09623 10.711021,-10.587745 10.639648,10.503559 15.060501,0.08717 0.09623,14.950505 10.587746,10.711021 z"
       transform="matrix(0.4716485,-0.07663534,0.0766353,0.47164826,48.405228,115.78992)" />
    <path
       sodipodi:type="star"
       style="display:inline;fill:none;stroke:none;stroke-width:0.627833;stroke-opacity:0.495935"
       id="path9"
       inkscape:flatsided="false"
       sodipodi:sides="8"
       sodipodi:cx="65.06131"
       sodipodi:cy="58.460888"
       sodipodi:r1="27.89621"
       sodipodi:r2="36.318249"
       sodipodi:arg1="0.3887561"
       sodipodi:arg2="0.78358268"
       inkscape:rounded="0"
       inkscape:randomized="0"
       d="M 90.87594,69.034601 90.788771,84.095102 75.838265,84.191332 65.127245,94.779077 54.487597,84.275518 39.427095,84.188349 39.330866,69.237843 28.743121,58.526823 39.24668,47.887175 l 0.08717,-15.060502 14.950505,-0.09623 10.711021,-10.587745 10.639648,10.503559 15.060501,0.08717 0.09623,14.950505 10.587746,10.711021 z"
       transform="matrix(0.4716485,-0.07663534,0.0766353,0.47164826,69.833763,94.636323)" />
    <path
       sodipodi:type="star"
       style="display:inline;fill:none;stroke:none;stroke-width:0.627833;stroke-opacity:0.495935"
       id="path10"
       inkscape:flatsided="false"
       sodipodi:sides="8"
       sodipodi:cx="65.06131"
       sodipodi:cy="58.460888"
       sodipodi:r1="27.89621"
       sodipodi:r2="36.318249"
       sodipodi:arg1="0.3887561"
       sodipodi:arg2="0.78358268"
       inkscape:rounded="0"
       inkscape:randomized="0"
       d="M 90.87594,69.034601 90.788771,84.095102 75.838265,84.191332 65.127245,94.779077 54.487597,84.275518 39.427095,84.188349 39.330866,69.237843 28.743121,58.526823 39.24668,47.887175 l 0.08717,-15.060502 14.950505,-0.09623 10.711021,-10.587745 10.639648,10.503559 15.060501,0.08717 0.09623,14.950505 10.587746,10.711021 z"
       transform="matrix(0.4716485,-0.07663534,0.0766353,0.47164826,69.558823,137.21844)" />
    <path
       sodipodi:type="star"
       style="display:inline;fill:none;stroke:none;stroke-width:0.627833;stroke-opacity:0.495935"
       id="path11"
       inkscape:flatsided="false"
       sodipodi:sides="8"
       sodipodi:cx="65.06131"
       sodipodi:cy="58.460888"
       sodipodi:r1="27.89621"
       sodipodi:r2="36.318249"
       sodipodi:arg1="0.3887561"
       sodipodi:arg2="0.78358268"
       inkscape:rounded="0"
       inkscape:randomized="0"
       d="M 90.87594,69.034601 90.788771,84.095102 75.838265,84.191332 65.127245,94.779077 54.487597,84.275518 39.427095,84.188349 39.330866,69.237843 28.743121,58.526823 39.24668,47.887175 l 0.08717,-15.060502 14.950505,-0.09623 10.711021,-10.587745 10.639648,10.503559 15.060501,0.08717 0.09623,14.950505 10.587746,10.711021 z"
       transform="matrix(0.4716485,-0.07663534,0.0766353,0.47164826,90.987363,116.06485)" />
    <path
       sodipodi:type="star"
       style="display:inline;fill:none;stroke:none;stroke-width:0.627833;stroke-opacity:0.495935"
       id="path12"
       inkscape:flatsided="false"
       sodipodi:sides="8"
       sodipodi:cx="65.06131"
       sodipodi:cy="58.460888"
       sodipodi:r1="27.89621"
       sodipodi:r2="36.318249"
       sodipodi:arg1="0.3887561"
       sodipodi:arg2="0.78358268"
       inkscape:rounded="0"
       inkscape:randomized="0"
       d="M 90.87594,69.034601 90.788771,84.095102 75.838265,84.191332 65.127245,94.779077 54.487597,84.275518 39.427095,84.188349 39.330866,69.237843 28.743121,58.526823 39.24668,47.887175 l 0.08717,-15.060502 14.950505,-0.09623 10.711021,-10.587745 10.639648,10.503559 15.060501,0.08717 0.09623,14.950505 10.587746,10.711021 z"
       transform="matrix(0.4716485,-0.07663534,0.0766353,0.47164826,91.262303,73.482731)" />
    <path
       sodipodi:type="star"
       style="display:inline;fill:none;stroke:none;stroke-width:0.627833;stroke-opacity:0.495935"
       id="path13"
       inkscape:flatsided="false"
       sodipodi:sides="8"
       sodipodi:cx="65.06131"
       sodipodi:cy="58.460888"
       sodipodi:r1="27.89621"
       sodipodi:r2="36.318249"
       sodipodi:arg1="0.3887561"
       sodipodi:arg2="0.78358268"
       inkscape:rounded="0"
       inkscape:randomized="0"
       d="M 90.87594,69.034601 90.788771,84.095102 75.838265,84.191332 65.127245,94.779077 54.487597,84.275518 39.427095,84.188349 39.330866,69.237843 28.743121,58.526823 39.24668,47.887175 l 0.08717,-15.060502 14.950505,-0.09623 10.711021,-10.587745 10.639648,10.503559 15.060501,0.08717 0.09623,14.950505 10.587746,10.711021 z"
       transform="matrix(0.4716485,-0.07663534,0.0766353,0.47164826,112.69084,52.329139)" />
    <path
       sodipodi:type="star"
       style="display:inline;fill:none;stroke:none;stroke-width:0.627833;stroke-opacity:0.495935"
       id="path14"
       inkscape:flatsided="false"
       sodipodi:sides="8"
       sodipodi:cx="65.06131"
       sodipodi:cy="58.460888"
       sodipodi:r1="27.89621"
       sodipodi:r2="36.318249"
       sodipodi:arg1="0.3887561"
       sodipodi:arg2="0.78358268"
       inkscape:rounded="0"
       inkscape:randomized="0"
       d="M 90.87594,69.034601 90.788771,84.095102 75.838265,84.191332 65.127245,94.779077 54.487597,84.275518 39.427095,84.188349 39.330866,69.237843 28.743121,58.526823 39.24668,47.887175 l 0.08717,-15.060502 14.950505,-0.09623 10.711021,-10.587745 10.639648,10.503559 15.060501,0.08717 0.09623,14.950505 10.587746,10.711021 z"
       transform="matrix(0.4716485,-0.07663534,0.0766353,0.47164826,112.4159,94.911254)" />
    <path
       sodipodi:type="star"
       style="display:inline;fill:none;stroke:none;stroke-width:0.627833;stroke-opacity:0.495935"
       id="path15"
       inkscape:flatsided="false"
       sodipodi:sides="8"
       sodipodi:cx="65.06131"
       sodipodi:cy="58.460888"
       sodipodi:r1="27.89621"
       sodipodi:r2="36.318249"
       sodipodi:arg1="0.3887561"
       sodipodi:arg2="0.78358268"
       inkscape:rounded="0"
       inkscape:randomized="0"
       d="M 90.87594,69.034601 90.788771,84.095102 75.838265,84.191332 65.127245,94.779077 54.487597,84.275518 39.427095,84.188349 39.330866,69.237843 28.743121,58.526823 39.24668,47.887175 l 0.08717,-15.060502 14.950505,-0.09623 10.711021,-10.587745 10.639648,10.503559 15.060501,0.08717 0.09623,14.950505 10.587746,10.711021 z"
       transform="matrix(0.4716485,-0.07663534,0.0766353,0.47164826,133.84444,73.757662)" />
    <path
       sodipodi:type="star"
       style="display:inline;fill:none;stroke:none;stroke-width:0.627833;stroke-opacity:0.495935"
       id="path16"
       inkscape:flatsided="false"
       sodipodi:sides="8"
       sodipodi:cx="65.06131"
       sodipodi:cy="58.460888"
       sodipodi:r1="27.89621"
       sodipodi:r2="36.318249"
       sodipodi:arg1="0.3887561"
       sodipodi:arg2="0.78358268"
       inkscape:rounded="0"
       inkscape:randomized="0"
       d="M 90.87594,69.034601 90.788771,84.095102 75.838265,84.191332 65.127245,94.779077 54.487597,84.275518 39.427095,84.188349 39.330866,69.237843 28.743121,58.526823 39.24668,47.887175 l 0.08717,-15.060502 14.950505,-0.09623 10.711021,-10.587745 10.639648,10.503559 15.060501,0.08717 0.09623,14.950505 10.587746,10.711021 z"
       transform="matrix(0.4716485,-0.07663534,0.0766353,0.47164826,-15.055568,51.504346)" />
    <path
       sodipodi:type="star"
       style="display:inline;fill:none;stroke:none;stroke-width:0.627833;stroke-opacity:0.495935"
       id="path17"
       inkscape:flatsided="false"
       sodipodi:sides="8"
       sodipodi:cx="65.06131"
       sodipodi:cy="58.460888"
       sodipodi:r1="27.89621"
       sodipodi:r2="36.318249"
       sodipodi:arg1="0.3887561"
       sodipodi:arg2="0.78358268"
       inkscape:rounded="0"
       inkscape:randomized="0"
       d="M 90.87594,69.034601 90.788771,84.095102 75.838265,84.191332 65.127245,94.779077 54.487597,84.275518 39.427095,84.188349 39.330866,69.237843 28.743121,58.526823 39.24668,47.887175 l 0.08717,-15.060502 14.950505,-0.09623 10.711021,-10.587745 10.639648,10.503559 15.060501,0.08717 0.09623,14.950505 10.587746,10.711021 z"
       transform="matrix(0.4716485,-0.07663534,0.0766353,0.47164826,6.3729688,30.350754)" />
    <path
       sodipodi:type="star"
       style="display:inline;fill:none;stroke:none;stroke-width:0.627833;stroke-opacity:0.495935"
       id="path18"
       inkscape:flatsided="false"
       sodipodi:sides="8"
       sodipodi:cx="65.06131"
       sodipodi:cy="58.460888"
       sodipodi:r1="27.89621"
       sodipodi:r2="36.318249"
       sodipodi:arg1="0.3887561"
       sodipodi:arg2="0.78358268"
       inkscape:rounded="0"
       inkscape:randomized="0"
       d="M 90.87594,69.034601 90.788771,84.095102 75.838265,84.191332 65.127245,94.779077 54.487597,84.275518 39.427095,84.188349 39.330866,69.237843 28.743121,58.526823 39.24668,47.887175 l 0.08717,-15.060502 14.950505,-0.09623 10.711021,-10.587745 10.639648,10.503559 15.060501,0.08717 0.09623,14.950505 10.587746,10.711021 z"
       transform="matrix(0.4716485,-0.07663534,0.0766353,0.47164826,27.801506,9.1971616)" />
    <path
       sodipodi:type="star"
       style="display:inline;fill:none;stroke:none;stroke-width:0.627833;stroke-opacity:0.495935"
       id="path19"
       inkscape:flatsided="false"
       sodipodi:sides="8"
       sodipodi:cx="65.06131"
       sodipodi:cy="58.460888"
       sodipodi:r1="27.89621"
       sodipodi:r2="36.318249"
       sodipodi:arg1="0.3887561"
       sodipodi:arg2="0.78358268"
       inkscape:rounded="0"
       inkscape:randomized="0"
       d="M 90.87594,69.034601 90.788771,84.095102 75.838265,84.191332 65.127245,94.779077 54.487597,84.275518 39.427095,84.188349 39.330866,69.237843 28.743121,58.526823 39.24668,47.887175 l 0.08717,-15.060502 14.950505,-0.09623 10.711021,-10.587745 10.639648,10.503559 15.060501,0.08717 0.09623,14.950505 10.587746,10.711021 z"
       transform="matrix(0.4716485,-0.07663534,0.0766353,0.47164826,49.230044,-11.95643)" />
    <path
       sodipodi:type="star"
       style="display:inline;fill:none;stroke:none;stroke-width:0.627833;stroke-opacity:0.495935"
       id="path24"
       inkscape:flatsided="false"
       sodipodi:sides="8"
       sodipodi:cx="65.06131"
       sodipodi:cy="58.460888"
       sodipodi:r1="27.89621"
       sodipodi:r2="36.318249"
       sodipodi:arg1="0.3887561"
       sodipodi:arg2="0.78358268"
       inkscape:rounded="0"
       inkscape:randomized="0"
       d="M 90.87594,69.034601 90.788771,84.095102 75.838265,84.191332 65.127245,94.779077 54.487597,84.275518 39.427095,84.188349 39.330866,69.237843 28.743121,58.526823 39.24668,47.887175 l 0.08717,-15.060502 14.950505,-0.09623 10.711021,-10.587745 10.639648,10.503559 15.060501,0.08717 0.09623,14.950505 10.587746,10.711021 z"
       transform="matrix(0.4716485,-0.07663534,0.0766353,0.47164826,5.8230928,115.51498)" />
    <path
       sodipodi:type="star"
       style="display:inline;fill:none;stroke:none;stroke-width:0.627833;stroke-opacity:0.495935"
       id="path25"
       inkscape:flatsided="false"
       sodipodi:sides="8"
       sodipodi:cx="65.06131"
       sodipodi:cy="58.460888"
       sodipodi:r1="27.89621"
       sodipodi:r2="36.318249"
       sodipodi:arg1="0.3887561"
       sodipodi:arg2="0.78358268"
       inkscape:rounded="0"
       inkscape:randomized="0"
       d="M 90.87594,69.034601 90.788771,84.095102 75.838265,84.191332 65.127245,94.779077 54.487597,84.275518 39.427095,84.188349 39.330866,69.237843 28.743121,58.526823 39.24668,47.887175 l 0.08717,-15.060502 14.950505,-0.09623 10.711021,-10.587745 10.639648,10.503559 15.060501,0.08717 0.09623,14.950505 10.587746,10.711021 z"
       transform="matrix(0.4716485,-0.07663534,0.0766353,0.47164826,26.976691,136.94351)" />
  </g>
  <rect
     style="display:none;fill:none;stroke:#c01c28;stroke-width:0.3;stroke-opacity:0.495935"
     id="rect26"
     width="99.698639"
     height="99.70137"
     x="0.14998712"
     y="0.14997472" />
  <g
     inkscape:groupmode="layer"
     id="layer3"
     inkscape:label="Layer 2"
     transform="matrix(0.9395288,-0.00562529,0.00567633,0.93108166,-39.318599,-48.636797)"
     style="stroke-width:1.06916">
    <path
       id="path42"
       style="fill:none;stroke:#ffa348;stroke-width:0.320748;stroke-opacity:0.495935"
       d="m 41.521918,80.578829 2.751114,1.955275 7.109944,-1.113054 1.191122,7.044004 7.109942,-1.113052 5.823119,4.138613 4.24044,-5.814536 7.04401,-1.191123 4.240445,-5.814533 5.82311,4.138612 7.10995,-1.113054 1.19112,7.044004 7.109936,-1.113051 5.82312,4.138612 4.24044,-5.814536 7.04401,-1.191122 4.24044,-5.814534 5.82312,4.138612 7.10994,-1.113054 1.19113,7.044006 7.10994,-1.113053 2.73359,1.942816" />
    <path
       id="path48"
       style="fill:none;stroke:#ffa348;stroke-width:0.320748;stroke-opacity:0.495935"
       d="m 41.264514,123.17341 2.733584,1.94281 7.109944,-1.11306 1.191122,7.04401 7.109942,-1.11305 5.823119,4.13861 4.24044,-5.81454 7.04401,-1.19112 4.24045,-5.81453 5.82311,4.13861 7.10995,-1.11306 1.19112,7.04401 7.109935,-1.11305 5.82312,4.13861 4.24044,-5.81454 7.04401,-1.19112 4.24044,-5.81453 5.82312,4.13861 7.10994,-1.11305 1.19113,7.044 7.10994,-1.11305 2.75112,1.95528" />
    <path
       id="path26"
       style="fill:none;stroke:#ffa348;stroke-width:0.320748;stroke-opacity:0.495935"
       d="m 41.082649,153.29243 2.721035,1.9339 4.24044,-5.81454 7.04401,-1.19112 4.24045,-5.81453 5.82311,4.13861 7.10995,-1.11306 1.19112,7.04401 7.109935,-1.11305 5.82312,4.13861 4.24044,-5.81454 7.04401,-1.19112 4.240441,-5.81453 5.82312,4.13861 7.10994,-1.11305 1.19113,7.044 7.10994,-1.11305 5.82312,4.13861 4.24044,-5.81453 7.04401,-1.19113 4.24044,-5.81453 v 0 0" />
    <path
       id="path27"
       style="fill:none;stroke:#2ec27e;stroke-width:0.320748;stroke-opacity:0.495935"
       d="m 69.279013,52.816126 -2.282039,3.210882 5.81454,4.24044 1.19112,7.044014 5.81453,4.24045 -4.13861,5.82311 1.11306,7.10995 -7.04401,1.19112 1.11305,7.109939 -4.13861,5.82312 5.81454,4.240439 1.19112,7.04401 5.81453,4.24044 -4.13861,5.82312 1.11305,7.10994 -7.044,1.19113 1.11305,7.10994 -4.13861,5.82312 5.81453,4.24044 1.19113,7.04401 5.81453,4.24044 v 0 0" />
    <path
       id="path55"
       style="fill:none;stroke:#2ec27e;stroke-width:0.320748;stroke-opacity:0.495935"
       d="m 99.397762,52.99837 -2.290672,3.223026 1.11306,7.109946 -7.04401,1.19112 1.11305,7.10994 -4.13861,5.82312 5.81454,4.24044 1.19112,7.044014 5.81453,4.24045 -4.13861,5.82311 1.11306,7.109954 -7.04401,1.19112 1.11305,7.10993 -4.13861,5.82312 5.81454,4.24044 1.19112,7.04401 5.81453,4.24044 -4.13861,5.82312 1.11305,7.10994 -7.044,1.19113 1.11305,7.10994 -2.290672,3.22303" />
    <path
       id="path29"
       style="fill:none;stroke:#2ec27e;stroke-width:0.320748;stroke-opacity:0.495935"
       d="m 111.87345,53.073785 -2.29433,3.228169 5.81454,4.24044 1.19112,7.044014 5.81453,4.24045 -4.13861,5.82311 1.11306,7.109954 -7.04401,1.19112 1.11305,7.10993 -4.13861,5.82312 5.81454,4.240438 1.19112,7.04401 5.81453,4.24044 -4.13861,5.82312 1.11305,7.10994 -7.044,1.19113 1.11305,7.10994 -4.13861,5.82312 5.81453,4.24044 1.19113,7.04401 5.81453,4.24044 v 0 0" />
    <path
       id="path58"
       style="fill:none;stroke:#2ec27e;stroke-width:0.320748;stroke-opacity:0.495935"
       d="m 141.99236,53.255773 -2.30313,3.240554 1.11306,7.109946 -7.04401,1.19112 1.11305,7.10994 -4.13861,5.82312 5.81454,4.24044 1.19112,7.044014 5.81453,4.24045 -4.13861,5.82311 1.11306,7.109953 -7.04401,1.19112 1.11305,7.10993 -4.13861,5.82312 5.81454,4.24044 1.19112,7.04401 5.81453,4.24044 -4.13861,5.82312 1.11305,7.10994 -7.044,1.19113 1.11305,7.10994 -2.27831,3.20563" />
    <path
       id="path52"
       style="fill:none;stroke:#2ec27e;stroke-width:0.320748;stroke-opacity:0.495935"
       d="m 56.803262,52.740835 -2.278308,3.20563 1.11306,7.109946 -7.04401,1.19112 1.11305,7.10994 -4.13861,5.82312 5.81454,4.24044 1.19112,7.044014 5.81453,4.24045 -4.13861,5.82311 1.11306,7.109955 -7.04401,1.19112 1.11305,7.10993 -4.13861,5.82312 5.81454,4.24044 1.19112,7.04401 5.81453,4.24044 -4.13861,5.82312 1.11305,7.10994 -7.044,1.19113 1.11305,7.10994 -2.30313,3.24056" />
    <path
       id="path40"
       style="fill:none;stroke:#ffa348;stroke-width:0.320748;stroke-opacity:0.495935"
       d="m 41.597425,68.103256 2.756129,1.958837 4.240444,-5.814539 7.044011,-1.191121 4.240442,-5.814533 5.823117,4.138612 7.109944,-1.113054 1.191122,7.044004 7.109942,-1.113052 5.823119,4.138613 4.24044,-5.814536 7.04401,-1.191123 4.240445,-5.814533 5.82311,4.138612 7.10995,-1.113054 1.19112,7.044004 7.10994,-1.113051 5.82312,4.138612 4.24044,-5.814536 7.04401,-1.191122 4.24044,-5.814534 2.7212,1.934011"
       sodipodi:nodetypes="cccccccccccccccccccccc" />
    <path
       id="path56"
       style="fill:none;stroke:#2ec27e;stroke-width:0.320748;stroke-opacity:0.495935"
       d="m 121.84945,156.99113 -2.28204,3.21088" />
    <path
       id="path53"
       style="fill:none;stroke:#2ec27e;stroke-width:0.320748;stroke-opacity:0.495935"
       d="m 79.267304,156.71619 -2.294326,3.22816" />
    <path
       id="path50"
       style="fill:none;stroke:#ffa348;stroke-width:0.320748;stroke-opacity:0.495935"
       d="m 144.49286,142.95601 2.75612,1.95884" />
    <path
       id="path38"
       style="fill:none;stroke:#ffa348;stroke-width:0.320748;stroke-opacity:0.495935"
       d="m 41.339908,110.69775 2.738726,1.94647 4.24044,-5.81454 7.04401,-1.19112 4.24045,-5.81453 5.82311,4.13861 7.10995,-1.11306 1.19112,7.04401 7.109935,-1.11305 5.82312,4.13861 4.24044,-5.81454 7.04401,-1.19112 4.240441,-5.81453 5.82312,4.13861 7.10994,-1.11305 1.19113,7.044 7.10994,-1.11305 5.82312,4.13861 4.24044,-5.81453 7.04401,-1.19113 4.24044,-5.81453 v 0 0" />
    <path
       id="path44"
       style="fill:none;stroke:#ffa348;stroke-width:0.320748;stroke-opacity:0.495935"
       d="m 144.7678,100.37389 2.73872,1.94647" />
  </g>
  <metadata
     id="metadata59">
    <rdf:RDF>
      <cc:Work
         rdf:about="">
        <dc:title>Khatam</dc:title>
        <dc:date>Dec 25, 2025</dc:date>
        <dc:creator>
          <cc:Agent>
            <dc:title>Thomas Ahle</dc:title>
          </cc:Agent>
        </dc:creator>
        <dc:description>A Khatam star is an eight-pointed star prominent in Islamic art and architecture</dc:description>
      </cc:Work>
    </rdf:RDF>
  </metadata>
</svg>
