<?xml version="1.0" encoding="UTF-8" standalone="no"?>
<svg
   viewBox="0 0 100 100"
   data-weave-parity="0"
   version="1.1"
   id="svg10"
   sodipodi:docname="kogle2.svg"
   inkscape:version="1.3 (0e150ed, 2023-07-21)"
   xmlns:inkscape="http://www.inkscape.org/namespaces/inkscape"
   xmlns:sodipodi="http://sodipodi.sourceforge.net/DTD/sodipodi-0.dtd"
   xmlns="http://www.w3.org/2000/svg"
   xmlns:svg="http://www.w3.org/2000/svg"
   xmlns:rdf="http://www.w3.org/1999/02/22-rdf-syntax-ns#"
   xmlns:cc="http://creativecommons.org/ns#"
   xmlns:dc="http://purl.org/dc/elements/1.1/">
  <defs
     id="defs10" />
  <sodipodi:namedview
     id="namedview10"
     pagecolor="#ffffff"
     bordercolor="#000000"
     borderopacity="0.25"
     inkscape:showpageshadow="2"
     inkscape:pageopacity="0.0"
     inkscape:pagecheckerboard="0"
     inkscape:deskcolor="#d1d1d1"
     inkscape:zoom="4.9682983"
     inkscape:cx="55.854135"
     inkscape:cy="56.759877"
     inkscape:window-width="1496"
     inkscape:window-height="873"
     inkscape:window-x="0"
     inkscape:window-y="34"
     inkscape:window-maximized="0"
     inkscape:current-layer="svg10" />
  <title
     id="title1">Kogle</title>
  <desc
     id="desc1">Et mønster inspireret af en kogles skæl</desc>
  <metadata
     id="metadata1">
    <rdf:RDF>
      <cc:Work
         rdf:about="">
        <dc:title>Kogle</dc:title>
        <dc:creator>
          <cc:Agent>
            <dc:title>Thomas</dc:title>
          </cc:Agent>
        </dc:creator>
        <dc:description>Et mønster inspireret af en kogles skæl</dc:description>
        <dc:source>juleflet.dk</dc:source>
      </cc:Work>
    </rdf:RDF>
  </metadata>
  <path
     d="M 10,100 C 4.477,100 0,95.523 0,90 C 0,84.477 4.477,80 10,80 C 4.477,80 0,75.523 0,70 C 0,64.477 4.477,60 10,60 C 4.482,60 0,54.714 0,50 C 0,44.966 4.477,40 10,40 C 4.477,40 0,35.523 0,30 C 0,24.477 4.477,20 10,20 C 4.477,20 0,15.523 0,10 C 0,4.477 4.477,0 10,0"
     stroke="orange"
     fill="none"
     id="path1" />
  <path
     d="M 30,100 C 24.477,100 20,95.523 20,90 C 20,84.477 24.477,80 30,80 C 24.477,80 20,75.523 20,70 C 20,64.477 24.477,60 30,60 C 24.482,60 20,54.714 20,50 C 20,44.966 24.477,40 30,40 C 24.477,40 20,35.523 20,30 C 20,24.477 24.477,20 30,20 C 24.477,20 20,15.523 20,10 C 20,4.477 24.477,0 30,0"
     stroke="orange"
     fill="none"
     id="path2" />
  <path
     d="M 50,100 C 44.477,100 40,95.523 40,90 C 40,84.477 44.477,80 50,80 C 44.477,80 40,75.523 40,70 C 40,64.477 44.477,60 50,60 C 44.482,60 40,54.714 40,50 C 40,44.966 44.477,40 50,40 C 44.477,40 40,35.523 40,30 C 40,24.477 44.477,20 50,20 C 44.477,20 40,15.523 40,10 C 40,4.477 44.477,0 50,0"
     stroke="orange"
     fill="none"
     id="path3" />
  <path
     d="M 70,100 C 64.477,100 60,95.523 60,90 C 60,84.477 64.477,80 70,80 C 64.477,80 60,75.523 60,70 C 60,64.477 64.477,60 70,60 C 64.482,60 60,54.714 60,50 C 60,44.966 64.477,40 70,40 C 64.477,40 60,35.523 60,30 C 60,24.477 64.477,20 70,20 C 64.477,20 60,15.523 60,10 C 60,4.477 64.477,0 70,0"
     stroke="orange"
     fill="none"
     id="path4" />
  <path
     d="M 90,100 C 84.477,100 80,95.523 80,90 C 80,84.477 84.477,80 90,80 C 84.477,80 80,75.523 80,70 C 80,64.477 84.477,60 90,60 C 84.482,60 80,54.714 80,50 C 80,44.966 84.477,40 90,40 C 84.477,40 80,35.523 80,30 C 80,24.477 84.477,20 90,20 C 84.477,20 80,15.523 80,10 C 80,4.477 84.477,0 90,0"
     stroke="orange"
     fill="none"
     id="path5" />
  <path
     d="m 100,10.044916 c 0,-5.5229996 -4.477,-9.99999955 -10,-9.99999955 -5.523,0 -10,4.47699995 -10,9.99999955 0,-5.5229996 -4.477,-9.99999955 -10,-9.99999955 -5.523,0 -10,4.47699995 -10,9.99999955 0,-5.5179996 -5.286,-9.99999955 -10,-9.99999955 -5.034,0 -10,4.47699995 -10,9.99999955 0,-5.5229996 -4.477,-9.99999955 -10,-9.99999955 -5.523,0 -10,4.47699995 -10,9.99999955 0,-5.5229996 -4.477,-9.99999955 -10,-9.99999955 -5.523,0 -10,4.47699995 -10,9.99999955"
     stroke="#008000"
     fill="none"
     id="path6" />
  <path
     d="m 100,30.044916 c 0,-5.523 -4.477,-10 -10,-10 -5.523,0 -10,4.477 -10,10 0,-5.523 -4.477,-10 -10,-10 -5.523,0 -10,4.477 -10,10 0,-5.518 -5.286,-10 -10,-10 -5.034,0 -10,4.477 -10,10 0,-5.523 -4.477,-10 -10,-10 -5.523,0 -10,4.477 -10,10 0,-5.523 -4.477,-10 -10,-10 -5.523,0 -10,4.477 -10,10"
     stroke="#008000"
     fill="none"
     id="path7" />
  <path
     d="m 100,50.044916 c 0,-5.523 -4.477,-10 -10,-10 -5.523,0 -10,4.477 -10,10 0,-5.523 -4.477,-10 -10,-10 -5.523,0 -10,4.477 -10,10 0,-5.518 -5.286,-10 -10,-10 -5.034,0 -10,4.477 -10,10 0,-5.523 -4.477,-10 -10,-10 -5.523,0 -10,4.477 -10,10 0,-5.523 -4.477,-10 -10,-10 -5.523,0 -10,4.477 -10,10"
     stroke="#008000"
     fill="none"
     id="path8" />
  <path
     d="m 100,70.044916 c 0,-5.523 -4.477,-10 -10,-10 -5.523,0 -10,4.477 -10,10 0,-5.523 -4.477,-10 -10,-10 -5.523,0 -10,4.477 -10,10 0,-5.518 -5.286,-10 -10,-10 -5.034,0 -10,4.477 -10,10 0,-5.523 -4.477,-10 -10,-10 -5.523,0 -10,4.477 -10,10 0,-5.523 -4.477,-10 -10,-10 -5.523,0 -10,4.477 -10,10"
     stroke="#008000"
     fill="none"
     id="path9" />
  <path
     d="m 100,90.044916 c 0,-5.523 -4.477,-10 -10,-10 -5.523,0 -10,4.477 -10,10 0,-5.523 -4.477,-10 -10,-10 -5.523,0 -10,4.477 -10,10 0,-5.518 -5.286,-10 -10,-10 -5.034,0 -10,4.477 -10,10 0,-5.523 -4.477,-10 -10,-10 -5.523,0 -10,4.477 -10,10 0,-5.523 -4.477,-10 -10,-10 -5.523,0 -10,4.477 -10,10"
     stroke="#008000"
     fill="none"
     id="path10" />
</svg>
