<svg viewBox="0 0 100 100" xmlns="http://www.w3.org/2000/svg"
  data-author="Thomas" data-weave-parity="0">
  <title>Kogle</title>
  <desc>Et mønster inspireret af en kogles skæl</desc>
  <path d="M 10,100 C 4.477,100 0,95.523 0,90 C 0,84.477 4.477,80 10,80 C 4.477,80 0,75.523 0,70 C 0,64.477 4.477,60 10,60 C 4.482,60 0,54.714 0,50 C 0,44.966 4.477,40 10,40 C 4.477,40 0,35.523 0,30 C 0,24.477 4.477,20 10,20 C 4.477,20 0,15.523 0,10 C 0,4.477 4.477,0 10,0" stroke="orange" fill="none"/>
  <path d="M 30,100 C 24.477,100 20,95.523 20,90 C 20,84.477 24.477,80 30,80 C 24.477,80 20,75.523 20,70 C 20,64.477 24.477,60 30,60 C 24.482,60 20,54.714 20,50 C 20,44.966 24.477,40 30,40 C 24.477,40 20,35.523 20,30 C 20,24.477 24.477,20 30,20 C 24.477,20 20,15.523 20,10 C 20,4.477 24.477,0 30,0" stroke="orange" fill="none"/>
  <path d="M 50,100 C 44.477,100 40,95.523 40,90 C 40,84.477 44.477,80 50,80 C 44.477,80 40,75.523 40,70 C 40,64.477 44.477,60 50,60 C 44.482,60 40,54.714 40,50 C 40,44.966 44.477,40 50,40 C 44.477,40 40,35.523 40,30 C 40,24.477 44.477,20 50,20 C 44.477,20 40,15.523 40,10 C 40,4.477 44.477,0 50,0" stroke="orange" fill="none"/>
  <path d="M 70,100 C 64.477,100 60,95.523 60,90 C 60,84.477 64.477,80 70,80 C 64.477,80 60,75.523 60,70 C 60,64.477 64.477,60 70,60 C 64.482,60 60,54.714 60,50 C 60,44.966 64.477,40 70,40 C 64.477,40 60,35.523 60,30 C 60,24.477 64.477,20 70,20 C 64.477,20 60,15.523 60,10 C 60,4.477 64.477,0 70,0" stroke="orange" fill="none"/>
  <path d="M 90,100 C 84.477,100 80,95.523 80,90 C 80,84.477 84.477,80 90,80 C 84.477,80 80,75.523 80,70 C 80,64.477 84.477,60 90,60 C 84.482,60 80,54.714 80,50 C 80,44.966 84.477,40 90,40 C 84.477,40 80,35.523 80,30 C 80,24.477 84.477,20 90,20 C 84.477,20 80,15.523 80,10 C 80,4.477 84.477,0 90,0" stroke="orange" fill="none"/>
  <path d="M 100,90 C 100,95.523 95.523,100 90,100 C 84.477,100 80,95.523 80,90 C 80,95.523 75.523,100 70,100 C 64.477,100 60,95.523 60,90 C 60,95.518 54.714,100 50,100 C 44.966,100 40,95.523 40,90 C 40,95.523 35.523,100 30,100 C 24.477,100 20,95.523 20,90 C 20,95.523 15.523,100 10,100 C 4.477,100 0,95.523 0,90" stroke="green" fill="none"/>
  <path d="M 100,70 C 100,75.523 95.523,80 90,80 C 84.477,80 80,75.523 80,70 C 80,75.523 75.523,80 70,80 C 64.477,80 60,75.523 60,70 C 60,75.518 54.714,80 50,80 C 44.966,80 40,75.523 40,70 C 40,75.523 35.523,80 30,80 C 24.477,80 20,75.523 20,70 C 20,75.523 15.523,80 10,80 C 4.477,80 0,75.523 0,70" stroke="green" fill="none"/>
  <path d="M 100,50 C 100,55.523 95.523,60 90,60 C 84.477,60 80,55.523 80,50 C 80,55.523 75.523,60 70,60 C 64.477,60 60,55.523 60,50 C 60,55.518 54.714,60 50,60 C 44.966,60 40,55.523 40,50 C 40,55.523 35.523,60 30,60 C 24.477,60 20,55.523 20,50 C 20,55.523 15.523,60 10,60 C 4.477,60 0,55.523 0,50" stroke="green" fill="none"/>
  <path d="M 100,30 C 100,35.523 95.523,40 90,40 C 84.477,40 80,35.523 80,30 C 80,35.523 75.523,40 70,40 C 64.477,40 60,35.523 60,30 C 60,35.518 54.714,40 50,40 C 44.966,40 40,35.523 40,30 C 40,35.523 35.523,40 30,40 C 24.477,40 20,35.523 20,30 C 20,35.523 15.523,40 10,40 C 4.477,40 0,35.523 0,30" stroke="green" fill="none"/>
  <path d="M 100,10 C 100,15.523 95.523,20 90,20 C 84.477,20 80,15.523 80,10 C 80,15.523 75.523,20 70,20 C 64.477,20 60,15.523 60,10 C 60,15.518 54.714,20 50,20 C 44.966,20 40,15.523 40,10 C 40,15.523 35.523,20 30,20 C 24.477,20 20,15.523 20,10 C 20,15.523 15.523,20 10,20 C 4.477,20 0,15.523 0,10" stroke="green" fill="none"/>
</svg>
