<?xml version="1.0" encoding="UTF-8" standalone="no"?>
<!-- Created with Inkscape (http://www.inkscape.org/) -->

<svg
   width="100mm"
   height="100mm"
   viewBox="0 0 100 100"
   version="1.1"
   id="svg1"
   inkscape:version="1.3 (0e150ed, 2023-07-21)"
   sodipodi:docname="kugle.svg"
   xmlns:inkscape="http://www.inkscape.org/namespaces/inkscape"
   xmlns:sodipodi="http://sodipodi.sourceforge.net/DTD/sodipodi-0.dtd"
   xmlns:xlink="http://www.w3.org/1999/xlink"
   xmlns="http://www.w3.org/2000/svg"
   xmlns:svg="http://www.w3.org/2000/svg">
  <sodipodi:namedview
     id="namedview1"
     pagecolor="#ffffff"
     bordercolor="#000000"
     borderopacity="0.25"
     inkscape:showpageshadow="2"
     inkscape:pageopacity="0.0"
     inkscape:pagecheckerboard="0"
     inkscape:deskcolor="#d1d1d1"
     inkscape:document-units="mm"
     inkscape:zoom="4.556386"
     inkscape:cx="201.80467"
     inkscape:cy="323.83121"
     inkscape:window-width="1728"
     inkscape:window-height="994"
     inkscape:window-x="0"
     inkscape:window-y="33"
     inkscape:window-maximized="0"
     inkscape:current-layer="layer1" />
  <defs
     id="defs1" />
  <g
     inkscape:label="Layer 1"
     inkscape:groupmode="layer"
     id="layer1">
    <ellipse
       style="fill:none;stroke:#33d17a;stroke-width:1;stroke-opacity:0.495935"
       id="path1"
       cx="0.23510228"
       cy="70.710678"
       rx="13.436966"
       ry="43.789402"
       transform="rotate(-45)" />
    <ellipse
       style="fill:none;stroke:#33d17a;stroke-width:1;stroke-opacity:0.495935"
       id="ellipse2"
       cx="-3.6231454e-06"
       cy="70.710678"
       rx="35.751259"
       ry="43.789402"
       transform="rotate(-45)" />
    <ellipse
       style="fill:none;stroke:#33d17a;stroke-width:0.999992;stroke-opacity:0.495935"
       id="ellipse4"
       cx="1.4210855e-14"
       cy="70.710678"
       rx="44.245895"
       ry="43.789402"
       transform="rotate(-45)" />
    <path
       style="fill:none;stroke:#e66100;stroke-width:1;stroke-opacity:0.495935"
       d="M 10.57146,70.103023 70.321446,10.789882"
       id="path5" />
    <path
       style="fill:none;stroke:#e66100;stroke-width:1;stroke-opacity:0.495935"
       d="M 6.1262717,43.160332 42.599139,6.6874639"
       id="path7" />
    <path
       style="fill:none;stroke:#e66100;stroke-width:1;stroke-opacity:0.495935"
       d="M 29.890323,89.424346 89.383269,29.931408"
       id="path9" />
    <path
       style="fill:none;stroke:#e66100;stroke-width:1;stroke-opacity:0.495935"
       d="M 56.568175,93.602232 93.426251,56.744161"
       id="path11" />
    <path
       style="fill:none;stroke:#9141ac;stroke-width:1;stroke-opacity:0.495935"
       d="m 89.73682,0 -0.353552,29.931407 -9.172634,9.172635 9.024635,11.256673 -2.129675,-7.600386 6.217594,-1.129446 c 1.021654,5.109453 0.780325,10.127193 0.103062,15.113277 -0.414743,2.420034 -0.998326,4.882472 -1.899938,7.424785 L 91.909149,100"
       id="path2"
       sodipodi:nodetypes="ccccccccc" />
    <use
       x="0"
       y="0"
       xlink:href="#path2"
       id="use2"
       transform="matrix(0,1,1,0,-0.041084,0.041078)"
       style="stroke:#f5c211" />
    <path
       style="fill:none;stroke:#f5c211;stroke-width:1;stroke-opacity:0.495935"
       d="M 85.10311,100.00372 84.924623,76.039117 c 1.62699,-2.475942 2.520275,-4.772352 3.337954,-7.050263 0.892725,-2.927906 1.530917,-5.839783 1.637137,-8.718158 L 73.123507,46.191168 76.706351,42.608324 56.719594,24.061394 64.595083,16.459339 70.321446,10.789882 V 0"
       id="path3"
       sodipodi:nodetypes="cccccccccc" />
    <use
       x="0"
       y="0"
       xlink:href="#path3"
       id="use3"
       transform="matrix(0,1,1,0,-0.218422,-0.218423)" />
    <path
       style="fill:none;stroke:#e01b24;stroke-width:1;stroke-opacity:0.495935"
       d="m 42.599139,0 v 6.6874638 l -3.470004,3.4490262 -8.850918,8.871896 c 6.843985,2.866368 13.236799,7.206864 19.410459,12.263415 7.159324,5.867031 13.47121,12.31477 19.174965,19.179232 4.717283,5.938428 9.10202,12.036658 11.948165,18.874245 1.303621,4.159519 3.020503,8.434793 0.318219,11.472261 L 80.987038,100"
       id="path4"
       sodipodi:nodetypes="ccccccccc" />
    <use
       x="0"
       y="0"
       xlink:href="#path4"
       id="use4"
       transform="matrix(0,1,1,0,0.34798537,-0.34866899)" />
    <path
       style="fill:none;stroke:#1c71d8;stroke-width:1;stroke-opacity:0.495935"
       d="M 15.819701,-0.13188909 15.654194,22.826385 c -3.821372,5.061649 -4.289599,10.740421 -5.515928,16.279669 -0.8996191,8.810111 1.945395,17.126812 6.102651,25.270606 4.812776,7.915811 10.999852,14.498937 19.132027,19.142935 2.379719,1.414159 4.856947,2.563269 7.389161,3.562918 l -1.129446,6.217594 0.110257,3.868126"
       id="path6"
       sodipodi:nodetypes="cccccccc" />
    <path
       style="fill:none;stroke:#1c71d8;stroke-width:1;stroke-opacity:0.495935"
       d="M 19.385054,-0.13549351 19.202459,18.869974 c -2.285503,3.676292 -1.393942,7.366496 0.153912,11.059574 l 2.991285,-2.990601 14.774861,16.961077 -12.759812,12.490584 18.027197,20.09732 -3.326944,3.763784 12.337763,9.2432 4.34209,0.412463"
       id="path8"
       sodipodi:nodetypes="ccccccc" />
    <path
       style="fill:none;stroke:#1c71d8;stroke-width:1;stroke-opacity:0.495935"
       d="M 8.9078234,-0.13549351 8.3851827,36.086168 C 4.951324,46.1309 4.7426796,57.178399 10.57146,70.103023 c 4.645427,9.096021 11.41119,15.05374 19.318863,19.321322 l 0.15299,10.579375"
       id="path10"
       sodipodi:nodetypes="ccccc" />
    <path
       style="fill:none;stroke:#986a44;stroke-width:1;stroke-opacity:0.495935"
       d="M 0.34798537,36.130696 8.3851827,36.086168 C 10.876737,29.964544 13.724299,23.965261 19.202459,18.869974 l 5.536304,5.622951 -2.391107,2.446022 L 37.122517,43.900024 40.5897,40.303205 59.854685,59.487664 73.123507,46.191168 88.00187,59.677877"
       id="path12"
       sodipodi:nodetypes="cccccccccc" />
    <use
       x="0"
       y="0"
       xlink:href="#path10"
       id="use13"
       transform="matrix(0,1,1,0,0.14270724,-0.04822928)" />
    <use
       x="0"
       y="0"
       xlink:href="#path12"
       id="use14"
       transform="matrix(0,1,1,0,0.3324853,-0.33248453)" />
    <use
       x="0"
       y="0"
       xlink:href="#path6"
       id="use15"
       transform="matrix(0,1,1,0,0.023081,-0.001776)" />
    <use
       x="0"
       y="0"
       xlink:href="#path8"
       id="use16"
       transform="matrix(0,1,1,0,0.32898636,-0.30131051)" />
  </g>
</svg>
