<?xml version="1.0" encoding="UTF-8" standalone="no"?>
<!-- Created with Inkscape (http://www.inkscape.org/) -->

<svg
   width="100mm"
   height="100mm"
   viewBox="0 0 100 100"
   version="1.1"
   id="svg1"
   inkscape:version="1.3 (0e150ed, 2023-07-21)"
   sodipodi:docname="lilje2.svg"
   xmlns:inkscape="http://www.inkscape.org/namespaces/inkscape"
   xmlns:sodipodi="http://sodipodi.sourceforge.net/DTD/sodipodi-0.dtd"
   xmlns:xlink="http://www.w3.org/1999/xlink"
   xmlns="http://www.w3.org/2000/svg"
   xmlns:svg="http://www.w3.org/2000/svg"
   xmlns:rdf="http://www.w3.org/1999/02/22-rdf-syntax-ns#"
   xmlns:cc="http://creativecommons.org/ns#"
   xmlns:dc="http://purl.org/dc/elements/1.1/">
  <title
     id="title1">Lilje 2</title>
  <sodipodi:namedview
     id="namedview1"
     pagecolor="#ffffff"
     bordercolor="#000000"
     borderopacity="0.25"
     inkscape:showpageshadow="2"
     inkscape:pageopacity="0.0"
     inkscape:pagecheckerboard="0"
     inkscape:deskcolor="#d1d1d1"
     inkscape:document-units="mm"
     inkscape:zoom="2.007791"
     inkscape:cx="231.84684"
     inkscape:cy="232.09587"
     inkscape:window-width="1168"
     inkscape:window-height="857"
     inkscape:window-x="559"
     inkscape:window-y="140"
     inkscape:window-maximized="0"
     inkscape:current-layer="layer1"
     showgrid="false" />
  <defs
     id="defs1" />
  <g
     inkscape:label="Layer 1"
     inkscape:groupmode="layer"
     id="layer1">
    <path
       style="fill:none;stroke:#33d17a;stroke-width:0.3;stroke-opacity:0.495935"
       d="M -0.00165342,72.369233 H 19.573245 c 0,0 -0.367546,9.084418 8.137881,12.317822 7.608162,2.892301 13.147411,-3.714453 13.719308,-5.001221 l 10.28029,3.426762 c 0,0 0.565273,7.702989 6.360751,7.574037 4.770602,-0.106148 5.703048,-2.197111 6.775917,-4.457799 1.072867,-2.260688 2.371892,-7.181789 2.371892,-7.181789 4.368109,0.296588 7.513828,0.259204 11.881937,-0.979678 h 20.767677"
       id="path16"
       sodipodi:nodetypes="ccsccssccc" />
    <path
       style="fill:none;stroke:#33d17a;stroke-width:0.3;stroke-opacity:0.495935"
       d="M 99.830581,69.735 H 69.69112 l -2.52523,-2.472956 h -6.763241 l -5.517613,5.057809 c -1.408836,0.141335 -2.558374,-0.624871 -3.065338,-3.64009 -0.882654,-2.548746 -4.45224,-2.857455 -4.789593,-2.856347 H -0.00452047"
       id="path17"
       sodipodi:nodetypes="cccccccc" />
    <path
       style="fill:none;stroke:#33d17a;stroke-width:0.3;stroke-opacity:0.495935"
       d="M -0.03278312,57.791667 H 31.793613 c 0,0 7.197643,-2.280855 12.314473,-1.560512 7.688332,1.082357 13.264351,7.497241 13.264351,7.497241 l 3.188872,-3.256719 h 6.649135 c 2.300848,2.261839 5.310088,4.051416 9.600541,4.986851 h 23.102358"
       id="path18"
       sodipodi:nodetypes="ccsccccc" />
    <path
       style="fill:none;stroke:#33d17a;stroke-width:0.3;stroke-opacity:0.495935"
       d="M 99.879418,51.956711 H 83.52797 c 0,0 -2.713934,5.190397 -6.174198,5.190397 -3.460265,0 -6.004578,-1.764056 -6.004578,-1.764056 L 36.184793,51.833181 30.857881,49.242776 H -0.00452047"
       id="path19"
       sodipodi:nodetypes="ccscccc" />
    <path
       style="fill:none;stroke:#33d17a;stroke-width:0.3;stroke-opacity:0.495935"
       d="M -0.06104578,43.441744 H 21.878503 l 29.895367,-7.208761 5.191476,10.702949 8.775612,-0.135696 c 0,0 0.873074,-5.603799 5.493427,-7.440425 2.041888,-0.811666 6.852561,0.209413 8.25661,1.605468 h 20.558045"
       id="path20"
       sodipodi:nodetypes="cccccscc" />
    <path
       style="fill:none;stroke:#33d17a;stroke-width:0.3;stroke-opacity:0.495935"
       d="m 100.06118,19.820733 h -28.7446 c -3.785805,-0.105645 -9.631315,5.08639 -13.584147,11.995876 L 49.166276,30.905502 C 44.016787,19.944911 34.477725,11.316279 13.355355,8.84128 H -0.03915908"
       id="path21"
       sodipodi:nodetypes="cccccc" />
    <rect
       style="fill:none;stroke:none;stroke-width:0.299999;stroke-opacity:0.495935"
       id="rect21"
       width="100"
       height="100"
       x="-100.06118"
       y="-0.061179999"
       transform="rotate(-90)" />
    <rect
       style="fill:none;stroke:none;stroke-width:0.300001;stroke-opacity:0.495935"
       id="rect22"
       width="100"
       height="100"
       x="-100.06118"
       y="-0.061179999"
       transform="rotate(-90)" />
    <use
       x="0"
       y="0"
       xlink:href="#path16"
       id="use22"
       transform="matrix(0,1,1,0,-0.06118,0.06118)" />
    <use
       x="0"
       y="0"
       xlink:href="#path17"
       id="use23"
       transform="matrix(0,1,1,0,-0.06118,0.06118)" />
    <use
       x="0"
       y="0"
       xlink:href="#path18"
       id="use24"
       transform="matrix(0,1,1,0,-0.06118,0.06118)" />
    <use
       x="0"
       y="0"
       xlink:href="#path19"
       id="use25"
       transform="matrix(0,1,1,0,-0.06118,0.06118)" />
    <use
       x="0"
       y="0"
       xlink:href="#path20"
       id="use26"
       transform="matrix(0,1,1,0,-0.06118,0.06118)" />
    <use
       x="0"
       y="0"
       xlink:href="#path21"
       id="use27"
       transform="matrix(0,1,1,0,-0.06118,0.06118)" />
    <use
       x="0"
       y="0"
       xlink:href="#rect21"
       id="use28"
       transform="matrix(0,1,1,0,-0.06118,0.06118)" />
    <use
       x="0"
       y="0"
       xlink:href="#rect22"
       id="use29"
       transform="matrix(0,1,1,0,-0.06118,0.06118)" />
  </g>
  <metadata
     id="metadata1">
    <rdf:RDF>
      <cc:Work
         rdf:about="">
        <dc:title>Lilje 2</dc:title>
        <dc:creator>
          <cc:Agent>
            <dc:title>Niels Thygesen</dc:title>
          </cc:Agent>
        </dc:creator>
        <dc:publisher>
          <cc:Agent>
            <dc:title>Spejderliv</dc:title>
          </cc:Agent>
        </dc:publisher>
      </cc:Work>
    </rdf:RDF>
  </metadata>
</svg>
