<?xml version="1.0" encoding="UTF-8" standalone="no"?>
<svg
   viewBox="0 0 100 100"
   data-weave-parity="1"
   version="1.1"
   id="svg4"
   sodipodi:docname="nihon.svg"
   inkscape:version="1.3 (0e150ed, 2023-07-21)"
   xmlns:inkscape="http://www.inkscape.org/namespaces/inkscape"
   xmlns:sodipodi="http://sodipodi.sourceforge.net/DTD/sodipodi-0.dtd"
   xmlns="http://www.w3.org/2000/svg"
   xmlns:svg="http://www.w3.org/2000/svg"
   xmlns:rdf="http://www.w3.org/1999/02/22-rdf-syntax-ns#"
   xmlns:cc="http://creativecommons.org/ns#"
   xmlns:dc="http://purl.org/dc/elements/1.1/">
  <defs
     id="defs4" />
  <sodipodi:namedview
     id="namedview4"
     pagecolor="#ffffff"
     bordercolor="#000000"
     borderopacity="0.25"
     inkscape:showpageshadow="2"
     inkscape:pageopacity="0.0"
     inkscape:pagecheckerboard="0"
     inkscape:deskcolor="#d1d1d1"
     inkscape:zoom="0.97179069"
     inkscape:cx="42.704669"
     inkscape:cy="120.3963"
     inkscape:window-width="1488"
     inkscape:window-height="821"
     inkscape:window-x="0"
     inkscape:window-y="34"
     inkscape:window-maximized="0"
     inkscape:current-layer="svg4" />
  <title
     id="title1">Nihon</title>
  <metadata
     id="metadata1">
    <rdf:RDF>
      <cc:Work
         rdf:about="">
        <dc:title>Nihon</dc:title>
        <dc:creator>
          <cc:Agent>
            <dc:title>Bjørn</dc:title>
          </cc:Agent>
        </dc:creator>
        <dc:source>juleflet.dk</dc:source>
        <dc:date>2025-12-21</dc:date>
      </cc:Work>
    </rdf:RDF>
  </metadata>
  <path
     d="m 99.734734,12.28802 c 0,0 -32.432943,20.352714 -32.432943,20.352714 -10.153127,-8.364488 -24.450456,-8.364488 -34.603584,0 0,0 -32.43294183,-20.352714 -32.43294183,-20.352714"
     stroke="#ffa500"
     fill="none"
     id="path1"
     style="stroke-width:0.999997" />
  <path
     d="m 99.734734,87.975841 c 0,0 -32.432943,-20.352713 -32.432943,-20.352713 -10.153127,8.364488 -24.450456,8.364488 -34.603584,0 0,0 -32.43294183,20.352713 -32.43294183,20.352713"
     stroke="#ffa500"
     fill="none"
     id="path2"
     style="stroke-width:0.999997" />
  <path
     d="m 12.25621,99.998596 c 0,0 20.298868,-32.518974 20.298868,-32.518974 -8.342357,-10.180064 -8.342357,-24.515318 0,-34.695383 0,0 -20.298868,-32.51897382 -20.298868,-32.51897382"
     stroke="#008000"
     fill="none"
     id="path3"
     style="stroke-width:0.999997" />
  <path
     d="m 87.743787,99.998596 c 0,0 -20.298866,-32.518974 -20.298866,-32.518974 8.342353,-10.180064 8.342353,-24.515318 0,-34.695383 0,0 20.298866,-32.51897382 20.298866,-32.51897382"
     stroke="#008000"
     fill="none"
     id="path4"
     style="stroke-width:0.999997" />
</svg>
