<?xml version="1.0" encoding="UTF-8" standalone="no"?>
<!-- Created with Inkscape (http://www.inkscape.org/) -->

<svg
   width="100mm"
   height="100mm"
   viewBox="0 0 100 100"
   version="1.1"
   id="svg1"
   inkscape:version="1.3 (0e150ed, 2023-07-21)"
   sodipodi:docname="plus.svg"
   xmlns:inkscape="http://www.inkscape.org/namespaces/inkscape"
   xmlns:sodipodi="http://sodipodi.sourceforge.net/DTD/sodipodi-0.dtd"
   xmlns="http://www.w3.org/2000/svg"
   xmlns:svg="http://www.w3.org/2000/svg" data-weave-parity="0" xmlns:rdf="http://www.w3.org/1999/02/22-rdf-syntax-ns#" xmlns:cc="http://creativecommons.org/ns#" xmlns:dc="http://purl.org/dc/elements/1.1/">
   <title>Plus</title>
   <desc>4 røde plusser omrking et enkelt hvidt plus</desc>
  <metadata>
    <rdf:RDF>
      <cc:Work rdf:about="">
        <dc:title>Plus</dc:title>
        <dc:creator>
          <cc:Agent>
            <dc:title>Thomas</dc:title>
          </cc:Agent>
        </dc:creator>
        <dc:description>4 røde plusser omrking et enkelt hvidt plus</dc:description>
        <dc:source>juleflet.dk</dc:source>
      </cc:Work>
    </rdf:RDF>
  </metadata>
  <sodipodi:namedview
     id="namedview1"
     pagecolor="#ffffff"
     bordercolor="#000000"
     borderopacity="0.25"
     inkscape:showpageshadow="2"
     inkscape:pageopacity="0.0"
     inkscape:pagecheckerboard="0"
     inkscape:deskcolor="#d1d1d1"
     inkscape:document-units="mm"
     inkscape:zoom="1.4268681"
     inkscape:cx="142.62005"
     inkscape:cy="179.41392"
     inkscape:window-width="1480"
     inkscape:window-height="841"
     inkscape:window-x="0"
     inkscape:window-y="34"
     inkscape:window-maximized="0"
     inkscape:current-layer="layer1" />
  <defs
     id="defs1" />
  <g
     inkscape:label="Layer 1"
     inkscape:groupmode="layer"
     id="layer1">
    <path
       style="fill:none;stroke:#33d17a;stroke-width:1.1"
       d="M 43.281763,4.161647e-7 43.281749,14.878425 h 13.861685 v 27.733371 l 13.743197,3e-6 1.4e-5,14.402306 v 14.092904 l 14.317813,1.5e-5 V 85.746948 H 71.449512 l 0.04548,13.791238"
       id="path82"
       sodipodi:nodetypes="ccccccccccc" />
    <path
       style="fill:none;stroke:#33d17a;stroke-width:1.1"
       d="M 29.162984,0.35763538 V 14.5349 l -13.69653,-6e-6 v 14.802728 l 13.696544,4e-6 v 13.551793 l -1.4e-5,13.968775 h 13.904061 v 28.563022 h 13.904047 v 13.96878"
       id="path83" />
    <path
       style="fill:none;stroke:#ff7800;stroke-width:1.1"
       d="m 100.10546,42.716311 -14.878425,-1.4e-5 V 56.577982 H 57.493664 l -3e-6,13.743197 -14.402306,1.4e-5 H 28.998451 l -1.5e-5,14.317813 H 14.358512 V 70.88406 L 0.567274,70.92954"
       id="path1"
       sodipodi:nodetypes="ccccccccccc" />
    <path
       style="fill:none;stroke:#ff7800;stroke-width:1.1"
       d="M 99.747825,28.597532 H 85.57056 l 6e-6,-13.69653 H 70.767838 l -4e-6,13.696544 H 57.216041 l -13.968775,-1.4e-5 V 42.501593 H 14.684244 V 56.40564 H 0.715464"
       id="path2" />
  </g>
</svg>
