<svg viewBox="0 0 100 100" xmlns="http://www.w3.org/2000/svg" xmlns:rdf="http://www.w3.org/1999/02/22-rdf-syntax-ns#" xmlns:cc="http://creativecommons.org/ns#" xmlns:dc="http://purl.org/dc/elements/1.1/" data-weave-parity="1">
  <title>Santa</title>
  <desc>Kræver god præcision ved klip</desc>
  <metadata>
    <rdf:RDF>
      <cc:Work rdf:about="">
        <dc:title>Santa</dc:title>
        <dc:creator>
          <cc:Agent>
            <dc:title>Thomas Ahle</dc:title>
          </cc:Agent>
        </dc:creator>
        <dc:description>Kræver god præcision ved klip</dc:description>
        <dc:source>juleflet.dk</dc:source>
        <dc:date>25/12/2025</dc:date>
      </cc:Work>
    </rdf:RDF>
  </metadata>
  <path d="M 100.00089359316 14.826810999999998 C 91.48410325982667 14.826810999999998 82.96737933333333 14.826810999999998 74.450589 14.826810999999998 C 71.005504 12.126693999999997 64.074299 9.452095400000001 61.726997 8.7886682 C 57.688045 7.647123399999995 53.87738300000001 7.166350499999999 50.000873 7.1529045 C 45.952135 7.1388615 42.06193 7.7447788000000015 38.276998 8.786517400000001 C 33.727763 10.241954000000002 29.347115000000002 12.019155999999997 25.506367 14.826810999999998 C 17.00454250803 14.826810999999998 8.502718085129997 14.826810999999998 0.0008935931599997578 14.826810999999998" stroke="orange" fill="none"/>
  <path d="M 100.00089359316 38.27681 C 97.07199925982667 38.276810666666655 94.14317133333334 38.27681133333332 91.21427700000001 38.27681200000001 C 89.848346 33.905761999999996 88.710773 31.498716000000005 87.69830900000001 29.633167999999994 C 86.87701 28.119858999999998 86.18014800000002 26.941406999999995 85.174857 25.531027 C 83.88498299999999 23.721387999999994 82.667322 22.150478999999994 80.543077 19.948960999999994 C 78.96211466666665 22.299249666666665 77.38115233333332 24.649538333333325 75.80019 26.999827 C 73.655395 26.746075999999995 71.91595300000002 26.756686999999996 70.515989 26.988696999999995 C 71.43783199999999 27.836534999999994 73.361061 28.589495999999993 72.73329000000001 29.700477000000003 C 73.693706 30.186996999999987 73.48491200000001 31.094148999999994 73.64592100000002 31.816399999999987 C 73.96493000000001 33.03914 73.755014 33.764068999999985 73.53568100000001 34.480135 C 73.78366000000001 36.589606999999994 72.649359 37.87835 70.82990900000001 38.760285999999994 C 69.95334600000001 40.28416799999999 67.40540300000002 40.314672 66.70248800000003 39.93780999999999 C 64.947661 40.505836 63.47316500000002 39.21543599999999 62.096979000000005 38.35641999999998 C 61.887537 38.225685999999996 61.878101000000015 37.832570999999994 61.67676400000002 37.701768 C 61.33559500000001 37.48012199999999 61.17873300000001 37.32403599999999 60.87296900000001 37.10238899999999 C 61.835696000000006 36.853095999999994 62.28021300000002 36.30156899999999 62.824941 35.827200999999995 C 62.824941 35.827200999999995 63.682110000000016 36.46985499999999 65.180148 36.395588999999994 C 66.67818600000001 36.321318999999995 67.46007000000003 35.366253999999984 67.56547400000002 35.13671399999999 C 68.92193100000003 32.18272699999999 67.886627 30.88894599999999 67.86060200000001 30.637659 C 67.49626633333337 30.28767366666666 67.13193066666669 29.937688333333316 66.76759500000001 29.587702999999994 C 62.89627200000003 27.771281999999992 60.682921000000036 27.64887499999999 58.90236300000002 27.96866899999999 C 60.54737300000003 27.113459999999996 62.26866900000003 26.96007199999999 64.02293800000004 27.110039999999998 C 64.77179066666667 26.94916166666666 65.52064333333334 26.788283333333325 66.26949600000002 26.627404999999992 C 66.26949600000002 26.627404999999992 60.834033000000034 25.167464999999993 58.07965800000002 25.273035 C 55.325283000000006 25.378604999999993 51.93687500000003 25.98267899999999 47.78272700000001 29.19363399999999 C 47.87359700000002 29.333406 48.085461000000016 29.64990999999999 48.540829000000016 29.612785999999993 C 48.69004300000002 29.82240699999999 49.058779000000015 29.906861999999997 49.382438000000015 29.844787999999994 C 49.51949200000002 29.987010333333323 49.65654600000001 30.12923266666666 49.7936 30.271454999999992 C 49.686307 30.35217499999999 49.68354400000001 30.44782899999999 49.69043900000001 30.544861999999988 C 49.69043900000001 30.544861999999988 49.69043900000001 30.544861999999988 49.69043900000001 30.544861999999988 C 49.508035333333346 30.60686333333333 49.32563166666669 30.668864666666657 49.143228000000015 30.730865999999992 C 50.706290000000024 30.522836999999996 52.22535800000002 31.371512999999997 53.69512300000001 33.40438999999999 C 53.81958300000002 33.587408999999994 53.951802000000015 33.80060799999999 54.08234800000001 34.01064699999999 C 54.14913800000001 34.11810499999999 54.21548700000002 34.22473499999999 54.28013700000002 34.326072999999994 C 53.97582400000002 34.413213 53.64040300000003 34.424153 53.43879500000003 34.522887999999995 C 55.47262100000001 36.003367 56.94616600000002 37.607026999999995 56.027992000000026 39.736526999999995 C 55.98672200000002 39.832246999999995 55.94061200000001 39.92903499999999 55.88951000000002 40.026919 C 56.23169300000003 41.151769 56.537463000000024 42.28244500000001 56.29744800000002 43.50044599999998 C 56.053810000000006 43.39780799999999 55.810172000000016 43.29516999999999 55.56653400000001 43.192532 C 56.165299000000026 46.07365999999999 55.37082100000003 46.760431000000004 55.117746000000025 48.29991100000001 C 54.196346333333345 48.30901733333333 53.274946666666665 48.318123666666665 52.35354700000001 48.32722999999999 C 48.812468 44.57491366666667 45.271389 40.82259733333334 41.73031000000001 37.070281 C 42.09332066666667 36.59396033333333 42.45633133333334 36.11763966666667 42.81934199999999 35.641319 C 42.06818899999998 35.646919000000004 41.385626 35.812595 40.83482099999999 36.285689000000005 C 40.341464666666674 35.827789333333335 39.84810833333333 35.36988966666667 39.35475200000001 34.91199000000001 C 38.667829 35.350765 37.580715999999995 36.083709000000006 37.044627999999996 36.867250000000006 C 36.87265466666666 37.25881066666666 36.70068133333332 37.65037133333334 36.528707999999995 38.041931999999996 C 36.523008 38.046032 36.517427999999995 38.050132 36.511948 38.054252000000005 C 36.09038399999999 38.37219199999999 36.27573 38.868636 36.171642 39.279953000000006 C 36.001033 39.73073233333334 35.830424 40.181511666666665 35.65981500000001 40.632291000000016 C 35.44534966666667 40.636721 35.230884333333336 40.641151 35.016419 40.64558100000001 C 35.00856233333333 40.53164466666667 35.000705666666676 40.417708333333344 34.99284900000001 40.30377200000001 C 34.88365933333334 40.20846800000001 34.774469666666675 40.113164000000005 34.66528000000001 40.017860000000006 C 34.249276 40.201851000000005 34.038933 40.97287500000001 33.49739 40.838848999999996 C 32.234375 40.60496499999999 31.032508000000007 40.32000799999999 29.945230000000002 40.216951 C 30.145181000000004 39.852458 30.025990000000004 39.701233 29.739973000000003 39.443345 C 29.786413 38.27143300000001 29.869341 37.150043000000004 30.293743 36.501462999999994 C 30.293743 36.501462999999994 30.066952999999998 36.021370999999995 30.25076300000001 35.186331 C 30.349383000000003 34.738287 30.938548000000004 33.985675 31.268406000000006 33.332987 C 31.553319000000002 32.76922900000001 31.591340000000006 32.265958 31.591340000000006 32.265958 C 29.325162666666664 31.69449866666667 27.05898533333334 31.123039333333335 24.792808 30.551579999999994 C 24.460546999999995 30.973245000000006 24.738688000000003 31.522359 24.735107999999997 31.919891999999994 C 23.959 32.721491 23.840760999999997 33.259587 24.120735 33.7038 C 23.640418 34.207873000000006 23.721755 34.784040000000005 23.784057 35.352281999999995 C 23.431376 36.320705000000004 23.239736999999998 37.274488000000005 23.719297000000005 38.167254 C 23.589082 39.141249 23.910795 38.892379 24.075906000000003 39.06725399999999 C 23.526715 39.566172 23.753134 39.807632 24.179335 40.085836 C 24.365895000000002 40.20761300000001 24.585248 40.32545999999999 24.784297999999996 40.45444700000001 C 25.053138000000004 40.628659 25.213964 40.44127699999999 25.413131 40.591309 C 25.412631 40.75021666666667 25.412131 40.90912433333333 25.411631 41.06803200000001 C 24.974692999999995 42.257597000000004 24.537755 43.44716199999999 24.100817 44.636727 C 22.518719000000004 44.586577000000005 21.955869 44.78103899999999 21.350925000000007 44.96540199999999 C 20.948550333333333 43.76765333333333 20.546175666666667 42.569904666666666 20.143801 41.37215599999999 C 17.907781 36.815566999999994 17.468612 29.615890999999994 17.981425999999995 27.741086 C 18.494239999999998 25.866279999999996 20.677689 24.834769999999995 21.900810999999997 24.062162999999995 C 21.05061033333333 22.727984333333325 20.200409666666662 21.393805666666662 19.350208999999996 20.059627 C 17.74791099999999 21.758332999999993 16.189089 23.514771999999994 14.827032999999998 25.532492999999988 C 12.112359999999997 29.19482799999999 10.372374999999996 33.757338 8.7893209 38.27681200000001 C 5.859856797719991 38.27681133333332 2.93035769544 38.276810666666655 0.0008935931599997578 38.27681" stroke="orange" fill="none"/>
  <path d="M 100.00089359316 61.726809 C 97.07109825982667 61.72680933333334 94.14136933333334 61.72680966666667 91.21157400000001 61.726809999999986 C 91.73919300000001 59.80712299999998 92.17982100000003 57.88852400000001 92.430822 55.969936999999994 C 89.33301466666667 53.92921433333334 86.23520733333334 51.88849166666667 83.1374 49.847769 C 69.880206 56.75799 56.62301200000002 63.66821100000001 43.365818000000004 70.578432 C 43.20227699999999 71.82738800000001 43.05831099999999 73.07634300000001 42.66015100000001 74.325299 C 43.268019 74.530391 43.917269000000005 74.65271899999999 44.580619999999996 74.746846 C 45.31394 74.850902 46.064491 74.920496 46.795415999999996 75.02934300000001 C 46.31714699999999 75.767047 45.634846999999986 76.74550200000002 45.772451000000004 77.52393300000003 C 45.372595 78.82609300000001 45.253557 80.21871500000002 45.730720999999996 81.54706500000002 C 45.32827100000001 82.37954400000004 45.633920999999994 83.39917400000002 45.696311 83.68033400000002 C 45.87352199999999 84.47898100000002 45.759201 84.94106300000001 46.48306300000001 85.49745000000003 C 46.719624333333314 86.08923300000004 46.956185666666656 86.68101600000001 47.192747 87.272799 C 45.12718500000001 87.53738100000002 43.04005 87.80058500000003 40.392739 87.53863800000002 C 37.387172 87.24124300000004 35.661266999999995 86.49039900000002 34.253294 85.88669600000001 C 31.974818999999993 84.90974300000002 30.217204999999996 82.79628100000002 29.648663000000003 81.573029 C 28.571104 79.25459500000002 28.186631999999996 76.29880000000001 27.805384999999994 72.93719700000003 C 25.22129799999999 75.50641433333335 22.637210999999994 78.0756316666667 20.053123999999993 80.64484900000002 C 17.916057000000002 78.584565 16.298073999999996 76.526764 14.826999000000002 74.46966499999999 C 12.219764999999999 70.378422 9.9006872 66.20959300000001 8.747649799999998 61.726809999999986 C 5.832064397720001 61.72680966666667 2.916478995439998 61.72680933333334 0.0008935931599997578 61.726809" stroke="orange" fill="none"/>
  <path d="M 100.00089359316 85.174666 C 91.49047059316 85.17466866666666 82.98011400000001 85.17467133333334 74.46969100000001 85.174674 C 70.63259000000002 87.824353 66.41465200000002 89.883004 61.727001000000016 91.212696 C 57.80285100000002 92.502883 54.21440100000001 92.714232 50.00087300000001 92.84226799999999 C 46.18124900000001 92.77595799999999 42.30340300000001 92.38895099999999 38.276999 91.21307699999998 C 33.41931900000001 89.70267199999998 29.335558000000006 87.97083699999997 25.53655000000002 85.17467499999998 C 17.02466453105334 85.17538 8.512779062106672 85.176085 0.0008935931599997578 85.17679" stroke="orange" fill="none"/>
  <path d="M 14.826998000000003 100.00070701428001 C 14.826998000000003 91.49033534761331 14.826998000000003 82.98003666666668 14.826998000000003 74.46966499999999 C 12.111049000000003 70.47904099999998 10.071776 66.236203 8.747649799999998 61.726809999999986 C 6.570166099999998 53.828063 6.6596527000000005 46.01422900000001 8.789285899999996 38.27681200000001 C 10.317294 33.54159 12.143748999999996 29.106386999999994 14.826998000000003 25.532493000000002 C 14.826997666666664 17.02189767142666 14.826997333333331 8.511302342853334 14.826996999999997 0.0007070142799989298" stroke="green" fill="none"/>
  <path d="M 38.27699999999999 100.00070701428001 C 38.276999666666654 97.07147268094667 38.276999333333336 94.14231133333337 38.276998999999996 91.21307700000001 C 31.812238999999998 89.00302300000001 29.510808 87.926085 25.53655 85.17467500000001 C 23.999308000000006 84.11043099999999 22.095475000000004 82.580539 20.053123000000006 80.64484900000001 C 22.637210000000003 78.07563166666667 25.221297 75.50641433333334 27.805384000000004 72.93719700000001 C 27.507033666666665 69.46269900000001 27.208683333333326 65.98820099999999 26.91033300000001 62.51370300000002 C 26.302801999999996 60.407603 26.299072000000002 59.873230000000014 26.32556200000001 59.28774400000001 C 26.343059000000004 58.90099 26.371555 58.449368 26.533138 58.034706 C 27.372462000000002 55.880795000000006 27.109841000000007 55.299679000000005 30.816068 48.889399000000004 C 28.594545999999998 47.46969499999999 28.534841 45.689647 28.384780999999997 44.299274 C 28.306991000000004 43.57850799999999 27.920363 42.454061 27.401615 41.551081999999994 C 28.121212 41.70556799999999 28.840809000000007 41.860054000000005 29.560405999999993 42.014540000000004 C 29.864843 42.82386800000001 29.913956999999996 43.615788 30.903538 44.47182999999998 C 31.11324066666667 44.80464499999998 31.322943333333342 45.13746 31.532646000000007 45.470274999999994 C 31.88902700000001 46.020873 31.916538000000006 46.951578999999974 32.46109700000001 47.53834299999999 C 32.584751666666676 47.327254999999994 32.70840633333334 47.116167 32.83206100000001 46.90507899999999 C 33.25476700000001 47.55778399999999 33.69175100000001 48.29279700000001 34.07560600000001 49.10090299999999 C 36.053217000000004 50.990432 38.997524000000006 52.608219999999996 40.682396000000004 51.937862999999986 C 40.40427 51.520527999999985 40.123654 51.283637000000006 39.893826000000004 50.88741299999998 C 42.465435000000014 52.427493999999996 44.25228399999999 51.936993 44.70429600000001 51.905142999999995 C 45.156308000000024 51.873293999999994 46.08024100000001 51.94440199999999 47.20186100000001 51.25055699999999 C 46.961494333333334 50.983463333333326 46.721127666666675 50.71636966666665 46.480761000000015 50.449275999999976 C 47.32690300000001 50.55646299999999 49.11079200000001 50.65648199999999 50.0009 50.23602599999999 C 51.24257600000001 50.37000399999999 53.09209700000002 49.11691099999998 53.09339700000001 49.11121099999999 C 49.30570133333334 45.09756633333333 45.518005666666674 41.08392166666666 41.73031000000001 37.07027699999998 C 41.32445433333336 37.567010999999994 40.918598666666675 38.06374499999999 40.512743000000015 38.560479 C 40.27581 37.598803999999994 40.30638500000002 37.199017999999995 40.83482100000001 36.285684999999994 C 40.341464666666674 35.82778666666667 39.84810833333334 35.36988833333333 39.35475200000001 34.911989999999996 C 40.217115000000014 34.010743999999995 39.845698000000006 33.610236 41.107274000000004 32.617988 C 41.959909 31.947377999999997 43.018876 32.14086399999999 43.59774899999999 31.708071000000004 C 43.770566666666674 31.58402666666666 43.94338433333333 31.45998233333333 44.116202 31.335937999999995 C 43.550159000000015 30.31326899999999 42.876402000000006 29.301139 41.769656 28.759093999999997 C 41.118515333333335 28.03593966666666 40.467374666666664 27.312785333333327 39.816234 26.58963099999999 C 38.778755000000004 26.467434999999995 38.120708 26.72467099999999 37.438175 26.957420999999993 C 36.92694000000001 27.407536999999994 36.22934000000001 27.771637999999992 35.321348 28.03863499999999 C 34.708236 28.92615999999999 34.023247999999995 29.310544999999994 33.352219 29.79265499999999 C 32.978497000000004 30.62677899999999 32.619054 31.461551999999994 31.591344999999997 32.26594899999999 C 29.325165999999996 31.69449299999999 27.058987000000002 31.123036999999993 24.792808 30.551580999999995 C 25.102899 29.99864699999999 25.487685999999997 29.570204999999987 26.026159 29.397905999999992 C 25.934183 28.643795999999988 27.46480499999999 27.598993999999994 27.324356999999992 27.240070999999986 C 27.324356999999992 27.240070999999986 28.230902999999998 26.815499999999993 28.419915 26.441447 C 28.655913333333334 25.974409333333327 28.891911666666665 25.50737166666666 29.127910000000007 25.04033399999999 C 29.717650000000003 24.787336999999994 30.991494000000003 24.214809999999996 31.326077 23.231758 C 31.827056999999996 22.900081 32.350995 23.150397999999996 32.515546 22.938670999999992 C 32.828451 22.536025000000002 33.13262700000001 22.565764999999995 33.58963000000001 22.539725 C 34.020376 22.515178 34.464369999999995 22.099769 34.83313 21.87632399999999 C 29.955437999999994 21.311085000000002 26.086774000000002 21.936076 21.900810999999997 24.062162999999995 C 21.050598666666666 22.727984333333332 20.200386333333338 21.393805666666672 19.350174 20.059627 C 21.296405999999994 18.065665999999993 23.360090999999997 16.348810999999994 25.506367 14.826810999999998 C 29.518963999999997 11.827914000000002 33.899584000000004 10.31368 38.276998 8.786517400000001 C 38.276996999999994 5.857913938093331 38.27699599999999 2.9293104761866666 38.276994999999985 0.0007070142799989298" stroke="green" fill="none"/>
  <path d="M 61.727003 100.00070701428001 C 61.727003 96.96235134761332 61.727003 93.92406866666667 61.727003 90.88571300000001 C 60.18418733333335 88.63340966666668 58.64137166666667 86.38110633333334 57.09855600000001 84.12880299999999 C 56.511795 84.620888 55.919099 85.076451 55.145392 85.186231 C 54.388325999999985 85.29365000000001 54.023495 85.07543700000001 53.640233 84.85315700000001 C 53.30902500000002 84.30888600000002 52.92253099999999 83.74885200000001 52.59132300000001 83.37994100000002 C 52.159183 82.50063200000001 52.04746300000001 82.14496200000002 52.097423000000006 81.69386700000003 C 52.175819000000004 80.98603000000001 52.144733 80.63133400000001 52.065453000000005 80.16541400000001 C 51.826978999999994 79.758058 51.951553 79.27303100000003 52.00175300000001 78.82866600000003 C 52.059811000000025 78.31469799999999 52.249431 77.83584200000003 52.15201100000001 77.29201900000001 C 52.338620999999996 76.51895300000001 52.682916999999996 75.80896100000002 53.082631 75.121136 C 53.40334800000001 74.75065000000001 53.29290200000002 74.46100700000001 53.27512200000001 74.15398900000002 C 52.87109100000001 74.06250500000002 52.586277 73.78368000000002 52.337988999999986 73.44745700000001 C 51.590547 73.419505 50.900006 73.05748500000001 50.265484000000015 73.13731500000003 C 49.463516 73.23820800000001 48.669841 73.63900500000001 47.872020000000006 73.51899500000002 C 47.83353333333334 73.59794266666667 47.79504666666665 73.67689033333335 47.75655999999999 73.75583800000001 C 45.911007000000005 73.126422 44.627112000000004 71.86514000000001 43.365818000000004 70.578432 C 56.62301200000002 63.66821100000001 69.880206 56.75799 83.1374 49.847769 C 85.82170099999999 46.03153599999999 85.329274 42.308817 84.073877 40.180589 C 86.131122 35.741399 85.221745 33.41312200000001 83.48518600000001 31.444818 C 81.478132 29.181709 79.037631 27.531212000000004 75.80019 26.999827 C 77.38115233333332 24.649538333333332 78.96211466666665 22.299249666666665 80.543077 19.948961 C 78.477143 17.80492899999999 76.394787 16.077143000000003 74.450589 14.826810999999998 C 70.62849200000001 12.368783999999998 67.29107199999999 10.350540999999998 61.726997 8.7886682 C 61.726997 5.8593478047600005 61.726997 2.9300274095200014 61.726997 0.0007070142799989298" stroke="green" fill="none"/>
  <path d="M 85.17477799999999 100.00070701428001 C 85.17477799999999 95.05865401428 85.17477799999999 90.11664400000001 85.17477799999999 85.174591 C 85.17827799999999 81.60123500000002 85.181778 78.02787900000001 85.185278 74.45452300000001 C 88.14331299999999 70.48114100000001 89.73482 66.12024600000001 91.21157399999998 61.72681000000001 C 91.76889900000002 59.84972900000001 92.129525 57.918065000000006 92.43082199999999 55.969937000000016 C 92.73879699999999 53.973321000000006 92.81175099999999 51.98788900000001 92.84865599999999 50.00068700000002 C 92.92331599999999 45.98060400000001 92.28016399999998 42.14844599999999 91.21427699999998 38.27681200000001 C 89.96442 33.73694100000001 87.509241 28.7746 85.174857 25.531027 C 85.14699699999998 21.978532333333337 85.11913700000001 18.42603766666667 85.091277 14.873543000000003 C 85.12619200000002 9.815108363333335 85.161107 5.05914165094667 85.196022 0.0007070142799989298" stroke="green" fill="none"/>
</svg>
