<?xml version="1.0" encoding="UTF-8" standalone="no"?>
<!-- Created with Inkscape (http://www.inkscape.org/) -->

<svg
   width="100mm"
   height="100mm"
   viewBox="0 0 100 100"
   version="1.1"
   id="svg1"
   inkscape:version="1.3 (0e150ed, 2023-07-21)"
   sodipodi:docname="snowflake.svg"
   xmlns:inkscape="http://www.inkscape.org/namespaces/inkscape"
   xmlns:sodipodi="http://sodipodi.sourceforge.net/DTD/sodipodi-0.dtd"
   xmlns="http://www.w3.org/2000/svg"
   xmlns:svg="http://www.w3.org/2000/svg"
   xmlns:rdf="http://www.w3.org/1999/02/22-rdf-syntax-ns#"
   xmlns:cc="http://creativecommons.org/ns#"
   xmlns:dc="http://purl.org/dc/elements/1.1/">
  <title
     id="title21">Snowflake</title>
  <sodipodi:namedview
     id="namedview1"
     pagecolor="#ffffff"
     bordercolor="#000000"
     borderopacity="0.25"
     inkscape:showpageshadow="2"
     inkscape:pageopacity="0.0"
     inkscape:pagecheckerboard="0"
     inkscape:deskcolor="#d1d1d1"
     inkscape:document-units="mm"
     inkscape:zoom="0.52796399"
     inkscape:cx="480.14638"
     inkscape:cy="203.61237"
     inkscape:window-width="1312"
     inkscape:window-height="774"
     inkscape:window-x="74"
     inkscape:window-y="188"
     inkscape:window-maximized="0"
     inkscape:current-layer="layer1" />
  <defs
     id="defs1" />
  <g
     inkscape:label="Layer 1"
     inkscape:groupmode="layer"
     id="layer1">
    <path
       id="path20"
       style="fill:none;stroke:#ff7800;stroke-width:0.3;stroke-opacity:0.495935"
       d="M -0.06672443 10.829403 L 6.0278037 10.865733 C 6.5252045 9.8295622 7.1864666 8.863761 8.0318593 8.0210928 L 12.445365 12.44453 C 18.931685 10.855702 23.836369 13.378709 24.90652 19.492678 C 32.28643 13.243141 37.002119 -5.539257 36.911155 26.096992 C 36.880325 36.820674 47.250504 39.750259 47.250504 39.750259 L 57.50495 42.500602 C 57.50495 42.500602 67.950586 45.148586 73.285738 35.846187 C 89.025123 8.4029101 83.717809 27.026783 86.984222 36.128986 C 90.595416 31.814358 95.459969 31.630519 99.930626 35.074433 " />
    <path
       id="path15"
       style="fill:none;stroke:#2ec27e;stroke-width:0.3;stroke-opacity:0.495935"
       d="M 89.134297 99.996368 L 89.133691 93.976473 C 90.179068 93.438336 91.16896 92.796822 91.966233 91.978958 L 87.552957 87.555488 C 89.141789 81.069184 86.618775 76.164511 80.504792 75.094363 C 86.754344 67.714471 105.53679 62.998797 73.900462 63.089757 C 63.176754 63.120591 60.247162 52.750433 60.247162 52.750433 L 57.503653 42.499068 C 57.503653 42.499068 54.855663 32.053455 64.158084 26.718317 C 91.601427 10.978969 72.977509 16.286271 63.875284 13.019866 C 68.21406 9.3884783 68.37569 4.489674 64.871704 -0.0014988433 " />
    <path
       id="path17"
       style="fill:none;stroke:#ff7800;stroke-width:0.3;stroke-opacity:0.495935"
       d="M 100.06409 89.171567 L 93.969562 89.135237 C 93.472161 90.171408 92.810899 91.13721 91.965507 91.979878 L 87.552001 87.556441 C 81.065682 89.145269 76.160997 86.622261 75.090846 80.508293 C 67.710937 86.75783 62.995251 105.54023 63.086211 73.903978 C 63.117045 63.180296 52.746863 60.250711 52.746863 60.250711 L 42.49422 57.502058 C 42.49422 57.502058 32.048583 54.854073 26.713431 64.156472 C 10.974046 91.59975 16.28136 72.975877 13.014947 63.873673 C 9.3849635 68.210752 4.488544 68.373942 -0.0012101775 64.874174 " />
    <path
       id="path14"
       style="fill:none;stroke:#2ec27e;stroke-width:0.3;stroke-opacity:0.495935"
       d="M 39.469202 99.978124 C 43.598684 97.66334 45.252094 93.709635 43.519005 88.966555 C 53.03496 90.688865 66.510083 104.59703 50.61316 77.244748 C 45.224607 67.973192 52.740648 60.25101 52.740648 60.25101 L 56.81076 56.385567 L 43.172844 43.896928 L 47.258054 39.753774 C 47.258054 39.753774 54.774095 32.031592 49.385543 22.760036 C 33.488619 -4.59225 46.963742 9.3159186 56.479696 11.038229 C 54.739486 6.2756578 56.413664 2.3089601 60.580532 -0.0017953249 " />
    <path
       id="path19"
       style="fill:none;stroke:#2ec27e;stroke-width:0.3;stroke-opacity:0.495935"
       d="M 10.829279 -0.06657342 L 10.865609 6.0279401 C 9.8294352 6.5253397 8.8636317 7.1866002 8.0209615 8.0319909 L 12.444409 12.445486 C 10.855577 18.93179 13.378591 23.836463 19.492574 24.906611 C 13.243022 32.286503 -5.5394207 37.002181 26.096904 36.911217 C 36.820612 36.880387 39.750204 47.250541 39.750204 47.250541 L 42.495049 57.505716 C 42.495049 57.505716 45.14304 67.951329 35.840618 73.286467 C 8.397275 89.025815 27.021193 83.718513 36.123418 86.984918 C 31.79332 90.609043 31.623675 95.495518 35.106018 99.979326 " />
    <path
       id="path21"
       style="fill:none;stroke:#ff7800;stroke-width:0.3;stroke-opacity:0.495935"
       d="M -0.0017877199 60.569998 C 2.3096867 56.409679 6.2741271 54.739141 11.033306 56.478103 C 9.3109918 46.962172 -4.5972104 33.487081 22.755141 49.383967 C 32.026719 54.772507 39.74892 47.256483 39.74892 47.256483 L 43.177805 43.896209 L 56.80514 56.382443 L 60.250246 52.746177 C 60.250246 52.746177 67.972447 45.230153 77.244025 50.618693 C 104.59637 66.515579 90.688174 53.040488 88.96586 43.524557 C 93.677547 45.246166 97.610274 43.625982 99.931263 39.556465 " />
  </g>
  <metadata
     id="metadata21">
    <rdf:RDF>
      <cc:Work
         rdf:about="">
        <dc:title>Snowflake</dc:title>
        <dc:creator>
          <cc:Agent>
            <dc:title>Thomas Ahle</dc:title>
          </cc:Agent>
        </dc:creator>
      </cc:Work>
    </rdf:RDF>
  </metadata>
</svg>
