<svg viewBox="0 0 100 100" xmlns="http://www.w3.org/2000/svg" data-source="juleflet.dk" data-exported="2025-12-19T09:53:46.933Z" data-author="Thomas Ahle" data-weave-parity="0">
  <title>Stjerne Ramme</title>
  <desc>Baseret på et klassisk mønster</desc>
  <path d="M 66.66666666666666 37.77001069119175 C 56.172637745290146 35.60076583331873 43.827362254709854 35.60076583331873 33.33333333333333 37.77001069119175" stroke="orange" fill="none"/>
  <path d="M 66.66666666666666 39.46317245654626 C 54.907680609446054 37.14682455490596 45.092319390553946 37.14682455490596 33.33333333333333 39.46317245654626" stroke="orange" fill="none"/>
  <path d="M 66.66666666666666 40.95245142987948 C 55.048231402317626 38.6928832764932 44.95176859768237 38.6928832764932 33.33333333333333 40.95245142987948" stroke="orange" fill="none"/>
  <path d="M 66.66666666666666 42.476153634699884 C 66.66666666666666 42.476153634699884 58.70765945518076 41.310164144695015 58.70765945518076 41.310164144695015 C 58.70765945518076 41.310164144695015 57.385190345110814 42.591597163124106 57.385190345110814 42.591597163124106 C 54.9607922740041 43.81554577221306 52.54913965688998 45.50730208571102 50 46.98530696975772 C 47.45086034311002 45.50730208571102 45.0392077259959 43.81554577221306 42.614809654889186 42.591597163124106 C 42.614809654889186 42.591597163124106 41.29234054481925 41.310164144695015 41.29234054481925 41.310164144695015 C 41.29234054481925 41.310164144695015 33.33333333333333 42.476153634699884 33.33333333333333 42.476153634699884" stroke="orange" fill="none"/>
  <path d="M 66.66666666666666 57.523846365300116 C 66.66666666666666 57.523846365300116 58.70765945518076 58.689835855304985 58.70765945518076 58.689835855304985 C 58.70765945518076 58.689835855304985 57.385190345110814 57.408402836875894 57.385190345110814 57.408402836875894 C 54.9607922740041 56.18445422778693 52.54913965688998 54.49269791428898 50 53.01469303024228 C 47.45086034311002 54.49269791428898 45.0392077259959 56.18445422778693 42.614809654889186 57.408402836875894 C 42.614809654889186 57.408402836875894 41.29234054481925 58.689835855304985 41.29234054481925 58.689835855304985 C 41.29234054481925 58.689835855304985 33.33333333333333 57.523846365300116 33.33333333333333 57.523846365300116" stroke="orange" fill="none"/>
  <path d="M 66.66666666666666 59.04754857012051 C 55.048231402317626 61.3071167235068 44.95176859768237 61.3071167235068 33.33333333333333 59.04754857012051" stroke="orange" fill="none"/>
  <path d="M 66.66666666666666 60.53682754345374 C 54.907680609446054 62.853175445094045 45.092319390553946 62.853175445094045 33.33333333333333 60.53682754345374" stroke="orange" fill="none"/>
  <path d="M 66.66666666666666 62.22998930880824 C 56.172637745290146 64.39923416668127 43.827362254709854 64.39923416668127 33.33333333333333 62.22998930880824" stroke="orange" fill="none"/>
  <path d="M 37.77001069119175 66.66666666666666 C 35.60076583331873 56.172637745290146 35.60076583331873 43.827362254709854 37.77001069119175 33.33333333333333" stroke="green" fill="none"/>
  <path d="M 39.46317245654626 66.66666666666666 C 37.14682455490596 54.907680609446054 37.14682455490596 45.092319390553946 39.46317245654626 33.33333333333333" stroke="green" fill="none"/>
  <path d="M 40.95245142987948 66.66666666666666 C 38.6928832764932 55.048231402317626 38.6928832764932 44.95176859768237 40.95245142987948 33.33333333333333" stroke="green" fill="none"/>
  <path d="M 42.476153634699884 66.66666666666666 C 42.476153634699884 66.66666666666666 41.310164144695015 58.70765945518076 41.310164144695015 58.70765945518076 C 41.310164144695015 58.70765945518076 42.591597163124106 57.385190345110814 42.591597163124106 57.385190345110814 C 43.81554577221306 54.9607922740041 45.50730208571102 52.54913965688998 46.98530696975772 50 C 45.50730208571102 47.45086034311002 43.81554577221306 45.0392077259959 42.591597163124106 42.614809654889186 C 42.591597163124106 42.614809654889186 41.310164144695015 41.29234054481925 41.310164144695015 41.29234054481925 C 41.310164144695015 41.29234054481925 42.476153634699884 33.33333333333333 42.476153634699884 33.33333333333333" stroke="green" fill="none"/>
  <path d="M 57.523846365300116 66.66666666666666 C 57.523846365300116 66.66666666666666 58.689835855304985 58.70765945518076 58.689835855304985 58.70765945518076 C 58.689835855304985 58.70765945518076 57.408402836875894 57.385190345110814 57.408402836875894 57.385190345110814 C 56.18445422778693 54.9607922740041 54.49269791428898 52.54913965688998 53.01469303024228 50 C 54.49269791428898 47.45086034311002 56.18445422778693 45.0392077259959 57.408402836875894 42.614809654889186 C 57.408402836875894 42.614809654889186 58.689835855304985 41.29234054481925 58.689835855304985 41.29234054481925 C 58.689835855304985 41.29234054481925 57.523846365300116 33.33333333333333 57.523846365300116 33.33333333333333" stroke="green" fill="none"/>
  <path d="M 59.04754857012051 66.66666666666666 C 61.3071167235068 55.048231402317626 61.3071167235068 44.95176859768237 59.04754857012051 33.33333333333333" stroke="green" fill="none"/>
  <path d="M 60.53682754345374 66.66666666666666 C 62.853175445094045 54.907680609446054 62.853175445094045 45.092319390553946 60.53682754345374 33.33333333333333" stroke="green" fill="none"/>
  <path d="M 62.22998930880824 66.66666666666666 C 64.39923416668127 56.172637745290146 64.39923416668127 43.827362254709854 62.22998930880824 33.33333333333333" stroke="green" fill="none"/>
</svg>