<?xml version="1.0" encoding="UTF-8" standalone="no"?>
<svg
   viewBox="0 0 100 100"
   data-source="juleflet.dk"
   data-exported="2025-12-19T09:53:46.933Z"
   data-author="Thomas Ahle"
   data-weave-parity="0"
   version="1.1"
   id="svg16"
   sodipodi:docname="stjerne-ramme.svg"
   inkscape:version="1.3 (0e150ed, 2023-07-21)"
   xmlns:inkscape="http://www.inkscape.org/namespaces/inkscape"
   xmlns:sodipodi="http://sodipodi.sourceforge.net/DTD/sodipodi-0.dtd"
   xmlns="http://www.w3.org/2000/svg"
   xmlns:svg="http://www.w3.org/2000/svg"
   xmlns:rdf="http://www.w3.org/1999/02/22-rdf-syntax-ns#"
   xmlns:cc="http://creativecommons.org/ns#"
   xmlns:dc="http://purl.org/dc/elements/1.1/">
  <defs
     id="defs16" />
  <sodipodi:namedview
     id="namedview16"
     pagecolor="#ffffff"
     bordercolor="#000000"
     borderopacity="0.25"
     inkscape:showpageshadow="2"
     inkscape:pageopacity="0.0"
     inkscape:pagecheckerboard="0"
     inkscape:deskcolor="#d1d1d1"
     inkscape:zoom="2.36"
     inkscape:cx="49.788136"
     inkscape:cy="50"
     inkscape:window-width="1312"
     inkscape:window-height="411"
     inkscape:window-x="0"
     inkscape:window-y="34"
     inkscape:window-maximized="0"
     inkscape:current-layer="svg16" />
  <title
     id="title1">Stjerne Ramme</title>
  <desc
     id="desc1">Baseret på et klassisk mønster</desc>
  <path
     d="m 99.898784,13.341206 c -31.418357,-6.473488 -68.379212,-6.473488 -99.79756771,0"
     stroke="#ffa500"
     fill="none"
     id="path1"
     style="stroke-width:0.999999" />
  <path
     d="m 99.898784,18.393958 c -35.205546,-6.912472 -64.592023,-6.912472 -99.79756771,0"
     stroke="#ffa500"
     fill="none"
     id="path2"
     style="stroke-width:0.999999" />
  <path
     d="m 99.898784,22.838283 c -34.784749,-6.743031 -65.012819,-6.743031 -99.79756771,0"
     stroke="#ffa500"
     fill="none"
     id="path3"
     style="stroke-width:0.999999" />
  <path
     d="m 99.898784,27.385336 c 0,0 -23.828689,-3.479562 -23.828689,-3.479562 0,0 -3.959376,3.824069 -3.959376,3.824069 C 64.852249,31.382365 57.631939,36.430925 50,40.841606 42.368061,36.430925 35.147751,31.382365 27.889279,27.729843 c 0,0 -3.959376,-3.824069 -3.959376,-3.824069 0,0 -23.82868671,3.479562 -23.82868671,3.479562"
     stroke="#ffa500"
     fill="none"
     id="path4"
     style="stroke-width:0.999999" />
  <path
     d="m 99.898784,72.290844 c 0,0 -23.828689,3.479562 -23.828689,3.479562 0,0 -3.959376,-3.824068 -3.959376,-3.824068 C 64.852249,68.293814 57.631939,63.245255 50,58.834574 c -7.631939,4.410681 -14.852249,9.45924 -22.110721,13.111764 0,0 -3.959376,3.824068 -3.959376,3.824068 0,0 -23.82868671,-3.479562 -23.82868671,-3.479562"
     stroke="#ffa500"
     fill="none"
     id="path5"
     style="stroke-width:0.999999" />
  <path
     d="m 99.898784,76.837898 c -34.784749,6.743031 -65.012819,6.743031 -99.79756771,0"
     stroke="#ffa500"
     fill="none"
     id="path6"
     style="stroke-width:0.999999" />
  <path
     d="m 99.898784,81.282223 c -35.205546,6.912471 -64.592023,6.912471 -99.79756771,0"
     stroke="#ffa500"
     fill="none"
     id="path7"
     style="stroke-width:0.999999" />
  <path
     d="m 99.898784,86.334975 c -31.418357,6.473487 -68.379212,6.473487 -99.79756771,0"
     stroke="#ffa500"
     fill="none"
     id="path8"
     style="stroke-width:0.999999" />
  <path
     d="m 13.384304,99.574964 c -6.4945603,-31.316411 -6.4945603,-68.157337 0,-99.47374771"
     stroke="#008000"
     fill="none"
     id="path9"
     style="stroke-width:0.999999" />
  <path
     d="m 18.453507,99.574964 c -6.934976,-35.091312 -6.934976,-64.382437 0,-99.47374771"
     stroke="#008000"
     fill="none"
     id="path10"
     style="stroke-width:0.999999" />
  <path
     d="m 22.9123,99.574964 c -6.764983,-34.671881 -6.764983,-64.801868 0,-99.47374771"
     stroke="#008000"
     fill="none"
     id="path11"
     style="stroke-width:0.999999" />
  <path
     d="m 27.474153,99.574964 c 0,0 -3.490888,-23.75137 -3.490888,-23.75137 0,0 3.836517,-3.946529 3.836517,-3.946529 3.664414,-7.234918 8.729408,-14.4318 13.154447,-22.038975 -4.425039,-7.607175 -9.490033,-14.804057 -13.154447,-22.038975 0,0 -3.836517,-3.946528 -3.836517,-3.946528 0,0 3.490888,-23.75137071 3.490888,-23.75137071"
     stroke="#008000"
     fill="none"
     id="path12"
     style="stroke-width:0.999999" />
  <path
     d="m 72.525845,99.574964 c 0,0 3.490889,-23.75137 3.490889,-23.75137 0,0 -3.836516,-3.946529 -3.836516,-3.946529 -3.664414,-7.234918 -8.729408,-14.4318 -13.154447,-22.038975 4.425039,-7.607175 9.490033,-14.804057 13.154447,-22.038975 0,0 3.836516,-3.946528 3.836516,-3.946528 0,0 -3.490889,-23.75137071 -3.490889,-23.75137071"
     stroke="#008000"
     fill="none"
     id="path13"
     style="stroke-width:0.999999" />
  <path
     d="m 77.087701,99.574964 c 6.764982,-34.671881 6.764982,-64.801868 0,-99.47374771"
     stroke="#008000"
     fill="none"
     id="path14"
     style="stroke-width:0.999999" />
  <path
     d="m 81.546491,99.574964 c 6.934976,-35.091312 6.934976,-64.382437 0,-99.47374771"
     stroke="#008000"
     fill="none"
     id="path15"
     style="stroke-width:0.999999" />
  <path
     d="m 86.615694,99.574964 c 6.494561,-31.316411 6.494561,-68.157337 0,-99.47374771"
     stroke="#008000"
     fill="none"
     id="path16"
     style="stroke-width:0.999999" />
  <metadata
     id="metadata16">
    <rdf:RDF>
      <cc:Work
         rdf:about="">
        <dc:title>Stjerne Ramme</dc:title>
      </cc:Work>
    </rdf:RDF>
  </metadata>
</svg>
