<?xml version="1.0" encoding="UTF-8" standalone="no"?>
<svg
   viewBox="0 0 100 100"
   version="1.1"
   id="svg6"
   sodipodi:docname="yin-yang.svg"
   inkscape:version="1.3 (0e150ed, 2023-07-21)"
   xmlns:inkscape="http://www.inkscape.org/namespaces/inkscape"
   xmlns:sodipodi="http://sodipodi.sourceforge.net/DTD/sodipodi-0.dtd"
   xmlns="http://www.w3.org/2000/svg"
   xmlns:svg="http://www.w3.org/2000/svg"
   xmlns:rdf="http://www.w3.org/1999/02/22-rdf-syntax-ns#"
   xmlns:cc="http://creativecommons.org/ns#"
   xmlns:dc="http://purl.org/dc/elements/1.1/"
   data-weave-parity="0"
  >
  <title>Sol</title>
  <desc>To yin-yang symboler der sammen giver en roterende sol</desc>
  <metadata>
    <rdf:RDF>
      <cc:Work rdf:about="">
        <dc:title>Sol</dc:title>
        <dc:creator>
          <cc:Agent>
            <dc:title>Klassisk</dc:title>
          </cc:Agent>
        </dc:creator>
        <dc:description>To yin-yang symboler der sammen giver en roterende sol</dc:description>
        <dc:source>juleflet.dk</dc:source>
      </cc:Work>
    </rdf:RDF>
  </metadata>
  <path
     id="path8"
     style="fill:none;stroke:#ffbe6f;stroke-width:1.13386"
     d="M 50,100 V 90 M 50,10 V 0 m 0,90 C 61.04,90 70,81.04 70,70 70,58.96 61.04,50 50,50 38.96,50 30,41.04 30,30 30,18.96 38.96,10 50,10" />
  <path
     id="path10"
     style="fill:none;stroke:#33d17a;stroke-width:1.13386"
     d="m 89.750075,50 h 10 M 0,50 h 10 m 80,0 C 90,38.96 81.04,30 70,30 58.96,30 50,38.96 50,50 50,61.04 41.04,70 30,70 18.96,70 10,61.04 10,50" />
  <path
     id="path20"
     style="fill:none;stroke:#33d17a;stroke-width:1.13386"
     d="m 0,21.716 h 21.857422 m 56.429686,0 H 99.999999 M 21.715725,21.715725 A 40,40 0 0 1 49.999996,9.9999962 40,40 0 0 1 78.284267,21.715725" />
  <path
     id="path21"
     style="fill:none;stroke:#ffbe6f;stroke-width:1.13386"
     d="m 78.287212,0 v 21.857422 m 0,56.429686 v 21.71289 m 2.75e-4,-78.284273 A 40,40 0 0 1 90.003215,49.999996 40,40 0 0 1 78.287487,78.284267" />
  <path
     id="path22"
     style="fill:none;stroke:#33d17a;stroke-width:1.13386"
     d="M 99.999996,78.283693 H 78.142575 m -56.429685,0 H 0 m 78.284275,2.75e-4 A 40,40 0 0 1 50.000002,89.999696 40,40 0 0 1 21.715731,78.283968" />
  <path
     id="path23"
     style="fill:none;stroke:#ffbe6f;stroke-width:1.13386"
     d="M 21.716003,99.999996 V 78.142573 m 0,-56.429683 V 0 m -2.75e-4,78.284273 A 40,40 0 0 1 10,50.000002 40,40 0 0 1 21.715728,21.715731" />
</svg>
