<?xml version="1.0" encoding="UTF-8" standalone="no"?>
<!-- Created with Inkscape (http://www.inkscape.org/) -->

<svg
   width="100mm"
   height="100mm"
   viewBox="0 0 100 100"
   version="1.1"
   id="svg1"
   xml:space="preserve"
   inkscape:version="1.3 (0e150ed, 2023-07-21)"
   sodipodi:docname="triple-heart.svg"
   xmlns:inkscape="http://www.inkscape.org/namespaces/inkscape"
   xmlns:sodipodi="http://sodipodi.sourceforge.net/DTD/sodipodi-0.dtd"
   xmlns:xlink="http://www.w3.org/1999/xlink"
   xmlns="http://www.w3.org/2000/svg"
   xmlns:svg="http://www.w3.org/2000/svg"
   xmlns:rdf="http://www.w3.org/1999/02/22-rdf-syntax-ns#"
   xmlns:cc="http://creativecommons.org/ns#"
   xmlns:dc="http://purl.org/dc/elements/1.1/"><title
     id="title11">Triple Hjerte</title><sodipodi:namedview
     id="namedview1"
     pagecolor="#ffffff"
     bordercolor="#000000"
     borderopacity="0.25"
     inkscape:showpageshadow="2"
     inkscape:pageopacity="0.0"
     inkscape:pagecheckerboard="0"
     inkscape:deskcolor="#d1d1d1"
     inkscape:document-units="mm"
     inkscape:zoom="2.1338779"
     inkscape:cx="203.6199"
     inkscape:cy="199.87086"
     inkscape:window-width="1616"
     inkscape:window-height="994"
     inkscape:window-x="0"
     inkscape:window-y="34"
     inkscape:window-maximized="0"
     inkscape:current-layer="layer1" /><defs
     id="defs1" /><g
     inkscape:label="Layer 1"
     inkscape:groupmode="layer"
     id="layer1"><path
       style="fill:none;stroke:#613583;stroke-width:0.3"
       d="M -0.39011107,87.006438 H 100.06343"
       id="path1" /><path
       style="fill:none;stroke:#613583;stroke-width:0.3"
       d="M -0.39011107,74.227558 H 100.06343"
       id="path2" /><path
       style="fill:none;stroke:#613583;stroke-width:0.3"
       d="M -0.39011107,62.104639 62.846624,62.453801 c 0,-3.524974 2.612794,-6.476351 5.791431,-6.541873 3.178637,-0.06552 5.979169,2.828297 5.979169,6.192711 h 25.446206"
       id="path3"
       sodipodi:nodetypes="cczcc" /><circle
       style="fill:none;stroke:#33d17a;stroke-width:0.3"
       id="path4"
       cx="-61.901363"
       cy="68.727402"
       r="5.8746963"
       transform="rotate(-90)" /><circle
       style="fill:none;stroke:#33d17a;stroke-width:0.300001"
       id="circle4"
       cx="-49.835632"
       cy="68.683205"
       r="18.647572"
       transform="rotate(-90)" /><path
       style="fill:none;stroke:#613583;stroke-width:0.3"
       d="M -0.39011107,49.84541 50.042084,49.649928 c 0,-7.215383 4.854186,-18.395555 18.595971,-18.678818 13.741785,-0.283262 18.660758,11.349788 18.660758,18.8743 h 12.764617"
       id="path5"
       sodipodi:nodetypes="cczcc" /><circle
       style="fill:none;stroke:#33d17a;stroke-width:0.300002"
       id="circle5"
       cx="-36.084797"
       cy="68.683205"
       r="30.819685"
       transform="rotate(-90)" /><path
       style="fill:none;stroke:#613583;stroke-width:0.3"
       d="M -0.39011107,37.581121 37.891478,37.499001 c 0,-19.163924 14.674566,-32.1728898 30.746577,-32.1728898 16.072011,0 30.926409,12.1214808 30.926409,32.2550098 h 0.498966"
       id="path6"
       sodipodi:nodetypes="cczcc" /><rect
       style="fill:none;stroke:#33d17a;stroke-width:0.3"
       id="rect6"
       width="99.699997"
       height="99.699997"
       x="-99.459885"
       y="0.5401141"
       transform="rotate(-90)" /><use
       x="0"
       y="0"
       xlink:href="#path1"
       id="use6"
       transform="matrix(0,1,1,0,0.39011384,-0.39011383)" /><use
       x="0"
       y="0"
       xlink:href="#path2"
       id="use7"
       transform="matrix(0,1,1,0,0.38031535,-0.39011383)" /><use
       x="0"
       y="0"
       xlink:href="#path3"
       id="use8"
       transform="matrix(0,1,1,0,0.39011384,-0.39011383)" /><use
       x="0"
       y="0"
       xlink:href="#path5"
       id="use9"
       transform="matrix(0,1,1,0,0.39011384,-0.39011383)" /><use
       x="0"
       y="0"
       xlink:href="#path6"
       id="use10"
       transform="matrix(0,1,1,0,0.39011384,-0.39011383)" /><use
       x="0"
       y="0"
       xlink:href="#rect6"
       id="use11"
       transform="matrix(0,1,1,0,0.39011384,-0.39011383)" /></g><metadata
     id="metadata11"><rdf:RDF><cc:Work
         rdf:about=""><dc:title>Triple Hjerte</dc:title><dc:creator><cc:Agent><dc:title>Ukendt</dc:title></cc:Agent></dc:creator></cc:Work></rdf:RDF></metadata></svg>
