<svg xmlns="http://www.w3.org/2000/svg" viewBox="0 0 16 16">
  <defs>
    <clipPath id="h">
      <path d="M8 14 L2 8 C0 6 0 2 4 2 C6 2 8 4 8 5 C8 4 10 2 12 2 C16 2 16 6 14 8 Z"/>
    </clipPath>
  </defs>
  <g clip-path="url(#h)">
    <!-- Left lobe white -->
    <circle cx="4" cy="4.5" r="4" fill="#fff"/>
    <!-- Right lobe red -->
    <circle cx="12" cy="4.5" r="4" fill="#c00"/>
    <!-- 2x2 checkerboard body -->
    <rect x="0" y="5" width="8" height="4" fill="#fff"/>
    <rect x="8" y="5" width="8" height="4" fill="#c00"/>
    <rect x="0" y="9" width="8" height="6" fill="#c00"/>
    <rect x="8" y="9" width="8" height="6" fill="#fff"/>
  </g>
  <!-- Thin outline for visibility -->
  <path d="M8 14 L2 8 C0 6 0 2 4 2 C6 2 8 4 8 5 C8 4 10 2 12 2 C16 2 16 6 14 8 Z"
        fill="none" stroke="#999" stroke-width="0.3"/>
</svg>